<mxfile host="65bd71144e">
    <diagram id="JmSn60b2Ww4q_2U_1Mgs" name="Page-1">
        <mxGraphModel dx="1900" dy="633" grid="1" gridSize="10" guides="1" tooltips="1" connect="1" arrows="1" fold="1" page="1" pageScale="1" pageWidth="827" pageHeight="1169" math="0" shadow="0">
            <root>
                <mxCell id="0"/>
                <mxCell id="1" parent="0"/>
                <mxCell id="101" value="" style="rounded=0;whiteSpace=wrap;html=1;fillColor=#FFFFFF;strokeColor=none;" parent="1" vertex="1">
                    <mxGeometry x="-710" y="34" width="1450" height="1066" as="geometry"/>
                </mxCell>
                <mxCell id="99" value="" style="rounded=0;whiteSpace=wrap;html=1;fillColor=#FFFFFF;" parent="1" vertex="1">
                    <mxGeometry x="256" y="174" width="220" height="730" as="geometry"/>
                </mxCell>
                <mxCell id="100" style="edgeStyle=none;html=1;entryX=0.97;entryY=0.5;entryDx=0;entryDy=0;entryPerimeter=0;exitX=0.5;exitY=1;exitDx=0;exitDy=0;" parent="1" source="98" target="4" edge="1">
                    <mxGeometry relative="1" as="geometry">
                        <Array as="points">
                            <mxPoint x="593" y="997"/>
                        </Array>
                    </mxGeometry>
                </mxCell>
                <mxCell id="98" value="" style="rounded=0;whiteSpace=wrap;html=1;fillColor=#FFFFFF;" parent="1" vertex="1">
                    <mxGeometry x="513" y="564" width="160" height="340" as="geometry"/>
                </mxCell>
                <mxCell id="78" value="" style="rounded=0;whiteSpace=wrap;html=1;fillColor=#FFFFFF;" parent="1" vertex="1">
                    <mxGeometry x="-430" y="174" width="610" height="810" as="geometry"/>
                </mxCell>
                <mxCell id="2" value="Azure IoT Hub" style="aspect=fixed;html=1;points=[];align=center;image;fontSize=12;image=img/lib/azure2/iot/IoT_Hub.svg;" parent="1" vertex="1">
                    <mxGeometry x="561" y="584" width="64" height="64" as="geometry"/>
                </mxCell>
                <mxCell id="3" value="Azure IoT Edge Device" style="aspect=fixed;html=1;points=[];align=center;image;fontSize=12;image=img/lib/azure2/preview/IoT_Edge.svg;" parent="1" vertex="1">
                    <mxGeometry x="559" y="694" width="68" height="67" as="geometry"/>
                </mxCell>
                <mxCell id="4" value="IoT Edge Device" style="sketch=0;aspect=fixed;pointerEvents=1;shadow=0;dashed=0;html=1;strokeColor=none;labelPosition=center;verticalLabelPosition=bottom;verticalAlign=top;align=center;fillColor=#00188D;shape=mxgraph.mscae.enterprise.device" parent="1" vertex="1">
                    <mxGeometry x="-350" y="974" width="89.42" height="46.5" as="geometry"/>
                </mxCell>
                <mxCell id="8" value="" style="shape=mxgraph.cisco.computers_and_peripherals.microphone;html=1;pointerEvents=1;dashed=0;fillColor=#036897;strokeColor=#ffffff;strokeWidth=2;verticalLabelPosition=bottom;verticalAlign=top;align=center;outlineConnect=0;" parent="1" vertex="1">
                    <mxGeometry x="-550" y="243.5" width="80" height="96" as="geometry"/>
                </mxCell>
                <mxCell id="9" value="" style="shape=mxgraph.cisco.computers_and_peripherals.speaker;html=1;pointerEvents=1;dashed=0;fillColor=#036897;strokeColor=#ffffff;strokeWidth=2;verticalLabelPosition=bottom;verticalAlign=top;align=center;outlineConnect=0;rotation=-180;" parent="1" vertex="1">
                    <mxGeometry x="-550" y="484" width="53" height="94" as="geometry"/>
                </mxCell>
                <mxCell id="10" value="Azure Container Registry" style="aspect=fixed;html=1;points=[];align=center;image;fontSize=12;image=img/lib/azure2/containers/Container_Registries.svg;" parent="1" vertex="1">
                    <mxGeometry x="559" y="804" width="68" height="61" as="geometry"/>
                </mxCell>
                <mxCell id="11" value="Azure OpenAI" style="shape=image;verticalLabelPosition=bottom;labelBackgroundColor=default;verticalAlign=top;aspect=fixed;imageAspect=0;image=data:image/png,iVBORw0KGgoAAAANSUhEUgAACJgAAAJWCAYAAAAefK+JAAAAAXNSR0IArs4c6QAAAERlWElmTU0AKgAAAAgAAYdpAAQAAAABAAAAGgAAAAAAA6ABAAMAAAABAAEAAKACAAQAAAABAAAImKADAAQAAAABAAACVgAAAADl41dqAABAAElEQVR4Aezdv3obV7Y3aHd/J5hseLLJunQFTWeTdSmbzOwrEJx9mehsMkJXIHU0IeBsMrnDicAOJ5LOFQB9BebJJvP8Votsy7JIAiT+7Kp61/MsAwSqdq311i4ARJWpP3wjCBCYgkCXJu/yLPcr/5Ss6P71319v68e7ZW6fuvfmJs9UVnx+f3P783/ntu5X1vN3t7krCBAgQIAAAQIECBAgQIAAAQIECBAgQIAAAQIECBAgQGAoAn8YSqHqJEDgQYGzPNslz29v6+KRun/3eO42FR9TzU2ybv95e3v3c34UBAgQIECAAAECBAgQIECAAAECBAgQIECAAAECBAgQINCSgAtMWtobaiGwnUCXxfrkn5Nd8vz2NjeDj7uLTDbp5L+SdQFKZT0uCBAgQIAAAQIECBAgQIAAAQIECBAgQIAAAQIECBAgQOBEAi4wORG8zRLYUuAsy/XJvyTPb7Mem1p8TMOV/7i9rfuCAAECBAgQIECAAAECBAgQIECAAAECBAgQIECAAAECBI4k4AKTI0HbDIEtBerikYtk/XWSPnmeFL8XuMlD18m64KRuPyYFAQIECBAgQIAAAQIECBAgQIAAAQIECBAgQIAAAQIECBxIwAUmB4I1LIEdBPos+12yLiap+2J3gU1WuU7eXXBSPwsCBAgQIECAAAECBAgQIECAAAECBAgQIECAAAECBAgQ2JOAC0z2BGkYAjsInGXZi2T9szd1Wz+L/QpcZ7i/J+v2Y1IQIECAAAECBAgQIECAAAECBAgQIECAAAECBAgQIECAAAECBJoXqItILpOr5C/yqAbreL9NnicFAQIECBAgQIAAAQIECBAgQIAAAQIECBAgQIAAAQIECBAgQKApgbqoZJZ0UUk7F9XUxSZXyS4pCBAgQIAAAQIECBAgQIAAAQIECBAgQIAAAQIECBAgQIAAAQInE+iz5UXy5+QvslmDVfbNLNklBQECBAgQIECAAAECBAgQIECAAAECBAgQIECAAAECBAgQIEDg4AL110rqL2O4qGSYF9XUBUF9UhAgQIAAAQIECBAgQIAAAQIECBAgQIAAAQIECBAgQIAAAQIE9i7QZ8T6Sxi/yFEYrLMfZ8m6YEgQIECAAAECBAgQIECAAAECBAgQIECAAAECBAgQIECAAAECBJ4sUBcfXCY/JF1YMk6DutBkkeySggABAgQIECBAgAABAgQIECBAgAABAgQIECBAgAABAgQIECCwtYB/BmecF5M8dpGQC022PkQsSIAAAQIECBAgQIAAAQIECBAgQIAAAQIECBAgQIAAAQIEpivQpfW3yZ+Tj12M4PnxGq2y//ukIECAAAECBAgQIECAAAECBAgQIECAAAECBAgQIECAAAECBAj8W6DLvfrrFS4aYfD5HHChyb8PEXcIECBAgAABAgQIECBAgAABAgQIECBAgAABAgQIECBAgMB0Bbq07sISF5V8flHJ1+670GS6rxE6J0CAAAECBAgQIECAAAECBAgQIECAAAECBAgQIECAAIEJC5yl9/qncL52MYHHuNw3B95nznRJQYAAAQIECBAgQIAAAQIECBAgQIAAAQIECBAgQIAAAQIECIxYoC4suUr+nLzvIgKPs3lsDiwyf7qkIECAAAECBAgQIECAAAECBAgQIECAAAECBAgQIECAAAECBEYm8Dr9uLDExSOPXTyyy/NXmVN10ZIgQIAAAQIECBAgQIAAAQIECBAgQIAAAQIECBAgQIAAAQIEBi7Qp/5VcpcLByzLa9s5sM7cmiUFAQIECBAgQIAAAQIECBAgQIAAAQIECBAgQIAAAQIECBAgMECB+ssSi+S2FwpYjtVz5sCHzLUuKQgQIECAAAECBAgQIECAAAECBAgQIECAAAECBAgQIECAAIGBCPjncFws8pyLRZ6z7lWOEf9szkBeKJRJgAABAgQIECBAgAABAgQIECBAgAABAgQIECBAgAABAtMUOE/bq+RzLhCwLr/nzoF15uAsKQgQIECAAAECBAgQIECAAAECBAgQIECAAAECBAgQIECAAIHGBK5Sz3MvDLA+w33OgUXmZNfYcaIcAgQIECBAgAABAgQIECBAgAABAgQIECBAgAABAgQIECAwSYH6qyXr5D4vDDAWz33NgZqbs6QgQIAAAQIECBAgQIAAAQIECBAgQIAAAQIECBAgQIDAIAT+xyCqVCSB3QSusvj/nTzbbTVLEziaQM3Ni2Td/r/J/y8pCBAgQIAAAQIECBAgQIAAAQIECBAgQIAAAQIECBAg0KzAH5qtTGEEdhfossr75Pnuq1qDwMkENtnyy2TdCgIECBAgQIAAAQIECBAgQIAAAQIECBAgQIAAAQIECDQp8Mcmq1IUgd0FXmeVD0kXl+xuZ43TCnTZfP2TOfWXdwQBAgQIECBAgAABAgQIECBAgAABAgQIECBAgAABAgQIECBwAIH6J0YWyV8kgxHMgVV66JKCAAECBAgQIECAAAECBAgQIECAAAECBAgQIECAAAECTQn4J3Ka2h2K2VGg/lpJ/ZM43Y7rWZxAywKbFPfX5MeWi1QbAQIECBAgQIAAAQIECBAgQIAAAQIECBAgQIAAAQLTEvgf02pXtyMSqH8SZ5n830bUk1YIlED9VZ7/eUvxj9tbNwQIECBAgAABAgQIECBAgAABAgQIECBAgAABAgQIECBAgMCOAm+zvH8Sh8EU5sAic70uOBEECBAgQIAAAQIECBAgQIAAAQIECBAgQIAAAQIECBA4qYB/Iuek/Da+o0CX5eufxKl/GkcQmIrAJo2+TNatIECAAAECBAgQIECAAAECBAgQIECAAAECBAgQIECAwEkE/niSrdoogd0F6qKSVdLFJbvbWWPYAl3KN/eHvQ9VT4AAAQIECBAgQIAAAQIECBAgQIAAAQIECBAgQGDwAi4wGfwunEQDr9JlnWDvJtGtJgn8XqDLQx+Sl79/yiMECBAgQIAAAQIECBAgQIAAAQIECBAgQIAAAQIECBA4vMD/OPwmbIHAswSusva75P/yrFGsTGAcAv/HbRv/GEc7uiBAgAABAgQIECBAgAABAgQIECBAgAABAgQIECBAYCgCLjAZyp6aZp1v0/b/Oc3WdU3gXoE+z5wl/597l/AEAQIECBAgQIAAAQIECBAgQIAAAQIECBAgQIAAAQIE9izgApM9gxpuLwJ18vz/Sv7PvYxmEALjE/jf09J5si4y+f/G156OCBAgQIAAAQIECBAgQIAAAQIECBAgQIAAAQIECBBoTeAPrRWknskL1MUlq2SdPBf7F7jJkJUfb2//eXt793jdbpJ3cff43c91e3abd491t3fq9u65P+X+3c/nuS8OI/Axw/41uTnM8EYlQIAAAQIECBAgQIAAAQIECBAgQIAAAQIECBAgQIDAJwEXmJgJLQl0KaYuLqlb8TyBm6xeFx/81+3tJrd3mbtHj7Ns8fw2u9z++fZ+PS6eJ7DJ6i+TdSsIECBAgAABAgQIECBAgAABAgQIECBAgAABAgQIECBwEAEXmByE1aBPEOiyjotLngCXVW6SH5N1Mcn17f1NbocQXYq8u/DkL7f3XXSy+57bZBUXmezuZg0CBAgQIECAAAECBAgQIECAAAECBAgQIECAAAECBLYUcIHJllAWO6hAl9FdXLI98d0FJX/PKnVhyfX2qw5iybrgpE9+l6z7Z0nxuMAmi7jI5HEnSxAgQIAAAQIECBAgQIAAAQIECBAgQIAAAQIECBAgQIDAAAW61LxO/iIfNCijd8k+ObULLqrn6t08efw4KaMuKQgQIECAAAECBAgQIECAAAECBAgQIECAAAECBAgQIECAwGgEunTiooH7LxpYxWee7JLik0CXm8vkh+Qv8qsGLjLJxBAECBAgQIAAAQIECBAgQIAAAQIECBAgQIAAAQIECBAgMA6BLm24uOT3F0mUyTzZJcXDAl2erotNzKOvz6PyEQQIECBAgAABAgQIECBAgAABAgQIECBAgAABAgQIENiLwB/2MopBCOwm0GXxVbJuxTff3AThx+RPyeuk2F2gzyqz5HfJs6T45ptNEF4m6/aQUd535t0XG/ry53r65jbrfsXnP2/+9Yj/ECBAgAABAgQIECBAgAABAgQIECBAgAABAgQIECDQnIALTJrbJaMvqEuHLi75tJuvc/P35DJZJ9nF8wXqQoeL5FWyS049NgH4NvmU+dVlvfI8v7390+1tl9vKiu5f/93/fzYZsrJik/zn7W3dr14+JgUBAgQIECBAgAABAgQIECBAgAABAgQIECBAgAABAkcU+MMRt2VTBOpk9YdkN3GK6/T/Jlm34nACfYaeJV8lpxx1McbLZF2Y8WXUMdklz5N/TtbP/e1t3W85Nimu8mPyn7e3df8mKQgQIECAAAECBAgQIECAAAECBAgQIECAAAECBAgQIEBgwAJ1cckvE85Feu+T4rgCXTa3TE597tUFI33yMllzcZ0co8nP6WuVfJu8SJ4nBQECBAgQIECAAAECBAgQIECAAAECBAgQIECAAAECBAgMRKBOaI/xZPZjPdXJ7nfJLilOK9Bl88vkY/vM8+MzurvoZJ793ycFAQIECBAgQIAAAQIECBAgQIAAAQIECBAgQIAAAQIECDQocJWapnjSfpG+uwb3x9RLqn2yTE5xTur51/2+yhyYJ/ukIECAAAECBAgQIECAAAECBAgQIECAAAECBAgQIECAAIETC1xl+1M7qV0nrrsTu9v84wK1j5bJqc1P/f5+n9dfOHmfnCW7pCBAgAABAgQIECBAgAABAgQIECBAgAABAgQIECBAgACBIwpcZFtTOpldF5b0R/S1qf0IdBmm9t2U5qpeH97fHzIf5snzpCBAgAABAgQIECBAgAABAgQIECBAgAABAgQIECBAgACBAwp0Gbv+KsAUTmRXn5dJMWyBWcpfJ6cwZ/W4/X6uOfE26WKTIAgCBAgQIECAAAECBAgQIECAAAECBAgQIECAAAECBAjsU6DLYFM5Uf8uvZ7tE89YJxWofTlPugCDwdfmQL2uXSa7pCBAgAABAgQIECBAgAABAgQIECBAgAABAgQIECBAgACBZwq8z/pfOzk7psc+pMf+mU5Wb1egS2l1McGY5qxe9rs/V5kfs6QgQIAAAQIECBAgQIAAAQIECBAgQIAAAQIECBAgQIAAgScIXGWdsZ/Inj/BxSrDFKh9Pfb5rL/n7eN15sgi2SUFAQIECBAgQIAAAQIECBAgQIAAAQIECBAgQIAAAQIECGwhcJFlxnyyuv5qyfkWDhYZl0CXduoigjHPbb3tZ/+uMk9mSUGAAAECBAgQIECAAAECBAgQIECAAAECBAgQIECAAAEC9wh0eXzMJ+Hfpb+ze3r38DQE5mnThRgMtpkD9Vo4S3ZJQYAAAQIECBAgQIAAAQIECBAgQIAAAQIECBAgQIAAAQKfCYz14pLqq/+sT3enLdCl/bHO9V/Sm9y/wSKuNW8EAQIECBAgQIAAAQIECBAgQIAAAQIECBAgQIAAAQIEJi9wFYExnphepa9u8nsXwJcCNSeWyTHOeT0dbr8uMme6pCBAgAABAgQIECBAgAABAgQIECBAgAABAgQIECBAgMAkBS7S9RhPSs8nuTc1vYtAzZExzn09HXa/utBkl6PMsgQIECBAgAABAgQIECBAgAABAgQIECBAgAABAgQIjEKgSxfr5JhOSP+cfuqiGUFgG4HzLDS2Y2BMx3PLvSwyd7ptJpllCBAgQIAAAQIECBAgQIAAAQIECBAgQIAAAQIECBAgMHSBOkHa8gncXWtbp59u6DtF/UcXqDlTc2fX+WZ5ZjUHFskuKQgQIECAAAECBAgQIECAAAECBAgQIECAAAECBAgQIDBKgVm6GtMJ8g/p52yUe0pThxSoOXOVrL98M6bjQS/H3581j7qkIECAAAECBAgQIECAAAECBAgQIECAAAECBAgQIECAwGgEunQyphPqy9HsGY0cU6D+KaV10sUYDPY1B2o+zZKCAAECBAgQIECAAAECBAgQIECAAAECBAgQIECAAAECoxB4ny72dUL11OPMR7FHNHFMgfNsbJU89dy1/fHug3XmV5cUBAgQIECAAAECBAgQIECAAAECBAgQIECAAAECBAgQGKzALJWP5cT2fLB7QeGnEKh/DudtcizzXx/t78tF5luXFAQIECBAgAABAgQIECBAgAABAgQIECBAgAABAgQIEBiUQJdq18kxnJiepQ9BYFuB11lwTP8s1BiO4an0UK+5s20nquUIECBAgAABAgQIECBAgAABAgQIECBAgAABAgQIECDQgsAiRYzhpO6sBUw1DEKgT5V1gn8M814Pw96Pq8zDLikIECBAgAABAgQIECBAgAABAgQIECBAgAABAgQIECDQtMAs1Y3hBHX1IQg8JtBlgTqhP4Y5r4dx7cerxyav5wkQIECAAAECBAgQIECAAAECBAgQIECAAAECBAgQIHBKgXU2PvQT1bNTAtr2IATOUmWdwB/6XFf/uPfhOnO0SwoCBAgQIECAAAECBAgQIECAAAECBAgQIECAAAECBAg0JTCGE+6zpkQV06LA6xT1c9LFGQyGMgcuWzyQ1ESAAAECBAgQIECAAAECBAgQIECAAAECBAgQIECAwDQFurQ9lJOt99XpJOw05+62XfdZcJW8b/54nE3Lc+B95m6XFAQIECBAgAABAgQIECBAgAABAgQIECBAgAABAgQIEDipwCJbb/nk6mO1zU+qZ+MtC3Qpbujz+7H57/lhv35tu//WmcsXLR9saiNAgAABAgQIECBAgAABAgQIECBAgAABAgQIECBAYNwC52lv2xOcLS43H/fu0d0TBc6y3lXSP4cz7OO7xdecU9dU81oQIECAAAECBAgQIECAAAECBAgQIECAAAECBAgQIEDg6ALrbPHUJ0yfuv3l0bVscAgC9Vcehjyvn3o8WG+4r2W77rua390QDkY1EiBAgAABAgQIECBAgAABAgQIECBAgAABAgQIECAwDoFZ2tj1xGYry39I7fVXKgSBO4E+d1bJVuaoOuyLQ86BdeZ6zXlBgAABAgQIECBAgAABAgQIECBAgAABAgQIECBAgACBgwvUCcpDngA91NhVd3dwHRsYikBdaPQ2eaj5Zly2Lc+Bq6EcqOokQIAAAQIECBAgQIAAAQIECBAgQIAAAQIECBAgQGCYArOU3fJJ0/tq+zl1d0lBoATq5HrNifvmi8fZTGEO1AVW/qJTEAQBAgQIECBAgAABAgQIECBAgAABAgQIECBAgAABAvsXWGfIIZ54vdw/hREHKNCn5qHO4SEed2pu//WyjocuKQgQIECAAAECBAgQIECAAAECBAgQIECAAAECBAgQILA3gVlGGuIJ4/neBAw0VIEuha+SQ5y/arbfDj0H1jk26hgRBAgQIECAAAECBAgQIECAAAECBAgQIECAAAECBAgQ2ItAnYQ89InOfY9fNYvpCtQ//3GV3Pe8Mh7Tsc2B+iejLqb7UqFzAgQIECBAgAABAgQIECBAgAABAgQIECBAgAABAgT2JTDLQEM7obpOzV1STFPgddquk+ZDm7fqtc9OOQeupvlyoWsCBAgQIECAAAECBAgQIECAAAECBAgQIECAAIHnCPzhOStbd3QC63TUDayr71PvcmA1K/f5An2GqJPkdSvaEbhJKZV3sbm7c3tbf22m8i66uztujy4wzxbfHH2rNkiAAAECBAgQIECAAAECBAgQIECAAAECBAgQIDBYgf8YbOUK37fALAN2+x70wOMtM36lmI5Al1bfJi+m03ITndZFI5vkx+Q/b+/fPVa3d5m7T4oua519lue39/98e1s/i/0KzG+Hc5HJfl2NRoAAAQIECBAgQIAAAQIECBAgQIAAAQIECBAYrcAfRtuZxnYVGNpfL9mkwW+TdWJbjF+gLj6ofw7nMln3xWEE6nj6mPyv29u6v0nW46eO8xRwlqzbvyS72/u5Ec8QWGbd75+xvlUJECBAgAABAgQIECBAgAABAgQIECBAgAABAgQIEJiQwCy9/jKw7FOvmIbALG3WBVBDm6NDqPdDXN8lZ8kuOcToU/Rl8n3SPHnacbKIXV28IwgQIECAAAECBAgQIECAAAECBAgQIECAAAECBAgQIPCgwCrPDuFk+F2NdUJcjF+gT4tDm5t3c7TV23VM6/i5SI71goLz9DZL1gUnPydb3Ret1VUXG411TqQ1QYAAAQIECBAgQIAAAQIECBAgQIAAAQIECBAgQIDAcwW6DNDaic6H6lmnXidBn7vX216/9u8i+dA88Nz2PqtYXia75BSjT9PvknUBhXnzsIGLTDJJBAECBAgQIECAAAECBAgQIECAAAECBAgQIECAAAECXxdY5OEhnXSdfb0Nj45AoC4suUr6qxPPPyZXcZwly1T8KtDlbl1s42KT++eYi0x+nS/uESBAgAABAgQIECBAgAABAgQIECBAgAABAgQIECBwK9DldkgXlyzsudEK9OlsnRzSfGyt1lX86uIJF5UEYYvossy7pHn3++Ou5pIgQIAAAQIECBAgQIAAAQIECBAgQIAAAQIECBAgQIDAvwVmudfaSfL76qm/atElxbgEztNOncy+b797/GGbOi7myXIUTxfos+oyab79arCIhyBAgAABAgQIECBAgAABAgQIECBAgAABAgQIECBAgMC/BNb571BOqM7ts1EJ1F/ZeJscyvxrrc5V7C6S5Sj2J9BlqFlynWxtn5+inkUcBAECBAgQIECAAAECBAgQIECAAAECBAgQIECAAAECExfo0/8pTlg+ZZvrie+rsbX/Og3VX954ylyY+jrv49YnxeEFZtnEKjn1OXd1eGpbIECAAAECBAgQIECAAAECBAgQIECAAAECBAgQIECgZYFFihvKidNZy5Bq21qgz5IfkkOZd63UWRfjzJNdUhxfoM8ml8lW5sMp6rhK/4IAAQIECBAgQIAAAQIECBAgQIAAAQIECBAgQIAAgQkK1D+rcYqTlE/Z5nqC+2dsLXdpaJV8yv6f8jp3F5b4Z3DaOCJqHi+TU52Tl+ldECBAgAABAgQIECBAgAABAgQIECBAgAABAgQIECAwMYFZ+h3KSdJ+YvtmTO3WhRFXybpQYijzrZU65zFzYUkQGowuNS2TrcyVY9bRp29BgAABAgQIECBAgAABAgQIECBAgAABAgQIECBAgMCEBFbp9ZgnJZ+6rcWE9snYWp2lIReW7H6cvY9blxTtC/QpcZ186uvbENerY7pLCgIECBAgQIAAAQIECBAgQIAAAQIECBAgQIAAAQIEJiDQpcehnNisWsWwBPqUu0oOZY61UmeZlZ0YnsAsJa+TrcylQ9dRvXZJQYAAAQIECBAgQIAAAQIECBAgQIAAAQIECBAgQIDAyAVm6e/QJyD3Mf5i5PthbO11aaj22T72/ZTGWMdslhTDF5inhanM3dXwd5cOCBAgQIAAAQIECBAgQIAAAQIECBAgQIAAAQIECBB4TKBODA7hJGj/WCOeb0LgLFVcJf1zOLsdV+U1T5afGI9Al1aWySG8xj63xrfpUxAgQIAAAQIECBAgQIAAAQIECBAgQIAAAQIECBAgMFKBLn0996TiMdZfjdR/bG1dpKH1QObUMebtttt4H7MuKcYrMEtrUzg2Lse7C3VGgAABAgQIECBAgAABAgQIECBAgAABAgQIECBAYHoCXVqeJRfJD8ltT4Kfcrm6cEG0K9CntFXylHNkiNsus7IT0xDo0uYyOcS5ukvN5+lRECBAgAABAgQIECBAgAABAgQIECBAgAABAgQIECAwQIE62Vf/V3n9lYSfk7ucKGxh2XVqFm0KnKWst8kW5smQaqjjsI5JMU2BWdqu17Uhzdldaq3e6rVBECBAgAABAgQIECBAgAABAgQIECBAgAABAgQIECDQuECd2KuT14vkEC8o+fJE5ix9iPYErlLSGObXl/Pt0D/P4+bke3vz+dgVddng++Sh59upxl8dG9T2CBAgQIAAAQIECBAgQIAAAQIECBAgQIAAAQIECBDYTqDPYlfJD8lTnVA8xHbX6Ue0JdCnnNovh9jfYx5zFbMuKQh8LjDPD2Od93WhoyBAgAABAgQIECBAgAABAgQIECBAgAABAgQIECBAoAGBPjW8TY75r0gsGnBWwieBLjd1kcRYT4Yfqq91zPqkIHCfQJcnap4cag6ectzz+5r2OAECBAgQIECAAAECBAgQIECAAAECBAgQIECAAAEChxXoM/zYLyr5/GRod1hOo28hUP+cy1Xy8/3i/uMedeHXPCkIbCPQZaH3ybEdW+v05J+ECoIgQIAAAQIECBAgQIAAAQIECBAgQIAAAQIECBAgcAyBuxP8daJubCcfH+pndQxc23hQ4HWerQslHtpPnvu9z7uYOan+4NTy5D0C8zw+tmPq7T29epgAAQIECBAgQIAAAQIECBAgQIAAAQIECBAgQIAAgT0J9BmnLrIY28nGbfuZpXdxGoE+m53y3Nt2jn65XJmVnSDwHIHLrDy2C7sungNiXQIECBAgQIAAAQIECBAgQIAAAQIECBAgQIAAAQIEfi9Qf/XgKjm2k4tfnoh/7Ofq31+A+P38OPQjXTbwPvnY/vH8b43WMXMCPQhibwJdRqp5NZZjzWv63qaGgQgQIECAAAECBAgQIECAAAECBAgQIECAAAECBKYu0AdglRzLycTn9rGY+oQ4cv8ubHrasVcnzedJF0MdecJOZHNd+lwnn/t62sr6dfGaIECAAAECBAgQIECAAAECBAgQIECAAAECBAgQIEDgiQJ91lslWzkB2Eod/hrEEyfUE1abZZ11spV9P5Q6FjHrkoLAIQW6DP4hOZTj4rE6vbYfcrYYmwABAgQIECBAgAABAgQIECBAgAABAgQIECBAYJQCs3S1Tj52Mm6Kz5eLOLxAn02sklOcY8/puczKThA4lkD9hZxl8jnztpV1/VM5x5o1tkOAAAECBAgQIECAAAECBAgQIECAAAECBAgQIDBogTpJeJWsE2ytnOxrsY7FoPdy+8XXPHxrDu58DNZxO0sKAqcSWGbDLb5m71pTvf4IAgQIECBAgAABAgQIECBAgAABAgQIECBAgAABAgTuEXidx+sE9a4n4qa4vH9C4Z5JtIeHr8zDnY/BOm7nybowRxA4tcC7FDCG94X+1JC2T4AAAQIECBAgQIAAAQIECBAgQIAAAQIECBAgQKA1gVkKWifHcELwWD20tg/HUE+fJszD3Y/DVdy6pCDQksA8xRzr9fhQ26nXIxdttTSr1EKAAAECBAgQIECAAAECBAgQIECAAAECBAgQIHAygT5brpPThzo5N9ZxfzrZHhvnhru0ZR7ufhx+iFufFARaFVimsKG/D8xbxVUXAQIECBAgQIAAAQIECBAgQIAAAQIECBAgQIAAgWMIdNmIE/pPP/E5O8ZOmsA26i8DvE0O/QT0seuvfw7ncgLzQ4vjEFimjWMfI/vcXh1vXVIQIECAAAECBAgQIECAAAECBAgQIECAAAECBAgMVOAPA6371GXXCf2rpJPTz9sTL7L65nlDTH7t1xGYJ2tOiu0F/pZF58mb7VexJIGTC7xPBRcnr+LpBfyUVf/69NWtSYAAgXsF6nPQ59ndLnn3WP34p9vHHru5yQL//dlCm9v7n9/e3b99yg0BAgQIECBAgAABAgQIECBAgAABAgSmIeACk933sxP6u5t9bY1NHqwLTMTTBPqs9jZ5/rTVJ7vWdTr/PrlJCgJDE6gTpavkkI/7l6n/OikIECCwi0CXheu1r14H/3x72+W2sh6rPHbcZIOVm9vb/7q9/fjZbe4KAgQIECBAgAABAgQIECBAgAABAgQIEJiiQJem68TeL3IvBos4it0FuqxiHu5+HK7j1icFgaEL1EnUms+/DDTr9UsQIEDgPoEuT8ySdRHt++SQX+/qdfrDbR/z3F4kz5OCAAECBAgQIECAAAECBAgQIECAAAECBEYsUCfzrpL1JbHcn8EsnmJ7gbt5+HNWMQ+3Nyiv+fbMliQwCIEuVa6TQ30tuByEsiIJEDi0QF1sMUu+TdaFGFP6jFP9LpKzZDkIAgQIECBAgAABAgQIECBAgAABAgQIEBiBQJ8ehnwSr+WTj90I5sexWphlQ1M66bKvefsubmfH2km2Q+DIAnVCcqivC1W3Y/PIE8bmCJxYoI75PnmVXCWH+vq1r88oX45THuUyT/ZJQYAAAQIECBAgQIAAAQIECBAgQIAAgSYF/tBkVacvqr4Ev0penr6UUVawSVcvRtnZfpvqM1zNw7oV2wtcZ9E3yboVBMYsMEtzi4E2WMfofKC1K5sAge0E+iz2l2Tdnifr87XYXuA6i/49+TFZ9wUBAgQIECBAgAABAgQIECAwTIH6XuTtMEvfW9WbjPT93kYzEAECJxX4w0m33ubG64X+fbJrs7xRVFVfll+MopPDNHGWYevDxuwww4921E06+yH502g71BiB3wu8y0Ovf/9w84/cpMIXyboVBAiMQ+AsbVwk66KSuq2fxX4ENhnmOvmP5E/Jm6QgQIAAAQIECBAgQIAAAQIEhiFQ/5PgbBilHrTKlxn9+qBbMDiBXwUuc/e7X38c5b36rnA+ys4G1lSdpPtFHtxgPrB5caxy60TMVfLnpHm4vUF5zZPlJwhMUWCVpof4mjGf4s7SM4GRCdR7b/2yNtTXoSG+dlbN5T1LdklBgAABAgQIECBAgAABAgQItCtQ350M9fuHfdc9b3c3qWyEAsv0tO853Np4ixHut0G11KXaVbK1iTHWevpYi98K9PlxnRzrPj9UX+9j1iUFgSkLdGl+iK8fdXGYC8OmPHP1PlQBF5W09XltlYk0S3ZJQYAAAQIECBAgQIAAAQIECLQlMEs5hzo/MrRx6/tgQeBYAstsaGjHyK71Lo6FaTu/F+jzUL2o7brTLP90MycUf52H57m7Mv92Pv7KrE8KAgQ+CfS5GeL70vxT+f5LgMAABPrUWO+/Pje3+3r7PvvnIikIECBAgAABAgQIECBAgACBNgSc//nt9yh9G7tFFRMQWKbHIZ4z2aXmxQT2Y5Mtvp3A5NplIh5j2TopIT79X/vm3+4v7jV/Lk0gAgS+KlDHxjFex/e5jTqmz77ajQcJEGhB4DxFXCXrWN3nsW+sw3qus78WyS4pCBAgQIAAAQIECBAgQIAAgdMIdNms70B+a7A6za6w1QkKLNPz2I+/+v5PHFGgy7bqRWzsE6vF/sp96vE6AE7U7Hb8ldc86UR0EASBBwSG+N42f6AfTxEgcBqBPpsd4utJi599T11T7cdZUhAgQIAAAQIECBAgQIAAAQLHFVhkc6f+XqDF7TvPc9x5ONWtLSdw/NVrjDiSQP2fmOtkiy+qU6jp3ZH2c4ub6VOUubf7sbeKW5cUBAg8LtBlkaFdwFb1+qXi8X1rCQKHFqjj8Co5tNeQKXx+3keP6+zbWbJLCgIECBAgQIAAAQIECBAgQODwAvW7+D5+px/bGJeHp7cFAt8sYzC2Y+fLfhan2s9/PNWGT7Td19nuKtmdaPs2+803mwkidOm55p25t9vO/5jFX97mZrdVLU1gsgKbdP5mYN3XSW2/VAxspyl3VAJdurlKrpPzZB2TYnwCXVpaJGs/122XFAQIECBAgAABAgQIECBAgMBhBPoM2x1m6MGP+t3gO9AAAQKTEbhKp7/Ikxv0k5lxn07QmHe7H3f1f0472TyhA0WrBxFYZdQhvefVce+k9kGmgkEJ3CvQ55lFckivFWrd7/6q/d8lBQECBAgQIECAAAECBAgQILBfAd+5PPwdRr9fbqMR+J3AMo+M/bvEep0RBxKoE1bvk2OfREPp7/xA+7m1YfsUtE4OZb+0Uue7mDnJHARB4JkCXdavizZaOba3qWOeegUBAocX6LOJVXKb49Iy03BaZD50SUGAAAECBAgQIECAAAECBAg8X6DLEL5TedigzgUJAocUWGbwsR+H9Z2eOIBAlzE/JMc+gYbU3wF2c3NDXplzOx9zq5hN5eKj5iasgkYrcJnOhvT+sB7tntAYgTYEupRR77dDel1Q63H31yLzo+aJIECAAAECBAgQIECAAAECBJ4uMMuqvtN42MBftH76/LLmdgLLLDb247C+yxN7Fugy3jo59skzpP7qDWPscZUGh7RPTl3rOl792CeF/gicUGCVbZ/6ON9l+/0JrWyawFgF6i+DLZK7HIuWnbZXzZcuKQgQIECAAAECBAgQIECAAIHdBfyP79t9r9LvTmsNAlsLLLPk2L/jrO/wxB4F6i8h1MUMY584Q+uv3lTHHFdpbmj75FT11vE5T9ZJL0GAwOEEugx9quP8KdtdHY7CyAQmJ1DvsVdJn4mH9Tr4lNfOQ61T86dLCgIECBAgQIAAAQIECBAgQGA7gS6LHer39LGNu9qO1FIEniSwzFpjO2a+7GfxJBkrfVXgVR71RXqbB83qq3tsHA++ThtfHth+/rrJIlYuLBnHvNfFMATmKXNIr0d1kaggQOB5ArOs7vPwsF77Wn2dXmcu1XwSBAgQIECAAAECBAgQIECAwOMCdf6j1d/xW6zLuaLH55QlniawzGotzvl91rR4Gs3z1/rj84doaoRXqWaZ9ILU1G75dzGbf98b150u7bwbV0sH6eY6o75Mfp+8SQoCBI4jUK9PQzrmZsdhsRUCoxTo09UqWb9cnCUFgecKdBmg5tM6WfcFAQIECBAgQIAAAQIECBAgcL9Af/9TnvmKwOVXHvMQAQKNC4zpApOrWC8b9556ef8cKcBqpH3tq61NBqqLSl4mr5OCAIHjCtTFJT8cd5PP2tqrrO3E+LMIrTxBgTpm3ibrM0mfFAT2LdBlwHVykaz7ggABAgQIECBAgAABAgQIEPitwEV+7H77kJ8eEfjukec9TYBAgwL/0WBNTynpKivNn7KidQg8U2CW9btnjjHW1euk9t+S75J1X7QlcJZyLpJ/Ttb9LnkXtb82yX8kP97ez40YsMAytb9K9snWo+bjRXLZeqHqI9CIQB0vdXFJ10g9yhi3wCzt9ck3yWVSECBAgAABAgQIECBAgAABAp8E6vtXsZvAeRbvk9dJQYAAgaMJ1MUlv8hBGMyONiuOt6G1uffVufc+Lt3xdoMtbSlQJ+7rNXOV3OV180OWnyW7pBiuQJ/Sd9nvp1y25qggQOBhgS5P1/vtKY9V2562/yLzr+ahIECAAAECBAgQIECAAAECUxfoAuB7kqcZvJv65NH/QQSWGXXsx2R9NyeeIHCVdcY+OcbU3+wJ+7jlVfoUN6b9s49eVjEpF9GWwN2FJT+nrOfu50XG6NpqTzU7CNQx+tw5cKz1a94KAgS+LvAqD+/jNf1Yx7PtDOe1d9d9tc5cnH19mnqUAAECBAgQIECAAAECBAhMRmCWTnf9ndryn8zqOy7fBU/mUDlao8tsaezH2OJomiPa0NUEJsbYJv7FiOZftVIH7tj20VP7qQ8Al4UimhN4nYr2fRJynTFnzXWqoG0E+iz01OP82OvNt2nIMgQmJlC/bL9PHvt4tD3mj82BReZllxQECBAgQIAAAQIECBAgQGCKAus0/djvzp6/32g2xUmj54MKLDP62I+5xUEFRzh4nTAd+6TYpb8P8Zgn66TDKrnLusdctk9tY4p1mjmmX6vbmseh5p5oS6BPOavkIefNOuNfJMWwBA49L/Y152p+CQIEfhXoc7eOi30dY8Zhue85UPPT54IgCAIECBAgQIAAAQIECBCYlMB5ut3379hTG281qRmj2WMILLORsR9Hi2NAjmUbryYwIbad8KtY9F/s2Hps2/WPvdyXtX5R+qB+7FLtsf1a294qBuUg2hLoUs6x/+/2RbZZ2xXDEOhTZmuvJ/fVU7UKAgS++eZtEO47TjzOprU5cOWgJUCAAAECBAgQIECAAAECExJYpNfWfjcfYj3+R+YJHTRHaHU5geOyXntOEn88yVafvtG6CnD59NVHseZNuniT/M/ky+R1UhxfoDv+JpvZ4iaV1NyrrPuiDYH68HWVrL9odHHkkmbZ3jpZ2686RNsC1ymvcghx7Lk8BBM1TkugS7v1un45rbZ1O3CBeeqvzwVdUhAgQIAAAQIECBAgQIAAgbEL9GNv8Ej9+f7rSNA2Q2BKAl2a/Tn5y0Szep8nHzt5u2rYp09tY4lZGpnaXKw56A2+zRlc87FO5LQwJ6uOqke0LdCnvBbmy2M11OuOIDBVgYs0PuXPvo+9Pni+/dfxdebwbKoHsL4JECBAgAABAgQIECBAYBICs3TpO4r9GPgueBKHzNGaXE7g2FwcTfOLDQ3lL5h0qXuVfOziii/aG8WPN+niTfJFcp6sn8XpBbrTl3DUCv6WrdUcfHfUrdrYYwJ9FqjXxnoT6ZItRJciqp51su6LNgWuU1Zl61Hv+33rRaqPwAEErjLm+2QdA4LAUAW6FF6fCWo+CwIECBAgQIAAAQIECBAgMEaBV2Ns6kQ9+S74RPA2S2BXgSFcYFIvKKtkt2tzA1/+JvW/Sb5IzpP1syBwbIHrbPDb5GXSHAxCI3GWOuqETb029skWo0tR62TVWfdFewI/tlfSVyvqv/qoBwmMU6Be3+u1fT7O9nQ1UYGaz3XBVJcUBAgQIECAAAECBAgQIEBgLAJdGunH0kwjfVw0UocyCBB4QGAIF5hM7cvIOon/JvkiOU/Wz4LAsQU22eDL2/x47I3b3r0CZ3nmKlkXbsySQ4hZivyQrLpFWwLLlDOE95hXbbGphsDBBLqMXK+XfVIQGJvARRpaJbuxNaYfAgQIECBAgAABAgQIEJisQP2uK/YrUN8F13kQQYBAwwKtX2DyNnZ9w377Lu3unyGZZ+AhnPTbd//GO71Azbu6wKn+asl1UrQj0KeUOvE4Tw7tA1bVW3Wvk7OkaEeg3ndajy4FVgoCYxbo01y9xndJQWCsAl0aq3l+MdYG9UWAAAECBAgQIECAAAECkxJ4Paluj9NsnUuYHWdTtkKAwFMFWr7A5CpNXT61sYGtd516Xyar35ukIHAKgWU2+iI5T5qHQWgkzlNH/R+/lV1yyNGl+EVyDL0MeT98Xvu7z39o+P5Fw7UpjcBzBerLiHpdPHvuQNYnMACBmufvk1cDqFWJBAgQIECAAAECBAgQIEDgPoE+T3T3PenxZwl896y1rUyAwMEFWr3ApE/n84N3f/oN3KSE75Mvk9dJQeAUAtfZaM3Bmos1J0UbAnUC5m3yQ7JPjin6NLNOLpJdUpxOoI7569Ntfust+6ViayoLDkygTrK/G1jNyiWwD4F5BnGRyT4kjUGAAAECBAgQIECAAAECpxB4dYqNTmSbffrsJtKrNgkMUqDFC0y6SNZJx7HH3T+Hsxx7o/prVqBOLNdFJS+T10nRjsDrlLJOXrZT0kEqmWXUVXLsfR4Eb4+DvtnjWIca6jwDnx1qcOMSOJFAfd6dn2jbNkugBYF5iqiLaQUBAgQIECBAgAABAgQIEBiSQH1PeTGkggdY62yANSuZwGQEWrzApE42diPeA5v0Vif0L5M3SUHg2AI17+qE8ovkMinaEehTSv3FknfJs+QUokuTdXKpLqiZJcXxBa6zydbfj+p4OD8+jS0SOIhAzef3ydlBRjcogWEJXKbcOh7quBAECBAgQIAAAQIECBAgQGAIAhcp0u+xh91Trw87vNEJEHiOQGsXmNRJxu45DTW+bv3Vkm+T143XqbzxCtTcqzk4T94kRRsCXcqoi+sqz5NTjC5NL26z7ovjCtT7U+tRv7gJAkMXqC8f6rXefB76nlT/PgXqeKjjoo4PQYAAAQIECBAgQIAAAQIEWhd41XqBI6ivviPoR9CHFgiMUqClC0xmEb4cpfKnE/l/ve3vZqQ9aqttgeuUV385p3KTFG0I1Iekq+SHZJ8Un/6P/nUgxn7BYWv7+rq1gr5Sz1++8piHCAxJoEuxq+T5kIpWK4EjCdRxUZ+HuiNtz2YIECBAgAABAgQIECBAgMBTBLqs1D9lRevsLPB65zWsQIDAUQRaucCkS7d1MnGMcZ2m6i9G/DTG5vTUvMBNKvwhWReWXCdFOwKzlFIXUsyTZ0nxW4HL/FgnYme/fdhPBxK4zribA429r2HPM5BjZV+axjm2QJcNurjk2Oq2NzSBLgXXcVK3ggABAgQIECBAgAABAgQItCgwa7GokdbUpy/fB49052pr2AKtXGBSXySO8UXiTfqqE/ubpCBwbIH6Jy9eJN8de8O296BAn2frNW+RHOPrXtraW3QZqZzWyfOkOKzAj4cdfi+j93sZxSAEjivQZXP1ul+3ggCBhwW6PO14edjIswQIECBAgAABAgQIECBwOoFXp9v05LZc509mk+tawwQGINDCBSZXceoGYLVLiTdZ+GVyvstKliWwJ4HrjPMieZmsuSjaEOhSxiJZJ036pNheoMui9Wfzy6/ui8MIXB9m2L2O2u91NIMROLxAl03U637dCgIEthPospjjZjsrSxEgQIAAAQIECBAgQIDA8QT6bKo73uZsKQLfUSBAoD2BU19g0odk3h7Lsyr6mLXrn8S5ftYoViawu8Amq7y8zbov2hA4SxlXybpAYpYUTxeYZdV1sjzF/gWuM+Rm/8PudcQ/73U0gxE4rEC9/jtJflhjo49XoEtrjp/x7l+dESBAgAABAgQIECBAYIgCr4ZY9MBr7lN/pSBAoCGBU15g0sVh0ZDFPkr5MYPUCf7NPgYzBoEtBeqvlLxJvkheJ0U7AhcppS4smSfrRKPYj8A8w6yTs6TYr8Df9zvc3kc7z4iOpb2zGvAAAjVPnRw/AKwhJyXQpdv3Sa/7k9rtmiVAgAABAgQIECBAgECTAvW76azJysZfVD/+FnVIYFgCp7zA5CpU3bC4Hqy2TvDPkjcPLuVJAvsV+FuGqwtL5vsd1mjPFOizfp1YrJMiXVLsX6DLkItkXcBT98V+BH7azzAHG6V+kesONrqBCexPoN4Dzvc3nJEITFagjqM6nur1XxAgQIAAAQIECBAgQIAAgVMJXJxqw7b7zWsGBAi0JXCqC0xmYagcS/yQRuZjaUYfgxC4TpUvk5fJm6RoQ6BOfrxN1omQPikOL3CeTayTi2SXFM8T+JjVW39N6Z/XorUJHFygXo/qtUkQILAfgTqe6vOVIECAAAECBAgQIECAAAECpxJ4daoN2+6//qeTngMBAu0InOICky7tX7VD8KxK6iRcneR/96xRrExge4FNFv1rsubddVK0I1Cva+vkZTslTaqSWbpdJcfy/nKqnVfvax9PtfEtt/vnLZezGIFTCNRr0OwUG7ZNAiMXmKU/F5mMfCdrjwABAgQIECBAgAABAo0KdKmrb7S2qZTle/+p7Gl9DkLgFBeY1ItANwidh4vc5Gkn+R828uz+BOqk75vkt8mf9jeskfYg0GeMdXKePEuK0wl02fQ8WftjlhRPE/j701Y72lrnR9uSDRHYTaA+4853W8XSBAjsIHCZZes4EwQIECBAgAABAgQIECBA4JgCfhc9pvbXt9XnYedfvm7jUQJHFzj2BSZ9Opwdvcv9b3CTIeviko/7H9qIBL4qUBeWzJM3X33Wg6cQ6LLR1W3WfdGOQJdSFsn3ybovdhO43m3xoy99ni36ZeLo7Db4iMDrPD9/ZBlPEyDwfIF5hnj1/GGMQIAAAQIECBAgQIAAAQIEthbot17SgocUuDzk4MYmQGB7gWNfYFIn/IYemzRQF5fUrSBwDIHrbGRzjA3ZxlYCdWL7KrlO9knRrsBFSqv9VO89XVJsJ/Axi91st+jJlupOtmUbJvB7gfM89O73D3uEAIEDCSwzbh13ggABAgQIECBAgAABAgQIHFrgIhvoDr0R428l8JetlrIQAQIHF/iPg2/h1w1c5W7364+DvLdJ1S4uGeSuUzSBvQjc/R/qZ3sZzSDHEphlQ33yTXKZFI8LXGeR+uWp1agTix9bLU5dkxLo0m39tSRxeoFNSqjXhZvkP5Ob2/t3t/lxqwt2u1ow0f3rv59u6/5Z8s+3t+e5FacVqOPO72Wn3Qe2ToAAAQIECBAgQIAAgSkIfDeFJgfSY586K6+TggCBEwoc6wKTLj3OT9jnPja9ySC+xNyHpDEIDE+gT8l1kVzdimEKdCm7/pJJ7cfvk9dJcb/AP/LUxf1Pn/wZJ3dPvgsUEIG64GCV7JLieAI32dR18p/Jj7f3N7ndV2xuB7q7vW/ceh3qknX7l9vbs9yK4wh02Uwdf/XPSN4kBQECBAgQIECAAAECBAgQ2LdAlwFn+x7UeM8SuMja188awcoECDxb4FgXmNQJvSHHJsW/TNatIEBgOgJdWn2brA8tYhwCXdqoE1LL5JvkJil+L/Dx9w819UjXVDWKmapAfb7tptr8EfveZFvXyX/c3m5y20LU62TlT58Vc577lX3yL8kuKQ4n0GXo+pz2/eE2YWQCBAgQIECAAAECBAgQmLBAP+HeW239VQqbJ29aLVBdBAjsR+Aiw/wy4Pw5tXfJocQqhbbq3Q8FcYs651nmWM61T8VxBc6yuatkHf/H2s+2cxrr2s+1v8VvBcqk5Tm5/m25fiJwdIF67Wj5GBl6bav4Xia75JDjPMVXH9XP0PdJy/WXsSBAgAABAgQIECBAgAABAvsW+JABW/59eKq1Xex7RxtvlALLdDX2Y2Qxyj1329R6wDuwTi7XF8NDilWKbfWA6YcE+Uit8zx/LOfap+J4ArNsap081v61ndNb1/6u/S5+K9D6cfDbav1E4HgC9dnQa/f+DVZxrQsFzo63K4+6pS5bmyWrT/Nn/wZ9XAUBAgQIECBAgAABAgQIENiXgO9/9v+7+76+D6nvVgSBxwSWWWBfc67VcRaPIRzq+T8eauDbcWe57W7vD/HmhxT9cYiFq5kAgZ0F+qxRH0zqBblLiukIdGm19vs6WffFJ4F/NA7RNV6f8sYpUPPu/ThbO0lX9Tn7TfI/ky+T75I3yTHGJk0tk9Xni+T3yU1S7EfA57f9OBqFAAECBAgQIECAAAECBD4JvAbRrECfys6arU5hBCYgcMgLTLr4XQ3Y8E1qXw64fqUTILCdQH0QqZMSq2SfHFNs0sxYT9QdYj91GXSdrPlQ96ceHxsH6BqvT3njFPD6sJ/9+lOGeZn8NjlPTu29apOel8kXyXL4MSmeJ9Bl9To+BQECBAgQIECAAAECBAgQ2IdAv49BjHEwgcuDjWxgAgQeFTjkBSavsvXu0QraXOBNypq3WZqqCBDYk8BZxrlKrpOz5Jhik2bqhNWL26zXNLG9wCyL1r+vWfNjyrFpvPmu8fqUNz6Bek3ox9fW0Tqqi0jq/aj+Wslfk9dJ8clhFoh6z/4xuUmKpwn0WW3q791Pk7MWAQIECBAgQIAAAQIECHwuMMsP3ecPuN+cwKvmKlIQAQLPFugywi8DzaH/2fNVw+59ahtLzNPIseZ47VOxX4E+w62Tx9qHx9rOz+npvit3uzy3TB6rlrFsZx2zWXKK0aXplvfjfIo7Rc8nE+iy5ZaPh5Zrq/emebIu7BSPC3RZZJ6s95+W92vLtfWxEwQIECBAgAABAgQIECBA4KkCdZ6w5d971fZp//RP3cHWm4TAMl2O/VhZnGpPHuovmFydqqFnbneT9X945hhWJ0CgXYHzlLa6za7dMp9U2d+yVv3fz+/uWXuTx2fJ+r/GN0mxnUCXxepNun6pqPtTik3jzf6p8fqUNx6BujCi3jvEbgI3WfxNst6b5sn6WTwusMki8+TLZPltkmI3gXrfruNWECBAgAABAgQIECBAgACBXQW6rHCx60qWP4mA/XQSdhsl8M03h7jApAvsbIC49aV3fZG7GWDtSiZA4GGBOsnwNvkh2SfHFNdp5tvkZbJexx6Ln7JAnez7PrlJGg8EPAAAQABJREFUiu0ELrLYOlknrbrkVGLTcKP/2XBtShuXQL1/dONq6eDd3F30OM+WtnlvOnhBA9zAJjXPky+TPybF9gJdFr3afnFLEiBAgAABAgQIECBAgACBfwv0/77nTusCr1LgWetFqo/AGAUOcYHJUL/M+yE7eDPGnawnAhMXeJ3+18nLkTls0k+ddKr8mNw1llnBSatd1T5dQLnKarPdVx3kGk+ZW8dq9E/H2pDtTFpglu4rxXYC11lsl4setxt12ktt0v4s+SL5U1JsJ1Cf+y62W9RSBAgQIECAAAECBAgQIEDg3wJDPcf57wYmdOcsvc4m1K9WCTQjsO8LTLp0Nmumu+0Lqf/Lcrn94pYkQGAAAn1qrL9Y8i5ZHzTGEjdp5E2yTuBdJ58Tm6w8SzppFYQdosuyi+Q6eZEcc/x3w82N6bhumHnSpXXp3pcK202Bem/6Pvky+XG7VSy1o8Amy/81Wc51XzwuUO/V3ised7IEAQIECBAgQIAAAQIECHwS6HPTfbrrvwMR+G4gdSqTwKgE9n2ByRC/hN9kj16Oaq9qhsC0Bbq0v7rN85FRLNPPi+Q8eZPcV2wykJNWu2t2WeV9sk5g1f0xxqbhprqGa1PaOATqc203jlYO2sXfMnq9Ny0PuhWD3wmU88vkj3cPuL1XoC4uqfdoQYAAAQIECBAgQIAAAQIEthF4tc1ClmlKoE819fu/IEDgiAL7vMCkS92zI9a+j03VCdr6glYQIDB8gfoQUScD66+W9MkxxXWaqdeq75P1unWoWGbgF8k3yU1SbCcwy2LrZM2/Ljmm2DTejF8eGt9BAy5vltorxf0Cmzz1MnmZPOR7U4YXXwhs8vMs+X1ykxT3C1zkqUpBgAABAgQIECBAgAABAgQeE+gfW8DzTQrUd1OCAIGBCixS9y8DyzG+6Kwa3gd9ahtLzNPIseZ77VPxsMAsT/+cPNY+OdZ2qqfq7RTRZaPL5LF6Hct21jGbJccSdVKu5X3TjQVaH00J1LyqY7nluX/q2lbxOUuK0wt0KWGZPPWcaHn76/iYr0EQBAgQIECAAAECBAgQIHCvwCzPtPy7rdru3z91HkUQ+FJgmQfGftwsvmz6WD/v6y+YdCl4dqyi97SdZcZ5t6exDEOAwGkE+mx2lawX0TGdOLhJP/VXRF4kl8lTxCYbnSWrho9JsZ1Al8VqPq6T58mhx6bxBsZ03DdOPanyXqfbblId79bsD1n8ZbLeq8TpBTYpYZZ8kxRfF+jy8NXXn/IoAQIECBAgQIAAAQIECBD4l8ArDoMVqO+I+8FWr3ACAxTY1wUmQ/vCbpN95UvYAU5YJRO4Fehyu0iukn1yTHGdZr5NzpMtnLzbpI6q5/tk3RfbCXRZ7EOy5mndH2q0MAcfsqtfHgSBfQp0GexynwOOaKxNeqn3g3cj6mlMrczTzIvkJil+L1DHdf/7hz1CgAABAgQIECBAgAABAgT+9f1tz2HQAq8GXb3iCQxMYB8XmNTJnX5gfb9JvZuB1axcAgQ+/ZWSq0DUifvZyECu08/L29zktrVYpqA6cVWvn2J7gVkWXSdr3g4xbhovuj6DCAL7FFjtc7ARjfUxvdR7VN2KdgU2Kc1+un//vL3/Kc8QIECAAAECBAgQIECAwIQFLkbc+ya9/W3E/d21Vvvw7O4HtwQIHFZgHxeY1EHbHbbMvY5+ndGWex3RYAQIHEOgz0bqwpJ5ckwfFG7Szw/JOiF0nWw95inwRfLH1gttrL556qkLTWbJIUXNz5ZjTK8FLTtPpbZZGu2m0uwOfdbrff3lks0O61j0dAK1n2p/TeHLo12Vz7PC5a4rWZ4AAQIECBAgQIAAAQIERi/wesQdXqe3n0bc311r9T3x7O4HtwQItC9QJ8x+GVB27ZM+q8L6P29b3R/9szpra+V5yjmWc+3TKUef5lue18+ZB+/SW33wGWqcp/B18jkGU1y3LpTqkkOJn1Noq/tpNhREdTYv0KVCr2e/P9bnze85BT4kUPuv1dfvU9VV72lD/uz10P72HAECBAgQIECAAAECBAjsLtBnlVP9jnqM7Xa3JOuR91mWq9te3RAogWXyGMfYKbexqEZPEc/9CyZ9iu5OUfgTt/km622euK7VCBA4rkB9+f82WR8K+uSY4jrNvEheJm+SQ42PKbz6+D65SYrtBM6z2DpZb/5dsvUY8hxt3VZ97QhcpZSunXKaqKT+uta8iUoU8VSB2n+1H8WvAme5W8e7IECAAAECBAgQIECAAAECJfBqxAz1/f3mtr8fR9znXWt97tR374IAgQMLPPcCk9cHrm+fw28y2HyfAxqLAIGDCdRryzp5ebAtnGbgTTb78jbr/lhimUaqL3+Of7c9Osviq+TY5vluCpYmcHqBLiXMTl9GUxV8n2reNVWRYp4qUPux9qf4VaDed/tff3SPAAECBAgQIECAAAECBCYqcJa+L0bc++ff19f3A1OIMe/PKew/PQ5E4DkXmHTpcUgH6puB7BNlEpiyQJ/m68KS+rBzlhxL3KSReg16kbxOjjE2aeoyWT3+mBTbCXRZrP5ST837WVLsJtDttrilCXxV4Oqrj07zwXq/eplcTrP90XZd+/PbZO1f8UnAcW8mECBAgAABAgQIECBAgMBFCM5GzHD9WW/1ncDnP3/21KjuDukPI4wKXjPTEnjOBSazAVH9lFqXA6pXqQSmJtCl4dVt1v0xRV0lXBddzMfU1AO9bPLcLPl9cpMU2wl0WWxxm3VfECBwHIH6ImF2nE01v5X6oqEuLrluvlIFPkXgY1aq/Vv7WXz6CyY9CAIECBAgQIAAAQIECBCYtMCrEXe/TG+bL/p788XPY/zxLE31Y2xMTwRaEnjOBSZDeuH9oSV0tRAg8G+BerO/Sq6TfXJMcZ1m6kTOZXKKJ3OW6ftFsl5/N0mxncAsi9XxUH/VpEsKAgQOK1DHmvgk8NfcfIQxaoHav/XZZIqfS762Y+szqCBAgAABAgQIECBAgACBaQp0absfcet//0pv9b3AFL4T8Pv+V3a+hwjsU+CpF5j0KaLbZyEHHGuZsTcHHN/QBAg8TaD+VFmdSJ8/bfVm19qksjpJVydwrpNTj3cBKIsfpw6xY/+XWX6VnO24nsUJENheYJZFu+0XH/WS36e761F3qLk7gfoyqS7+FJ++SJyBIECAAAECBAgQIECAAIFJCtT3r2ONTRr76SvN3eSxKXxPf54+z77Sv4cIENiTwFMvMHm1p+0fY5g3x9iIbRAgsLVAnyXrxPm75Jje5G/ST73efJv8KSl+Fdjk7iz5InmdFNsJdFlskVwn+6QgQGC/Alf7HW6wo9XFBsvBVq/wpwjU/v7+KSuOcB2vAyPcqVoiQIAAAQIECBAgQIDAFgLfbbHMUBe5fqDwKZy7qPNOswcMPEWAwDMFnnKByZAOzGV8Ns80sjoBAvsR6DLM++Qq2SfHFMs0UxeWzJM3SfF1gU0efpmsk1p1X2wn0GWxOm4WybovfhXY/HrXPQI7CcyydLfTGuNc+E3aejfO1nT1iMAyz9f+n3p0AZhNHUH/BAgQIECAAAECBAgQmJhAn367Eff8twd6u85zlWOPMV9ANPZ9p78BCDzlApOLAfR1V6IvTe8k3BI4nUBdlFb/d+iH5JBeP7YRu85CL5PfJzdJsZ3AMou9SNZr9E1SbCcwy2LrZB1PdVwJAgSeLlDH0dSjvmyYTx1h4v3X/n/oS6ep8LxNo95Xp7K39UmAAAECBAgQIECAAIFvvnk1YoSP6a3yofj7Q0+O5Lk+fVQKAgQOIPCUC0yG8sK7jNfmAGaGJEBge4FZFq0LS+bJMX1xf5N+6qKSl8nrpHiawDyrfZv88WmrT3ateTqv42qWPEaM6dg9hpdttC8wS4ld+2UetML6ouHyoFsw+FAEah5cD6XYA9VZ73OzA41tWAIECBAgQIAAAQIECBBoS6BLObO2StprNdv8jyTLvW6x3cEu2i1NZQSGLbDrBSZd2u0H0vKbgdSpTAJjFOjT1Cq5SHbJscRNGqnXlhfJZVI8X2CTIWbJMt0kxXYCXRar42udrPuHjDrx1mrUMSkI7CpwtesKI1t+k37+OrKetPM8gZoPm+cNMfi1Xw++Aw0QIECAAAECBAgQIECAwDYC/TYLDXiZ6y1qr+9Ut1lui6GaXuRV09UpjsCABXa9wKQfSK/L1LkZSK3KJDAmgToRXX9mfJXsk2OK6zRTf21jnnRSOwh7jk3Gq4tMvk/WfbGdQJfF6iKTRbLuTy0ci1Pb48/vd5YhuucPM+gRXqb6zaA7UPy+Beq1tC4ymfJrapf+Z0lBgAABAgQIECBAgAABAuMWGPNFB3/PrttsufvebLnckBc7S/H9kBtQO4FWBXa9wGQoL7xTeGFsdU6pa7oCV2l9nbwcGcHH9FMn45yQO86OXWYzdSGP1/HdvGdZvP7ZnDoO9xndPgczFoEGBPZ9jDTQ0k4l/JClNzutYeGpCNTnnam/9/orJlOZ7fokQIAAAQIECBAgQGCqAl0a70fc/HKH3q6z7M0Oyw910al/FzjU/abuxgV2ucCkSy994/1UecvkJikIEDiOQJ/N1IUl8+RZcixRH67qRFxd7HCdFMcTKPt58kXyx6TYTqCOv3myjsdZch/R+jFdc0UQ2FZglgW7bRce4XJ/S0/vRtiXlvYnUPOj5slU4zyN91NtXt8ECBAgQIAAAQIECBCYgMCYLzbYZP/9tOM+nMJ3AH1MznZ0sTgBAo8I7HKBSf/IWK087WRkK3tCHWMX6NLg6jbr/piiPljVxQ11okWcTmCTTc+Sf01ukmI7gS6LLZLvk3X/OdH6h++b5zRn3ckJvJpcx782vMnd+a8/ukfgXoF5ntnc++z4nxjzl43j33s6JECAAAECBAgQIECAwMMC/cNPD/rZ6ydU/9MT1hniKpdDLFrNBFoW+I8divtuh2VPtegmG74+1cZtl8BEBOqEc335PtY35U16+5i8SYo2BH5KGZWzZM29LikeF7jIIpXL5JvkJrlrnO26wpGX3xx5ezY3XIEupffDLf/Zlb/MCDfPHsUAUxCoeVIXdtY/uzbF6NN05XVSEGhBoD6LVXa3effz/3r7eG62+my8qQUT//x086/PhXW8V25uMzeCAIEjCHTZxt1xfXdM1+2ux3Udv5UVju1PDv5LYAwCXZqo14Tz22bq511eHza369Xrw38n6+e6X/nx9jY3gsAkBS7SdTfizut/mt016nXhOtknxxx/GXNzeiNwCoFdLjDpT1Hgjtt8s+PyFidAYDeB11l8njzbbbVBLd2l2kWyLmSoEyz1IUu0IbBMGdfJefJVUmwnMMtifbLeI5fJXaLbZWHLEmhYoF7Tpxp17G+m2ry+nyRQn31+SL590trDX6k+714Pvw0dDEygS73nybr98+39+p2rfj5W1LF/k6zbf97e3j2WHwUBAjsIdFn2PFm3f7q9rZ/PbjM3R4ubbOljsm7/67P7d4/lIUGAwAkEumyzT9b7fpc8v73NzcGjjv/Nbf7j9rYeEwTGLvDdiBvcpLenHsd/z7p9cszRp7nK66QgQOCIAn229csAskuNU49VAFrdV/2Ids78iM61T08dfQr4kGx1bh2yrkX67pKiLYEu5bxPHnLfj3HsdcwuktvGuyzYqkP1IghsI9BloVbn8aHrcpxsM0Msc5/AasLHztl9KB4nsAeBml/1eextso6zn5OHfj94zvhVX9U5T/ZJx0cQBIHPBLrcnyXrmP6QbP2Y/vz1oOp9n7xM9knHdxAEgQMI1LF1kXybrPfUVl8nqraqsWrtkoLAmAS6NPP5e+DY7s+esbPqNarV16V97qd3zzCy6jAFlil7n3OoxbEWre+aOvBahPu8puYRj7STVw3vq/5IBsfYzDwb+Xz+HfJ+7dNTRZcNtzynDun+5dhXp9oJtvugwCzPrpNf7i8/P2yyiFmXfCzeZ4FWLVePFe95ArcCl7ltdR4fuq7OLCDwDIGaP1P4kulrx+H8GW5WJfClQH1h2yfrhM2H5Nfm3NAeqz6qnz5Z/QkCUxLo02x9vlwlf04O7fh9rN46vhfJi2SXFAQIPE2gz2pXyVXyseOu1ec/f79PG4LAoAVmqb7VY20fdXXP3DvLkfuUcX1u87tLECYUy/S6j+Or5TEWp9qff9hyw/Vh4nzLZU+12Mts+PpUG29ou6vU0jdUz+eljGkfzdPY1efNHfD+dcYuu2NGvdG+Tl4mven+Kr/J3TfJZVK0JTBPOa+SXVJsLzDPoj8mN8mvRcvv//XnGy++VrTHCHwhsM7P3RePTeHHer+aT6FRPR5UoObQsT7zHrSRHQe/yfL/ueM6Q1m8H0qhO9RZ++vjDssfY9GzbGSW/C55nqyfxxzXaa4+U9btJikIjEmgSzMXyakcz1/uu4954DpZv3/VrRimwFjfi64b2x196qnXillybO/9N+npp2S9FtStIDA0gZa/43yu5T6+I+1TxOq5hQxg/b+mRq9hA9hReypxmXHqnNGYY5nmvm+1wS6F/dJ4rlvFO0Fd9SbQ6v7qT+BxqE3OM/CxnGufHjNm2djPyWP1N8Tt1AfSLinaEuhSzjI5xDl1yprXMZslvxYtvxa8+1rBHiPwhcAsP5/y+DrVtuu4FgT2JVDz6VRz+ZTbvdgXYGPjnNL0UNteNGJ8ljouk6vkoXodwrj1u9Is2SUFgaEK9Cn8KrlODuG4O1aN5bFI9kkxLIFVyj3WPDnWdtaN7II+dbxNtvz9yb73Sdkvkn1SEBiCwHmK3Pdx0NJ4sz3thCm8jq32ZGWYYQgsU2ZLx+ohalm0vCvqi7VDNL3PMd+1DHjk2lYN76/+yBaH3Nw8g+9zDj80Vu3TY0SfjbQ8fx4yOtVzi5h1SdGWQJdy6ovtU82LoW53HbOyu4uz3Gm5l/ldoW4JPCCwynMtz+ND1Vaf3wWBfQn0GehQc7XlcVf7AmxsnJbNn1rb4sTGfbY/tRNL2+6rVWxmSUFgCAJ9irxKrpPbzvEpL1dOi2SfFO0LrFLi2OZrzcFTRX1fcpkco+uu86T2wywpCLQssEhxu87toSxfx+C+Yp6BhtL3c+qs13AxDYFl2nzOXBnCuouWd2UV1zriecuAR65t1fD+6o9sccjNzTP4sY6L2qeHjHpDXSSP1c/YtrOOXf1SKdoTmKWk2j9jm3OH7mcRsy7ZJw+9reeMf5H6BIGHBLo8+Zw5NtR1Fw+heI7AEwXeZ72hHhPPqbt7olfLqz3Ho9V1FycAr9+h6neAVbJVl5bqWsdpkeySgkBLAo7l/byG1TE+S3ZJ0abAKmX9MrKseXfsqNeMq+QU/i//XedL7Y9FsksKAq0J1PzcdU4PZfk67vYV9Ro3lL6fU+d8X2DGaV5gmQqfM1eGsO6i5b3Q+v8Fvm4Z7wS1rRo+YPoTeBxqk/MMfKwXl9qnhwi/FO13H9Zr0ewQO8qYzxaYZ4RjHa9j2U7N59ZPJvapURB4SGCeJ8dyTO7SR/cQiucIPFGgy3pT/CJ9/kSvllfb5fVkKMsujgjud6jnv7eusr9mR9xnNkXgawJ9Hqzfd6b43nbo1/Z6TS5f0ZZAvfYeet8fe/z1EYm7bGsxQsND7bOyKjNBoAWBWYo41FxvYdx+z8irkXvVPlvv2cxw7QosU1oLx+kha1i0yj+EK9betYp3orpWDR8w/YlMDrHZeQY95IvC52PXPt139Blwnfx8O+7vx2MR1y4p2hLoUs4yaZ6Px6A+owgCDwms8+TUjvn5QyCeI/BMgXnWn9oxVScexxZj3IeLI+wkF5bs//hfZ7/NjrDvbILA5wKz/LBKjvG1sLWePsS5vEUbAmOc9+sj0HbZxiLZ2vE1lHrexq4MBYFTCrzPxodyzOxa5/oAsLMRe33u2x/AzpDtCSxT0uf7fYz3F6di/+MjG+4feb6Fp5ctFKEGAgMROE+dq9vsBlLz0MqcpeB10i9Rbe25TcqZJb9NbpJi2AI3Kb9SELhPoM8T3X1PjvTxTfpajrQ3bbUh8C5lTO219yw9923wq+JEAjUHrpL1+X6erJ/FfgS6DLNIlu0sKQgcSuDuOP45G6g51x9qQ8b9jcB5fnKM/4bEDwMSuHvd+JCaZwOqu7VSL1PQKjlrrTD1TEagS6cXI+72zQF6+ylj3hxg3NaGHPO8aM1aPSMVGPoFJpvsl48j3TfaIrBPgbMMVhc81C9GfVIcXuAym/BL1OGdd91CvWe8SH6f3CTFMAW89w9zvx2z6lfH3Fgj26ovFjaN1KKMcQrcpK2/jbO1B7ua4uvJgyATevJ1el0n58mzpDiMQJdhF8myniUFgX0J1HF7lXQc70v0aeN0Wc0x/jQ7a51GwPv/ft27DHf3GlD3BYFjCvTH3NgJtnV9gG3W7/0/HmDc1oZ8lYL8jtfaXlHPoAQeu8Dkz413c914fcoj0ILA3S9Gly0UM7EauvR790tUP7HeW293mQJfJqd4oqz1fbNNff+9zUKWmbTAxcS636Tf5cR61u5pBN5ls5vTbPpkW63Xk7OTbd2GTyHQZ6OrZM13+z4IR4ou27n73anuCwJPFajj9iq5Ts6TjuMgNBBdarg7xmcN1KMEAl8K9HlglfT+/6XMfn7uMky9Lr9Nel0OgjiKwNVRtnKajVxns5sDbfqnA43b0rD1OjRrqSC1EBiawGMXmJw33tDfG69PeQROKdBn4/XB/V2y3jDF6QS6bLp+SV0k675oQ2CTMi6TL5JTuDI7bY4mPo6mE40cQmCWQaf2vvfmEJDGJPAVgZs8NrX5Vq8nF1+x8ND4BGpf10mP+tzeJ8VpBLpstn6P9bvTafyHvtVZGqj5M0/WMS3aE+hSUh3f75N1XxA4tYD3/+Pugcts7kOyP+5mbW2CAjXHuhH3/eMBe7vO2B8POH4rQ3/XSiHqIDBEgYcuMDlPQ/UBq+W4brk4tRE4kUCX7a5us+6LdgRmKaW+7LpKtv76mhInE5t0Okt+n9wkRfsCU/glp/290G6FU/sFcZNdsWx3d6hshAI13zYj7Ouhll499KTnRiHQp4s62XE5im7G0cQsbdTvtXUrCDwm0GeBmi+LpN+1gzCAuEiN6+TbZJcUBE4h0Gej3v+PL99lk/WafXX8TdvihARejbjXTXpbHri/KfzP/X0MfW488EQy/HgFHrrApGu87evUd9N4jcojcEyBejOsD+brZJ8cU4ztWJ9n59QvsLOkaEdgmVJeJH9IbpKiXYFNu6Wp7MQC9V54ceIajr35N8feoO0RiMDfJqZwnn7r9UWMT6D2a53cXCW7pGhLoEs5i2T9jlv3BYEvBbo88D5Zx3CfFMMTuEzJtf9mwytdxQMX8P5/+h04Twn1/WiXFAT2LdDve8CGxrs+Qi3vjrCNFjZRn0MEAQJPEHjoApP+CeMdc5V/HHNjtkWgcYHXqa++dJs3Xueu5W2ywl+T3yZ/TI4pujSzSNZ+q/uiHYH6AP0yObY5147w8yq5yeofnzeEtUcscDHi3r7W2iYPLr/2hMcIHFhgmfHr9XgqcZZGp/b6MoV9e54m66TG5RSaHXiPXeqv35uuBt6H8vcrUN+D1DHs9Xm/rqcYrctG6/uRyrovCBxSoMvg3v8PKbzb2PV5bJWsW0FgXwKzDNTta7AGxznGd9Y36fu6wd73XVJ9nhQECDxB4KELTP78hPGOucr1MTdmWwQaFehTV30If5c8S44l6gPMm2RdWPJTcpOcJV8k6+cxRZdm1klfpLS1VzcpZ5asOXedFO0IfGynFJU0KPBdgzUdsqRjfKlwyPqNPVyB+qw2tb9i8mq4u0vlXxGoLxI/JLuvPOehdgXmKa1+/+2SYroCXVqvefAueZYU4xGYpZXat3UrCBxCoM+g9f5/fojBjflkgS5r1n65fPIIViTwW4Ex/+62SavXv233YD+9OdjI7QxcnyX7dspRCYHhCDx0gUnrH7Q+DodZpQT2LtBlxPfJ+sW7T44pfkozdWHJPHmT/Dw2+eGvye+TdX9MMUsz9cvU1ZiaGkEvm/TwMjnGOTfU3fNfQy1c3UcRuDjKVtrZyLKdUlQyQYF36fnLz2pjZjhPc2djbnAivdU+XCTfTaTfMbbZp6n6PXiWFNMTeJ2W6/fmfnqtT6bjLp3W6/TbpPfdIIi9CdT3bfX+YV7tjXTvA9VxX/tJEHiOQJeV++cM0Pi6x/wfPa5jcdO4xz7Ke7WPQYxBYGoC911gUh+0Wv6w9TH1TeGFbWrzUb+PC9RxWR+06wuVi8cXH9QS16m2TuTXBSSb5EOxzJMvkm+Sm+RYovbvPLlOzpKiHYFlSrmbc95/TrtfPp5287besMDY3hcfo15mgc1jC3mewAEF6v3wxwOO39rQZymob60o9ewk0GXpVXKWFMMW6FL+Ilm/G4tpCHRps47fd8l6PRbjF7hMi/XdVzf+VnV4YIF6zaj3jPmBt2P4/QjUfvL+vh/LqY5yMfLGfzpyf1P4nb/mTL1XCAIEdhC47wKT8x3GOMWi/zjFRm2TwIkF6o2ufrmeJ8f0hneTfn5IvkxeJ3eJeRau9cb2QadLT/XL7/tk3RftCMxTyrfJsc25doQfr+Tj44tYYqIC302s7zcT61e7bQos2yzrYFVN7XXmYJAnGPg826yT03UrxiMwTyv1O3KXFOMVeJXWaj/3421RZ/cIdHm89v3lPc97mMBjAl0WqPf/WVIMR2CeUut7UUHgKQKvn7LSQNa5Tp2bI9f605G3d4rNnWWjs1Ns2DYJDFngvgtM6oBqOT62XJzaCOxZoMt49cvQ+2TdH1PUybEXyXfPaGqTdWfJGmdsrw0X6WmdrF+quqRoQ2CTMmbJmnObpDiewE02Nbbj/Hh6499SP/4W/93hde5t/v2TOwROJ1Cvyden2/zRt1yfzcTwBF6l5Pp9qhte6SreQuA8y9i/W0ANcJGz1Pw2uUzWfTFNgbt5cDXN9nX9DIEu69b7Q71PiOEJzFLyYnhlq/jEAn223524hkNu/sdDDn7P2Nd5vHLs8d3YG9QfgX0L3HeBSesfvD7uG8J4BBoW6FJb33B9TyntOivVyfl58ia5j9hkkPrLEt8n6/6YYpZm6pfiuhXtCGxSSs3jMc65dpR/W4n3/996+OlXgT53u19/HP29H0ffoQaHJPC3IRX7zFrPsn7/zDGsflyB+j8Yl8nad2K8Al1a+5C8GG+Lk+usS8f1O/Dl5DrX8H0C8zxRc8Lr+X1CHv9coMsPNV/qVgxXYJbSF8MtX+UnEHh1gm0ea5M32dDyWBv7Yjt//+LnMf7Yp6nzMTamJwKHErjvApM/H2qDexr3457GMQwBAscV2GRzL2+z7h8ilhn0RfLNIQY/4Zhdtl2/VK2TF0nRjsAypdTFTWObc+0I/1rJP3696x6B3wj0v/lp3D9s0t5y3C3qbmAC16m3vuyaSvRTaXQEfV6lh3cj6EML2wmcZbH3ydrvYtgCfcqvC4bOh92G6g8g0GfMmhtdUhC4T6BeO8yT+3SG9/gsJXtvH95+O0XF9Vnw4hQbPtI2fzrSdr62mWUevPnaEyN7bMzzZ2S7SjstCNx3gclZC8XdU8PHex73MAEC7QrUB5Afki+S18ljxDwbqe39eIyNHXEbXbZVX5wuknVftCFQc3yeHOOca0P4UxXXLRWjlqYE/tJUNYct5vqwwxudwM4C9R44ts9bDyFM6fXmIYfWn6sTEfPWi1TfQQRqv9f+F8MUeJ2yV8mzYZav6iMIdNlGzZG6FQS+FDjPA15DvlQZ/s/ztOC9ffj78dAdXGQDY/78cMrfuW9i+/HQO7CB8etzqCBAYEuB+y4wOd9y/VMs9s9TbNQ2CRB4skD92fQXyf+fvTO8btvYuvZd33r/X94KMqrATAWGKrBSgaAKzFQgqAIrFYiqwHIFgiswUwEnFYSpIN/ekeTYFikBIDA4c2aftU4IgTNz9n4GAAEQoa8HjzC8Y0TXGslfl4hIT1HDzBbJC6yAVNggECGjRp4iI1IxLoF23OE0mhMCC/ionHjpYoOfqwoRsEbgzpqgCfVUGJvHHYVdAjw/buzKk7IEBDj/HxLUUYlxCXDO5rhvMK4LjZaCQECRL8hlimKqkQ0Bbg/3SJ2nZTNlvYQ2aH3eq4cal0bA8/YRMZntzBN6NXP9FOX5+VGlKKQaIuCBwKEHTCyfiG08gJcHESiAQAuP/JJ9hdwh5wweN06QF8iI9BQNzPACukYq7BBoIcXrNjcXZTJViMA+AtW+lU7XRfjSubDTyc3cVgv9zFLirBSjGfq8hOYmQ92SPD6BFYa8GX9YjTgBgQXG/IjknClEoCsBbje8F3LetYPauSYQ4I7bA7cLhV8C17C29GtPzo4gENC3OqK/9a63BgS20LAzoGNqCZdTF9D4IuCFwL4HTKx/SG+8wJcPEXBKIMLX6WO2eLUUa4ihNm//93eApxvkFsllhR0Ca0jhNndrR1K2Sj5nq1zCpybwbuoChsb39vllCK2kjECgpOO09WvmEaYzyyHOobrJUrlET0WgxsC8TlLYJRAg7R55ZleilBkmsIC2NZLHf0W5BAKs8zjC7UHhmwDnmA8kBt825W4AgdWAPjl1WRsRW8I9qSVY6/PEyAYnGbYJ7HvAxPrOE20jlToRKJbADs6vkD8jW6TViBC2Qp4gb5GeIsDMFnmD5LLCBoEIGTXS4zYHW8miTVZJhXIjsMxN8BF6747oq64iMDWB66kLGBq/pAfbDGF/UQo/C9YvttCbpRKoYZzXRwp7BAIk8Uvhks7l7M2CD0Vr2Dj3YUUuehIIaM/jCF8VZRAIsKnP9TLmuo9Lz9dnLUDEPjAmbFvCPakF+NUTMtTQIuCGgB4wcTOVMiICsxJYozofLGmQO2QOESGyRl4gI9JT1DCzRV56MuXAS4SHGulxm4OtSYPHlXbSCho8VwIBwpe5iu+pe4P2sWcfNReBlARKOlYHgGUqbBAIkMH/m1UhAocI1HhDX0YdojPP+oCy90i+KkRgDAJrDHI2xkAaIysC+jWLrKZrNLEVRlqNNpoGyp1ABQMhdxMv6L994b3Ub/G+VJu66Az1PD+wNANOlfRKYN8DJsGwWd60ZCpEQARsEGgh4xR5gYzIHGMN0SfInD0c4t7gDT5oUiMVdgisIYXb3BUyIhWvE/j8ehO1KJTAsiDftwV5ldV8CXzKV3pv5VXvHuowFQHORZhqcI3rhkANJx/cuMnbSIB8PVyS9xxaVc8HyUq6PrA6D6l0Bc13KtQm6/AzvTKpTKJSEzhPXTBhPX4XepewXpdSJVzzVwDBVIiACLxAYN8DJosX2s/9VpxbgOqLgAj8Q4AnNxfIU2SL9BBrmKCfWw9mvvEQsMybLLqB9w0UI4sNdHjc5qbAa+1iagqPGnMYgWpYtyx7aT/IctqKE13SdrosbnZlWATyJ7CChcv8bWTtIEC9rk2znkLT4hfavkzPj8SJwNgEeL+T+72iXAIB1mvH9u/gbWfM39qgpikQnU0xqMYUAU8E9j1gEgwbtHYwNYxK0kRgEgLcB6+QJ8g10ltEGKqR9NciPUUFM1skL74CUmGDQISMGsltboNU7CfQ7l+ttSLwn7eFMODxIRbiVTbzJsDttJTPM/1sbt7bqtSXS6CB9VW59md1HlD9HslXhQhMRWCBgbWdTUVX44qALQIBci5tSZKaxASqxPVSl7tNXbBDvR3aWNTVQXqvJudozXMKhQiIwAEC+x4w+e+BthZWRwsipEEECiXQwvfPyAbJEwnPEWHuFHmB5LKnqGGGN1tWnkw58BLhgfuXx23u2OlpMUA8dhD1d0mAF3pLl86em/r8fJXWiIBZAiX8ZC7hBySPQwoREIH8COhn9dPPWUBJfemfnnupFZ+2N31Ol7oFyHdJBFYwW5VkWF6/I/D+u798/RFhpzVq6c6orjFl8RxiOeaAGksEvBHY94AJdxyr8YdVYdIlAo4JbODt9DGjY5/7rK2x8gR5hdwhvUSAEd5U3SJrpMIOgTWkPG1zdlTNq+R23vKqbphASRd6d4bnQdJE4EcC7Y8rHP9d0nHI8TTKWqEEPsJ3KNR7atsLFNTDJampq14AghthEAERKILAZREuZfJHAgErPF+PWf4fN1qw3yG9h44t3mdY/o4isO8Bk6MGVGcREAE3BHiS8CuSv6rQIkuOBubJwdsX3QGeeMOFyWWFHQINpJwgvW1zQwi3QzqpTxEEqiJcPly0t4V4lU0fBLi9lnCzibNV8T8KERCBLAksoPoeyVfFtATIOUxbQqOLwF4CZ1h7ufcdrRQBEfBEoIKZlSdD8tKJgPfj+3UnCvM1+m2+0skqV6ika4VkuFUoNwL7HjAJhk1Ew9okTQQ8EeAJAr/ctn4ik5J5RLEaSS4R6SlqmNki+asmAamwQSBCRo3kw00RWWLsSjQtz50JvOncMu+Gn/OWL/WFEvhUiO9lIT5lUwS8Eggwxl8yUUxHgNeYOlZOx1cjv06gQZOz15uphQiIQOYE+LDBInMPkt+PQNWveVatW6iNxhVfG9c3lrzVWANpHBHwRmDfAyaWPe4si5M2EXBAoIUHfpnND07tb4CwJyLW8SGTCySXPQXn/R5ZezLlwMsGHrxuc69NzwINuE3yVSECPxJY/rjC6d93Tn3Jlm8CG9/2vrp7+3VJCyIgArkSqCCcX0opxidArqvxh9WIItCbwA16hN691EEERCAnAguI1WdOTjN2nNYzdA/HDWG6961pdQ/idnhpM9B5rMR3xw6g/iLglcC+B0z4YWw1eNBSiIAIjE8gYsjTx9yMP7zLEddwxYdxrpy5C/DDmy9b5BKpsENgDSncT71tc68RDmhw/1ojvV8cAZ6vhkJc63O5kIl2ZvPOmZ9Ddko6Fh1ioPUi4IFAAxOVByOGPNTQ0hjSIyllE+DnNX+tiK8KERABvwTew1rwa0/OviFw/s2yx8Vcrqd/8wj/B09L/F39sE5/ioAIgEBuD5ho0kRABMYlsMNw/LKaD0q0SEU/AuTXIE+Qt0hPEWDmC5IPm3BZYYNAhIwG6XGbg62DwZN5bosKEXgiwG2ihIgwuSnBqDy6IxDhiFlClHI8KmEu5bFsAvzyOZSNYDT35PhhtNE0kAiMQ4Cf15fjDKVRREAEjBJYQJf2c6OTM6KsgLHORhzP2lBrCNpZE3VAT5uR1gMWOq32vL11AqBGIrCPwL4HTPa10zoREAF/BNawxC+pG2QuJy2QajIiVNXIU2REeooaZrZIXaDZmtUIOTXyAhmRJUQNk9oOS5jpbh6rbs2yb/V79g5koGQCnwsxvyzEp2yKgHcCCxi88W4ygb+AGvdI8lSIgDUCKwiqrImSHhEQgVEJ1BgtjDqiBrNGoLImaGQ9tyOPN+VwOwyek96hLM7RUee2Q+mpn1sCuT1gwgOWQgRE4DgCLbqfIi+Q2qcAYcRoMdYJkmwj0lM0MLNF1kiFHQJrSOE2d4UsYX9u4JMn9QoReFMIgrYQn7Lpk8DGp61nrpbP1miFCIhArgQqCF/lKt6Ibv5ySTCiRTJEYB8B/lrRYt8bWicCIuCGgD7L3UzlXiPv9671sTLCRpuZlbvM9A6Ry/OGakhH9REBzwT0gInn2ZU3EfieQMSffPDhFNkiFdMRWGNocvb27xAGeLpBfkFyWWGHQAMp/Keubu1ImkzJNUYOk42ugXMhUMo20OYyIdIpAnsItHvWeVz1xqMpeRKBgglcwnso2P8x1snu7JgB1FcEEhDgl0S8r6EQARHwS+Ac1rivK/wRWMIS02u0GRqj5hx190Xt+cGmvizUXgT+IZDbAyaaNhEQgf4EduhyheSXz2ukIg2BiDIr5AnyFukpeCK/RfKmTEAqbBCIkFEjL5AR6TUWMHaP5KuiXAI8DnmPHQxuvJuUP9cEuP1yO/YeAQYX3k3KnwgURID7M69zFP0IBDRv+nVRaxGYjcAZKjMVIiACPgnws3zl01rxrrx/yX+V6Qx/zlR3H9kVGvPYohABEXgkoAdMtCmIgG8Cd7DHB0sa5A6pSE8gomSN9PilP33xi/5LpMIOgTWknCJv7UgaXUnAiB9HH1UD5kJgmYvQI3Vujuyv7iJggUAp23GwAFsaREAERiNQYaTVaKP5H2gBi7wuVIhATgT4IBm3XYUIiIBPAnwQQfu4v7mt/Fn66qjFUvz6V14L13nJHax2NbinOoqAQwL/59CTLImACDz8LNkVQLSCYYbAGkqYPBHhRU5AeogAEw2yRnKbWyMV8xOIkFAjWyQfAApIb1HBEL1xu1OURSAUYvf3QnzKpm8C3I4r3xb/cbfEfzcF+JRFESiJAM8z75CxJNMDvX5AvzCwr7o9EIh42SGfXv96/Bsve2OBtf9FBiSXn16xqOhIgNy4n//asb2aiYAI5EWA+3iNvM5LttS+QKDGe+GF93N/6zZjAztob5EV0nOcw1zj2aC8iUAfArk9YBJgLvYxqLYiUBgBfphfIXXybHfiOTd3yAbJkxIvEWDkBvkOyRs0EamYn8AaElrkR+QS6S0aGPqMbJGKcgh43Jb3zV67b6XWiUBmBDaZ6R0qt5Tj0lA+6icCORJYQDSvb05zFJ9Qc41aTEU3Ajs0a5F/IPkZyWWuYx4bCwwQHrPC6xvkEsn1iv0EVlj9Cdnuf1trRUAEMifAe5TXmXuQ/H8JcD49R5u5uSvorzL38Jr8gAYVskUqRKB4Ark9YFL8hAmACLxAgB/iPGnevdBGb9kgECGjRjZIb1/8n8ETc43kNhmRinkJRJT/GdkgL5HegvsQ/UVvxuTnIIE3B9/x9Ub0ZUduCiXQFuL7v4X4lM1pCEQMu0HyOu6Px1cuPyUWn0XAmsU3yc9G/h0eX/GiGIFAhTHOkHcjjOVxiABTHq8vxpyrHQZrkZ+R3I4icqpgrc1jstZTLLHAfIeskAuk4l8C3Ibbf//UkgiIgCMCFbwwW6QibwIB8s/ytvCi+jXejS+2sP9mC4k7pPfzDG6H9KoQARHYQ+BvrLOa1R69WvU9gXv8qfn7nskUfzWGOHPOA1KRL4Ea0rdIq/vuUF30RG8KOwQqSPG4rd3bQSwlCQhwvv8uIBOgVAkRSELgT1Txvs9+SUJynCLe58K6P24r18gauUROcQOW41bIBvkRWcI+OOW8b8FwinnCsNnHDRxMyT7XsbnPXSMrpMVt5wy61kgdG/7dflfg4T3uYTDXfUq6NXfHbAON9527EH81fB6zHVjvy89mD9HAhHXWx+rj+ZPF8zsP288UHtYY9Ng5t97/ZgpwQ8fcGgZeDzVVUL97w/NXOZqHxgBn7qsVUuGHQAMrfztMbqteTpRhJfsIcMA58batlXBTMPuNbyQDJdwMvx+JlYYRAQsEvkCEt8+cH/3wuJRL/Khdf0+7fW6xYVwjK+ScNyKXqM9zpXuk5rw/gwbcFN8TqPGntqXvGXD/OkPOua+jfOegzhpZwuf0a9sqP8dzmTdIHRTcPl/joPfFyOM2kNN5+qCdu5BOW8fHMHrzEhWMeDyO/Ohp5WXCCvCxLmCbvJlrHvVP5MxFXnVFYDiBHbr+hmyGD6GeRglwTtdIvp4jvUSAkY/INfIKGZGK+QhElD5BXiPfI73EBxhpkRsvhuRjL4EF1jK9x1/eDcpfUQR+h9ulc8c8LgVkRCpEYAcEvF5rHxMvs8cGCpjXyAXyDPnu8RUvilcI8Jx5jYxIxcM2dCkQXwmssXSLbJE5xQ5i149Z4bVGeroPATudg8fFFbLp3EMNRaA7Ae5rEblB8jqPfz8lFr/GAktP+dPj8vLx9WsjLfQmQKYVskUq8iRQQXbIU3on1W2nVnk0ohdmhfQcvI669mxQ3kRgKIEtOv5tNFdDTRXU797o3HGbqhzNQwMvc+wn/ODiibHCP4ElLG6Rc2xnU9e8hC9txza24cbZNsZ9RtuWjW1rKhUVBp76GGVh/NVUADWuCMxAgNuzhf1qag3LGdgOKTk1h5LHv8eEVEMmZcY+AbVr5BZZ8tx18f4RjBQPBC7x0oWZ9zY34BAekLj5L/3cI73P3T5/f8K352vJUud131xPuY7b0Q2S578VcoxtimNwLI7JzyLWmNKDx7GvwUyRLwHuUx63yydPId+p2aucx6onb55fvc3b3sl0sHIND563Q3q7sTRP94aBN5ZAGdVief4qo8yGyGrQiTtvquS8VkhFeQRqWN4iU21rqerQE70p5idwBgmeblB8mB+pFExIgNtrquPUnHWqCRlqaBFITaCU/bZODXZgvTmPbR5r8xzqGhkGzoelbjXEbJEe52ksTxX4lB4BAMbimes492BADp6jhrktMtc5Gqrb87Ukt9uhXNTvZXZku0IukamiQiGef2yRmp/XGfB8TZEvAc6f1+38S77TclD5Au94nrOnbbE5SEBvWCKwhpinOfP6emMJ+EfDwE2BsjRp32i5Nzx/1Tc6c19sYCDVAYlzqiibAC9SU21vqets4S2UPb0m3HMb41yknv+p6lUmqErEFARWGHSq7cbSuNwnFSLghUCAEUv711RaeHzKIabyX+K415jwRQ6T3lNjjfZbZIlz+prn+54sPTa/KXjb2MJ75XFSX/DU4L3X9gtv74cXeOT81n2BcznltskvhRukhfOACjrWyCn9ehibnBT5Eagh2cP2d8gD/XkMy98xH5qLvuv5EI3CPoE1JPad29za38w1Df9vT2HL/+b7//bo1SoREAER8E5g59hggLctkh+EXFbMQ2CDsqfIOE/50atye7Jwo2d0YxqwmOME90mFCHghEL0YecXHm1fe19t+CLSwcoJcIXdIb7GGIfq7QEak4l8CFRaZpUYN48wS4zeY/hnZFma+gV8eDyKylLgsxah8DiLQotcpkseDBmnhPKCFjhrJffUWqdhPoNq/WmuNEzg3ru9Yee2xAxjtz/Mm77GAwcq7SfkTgZcI7HvAxMKJ0SHNPx16Q+tFQAREQASyJlBDPf8PEN3MmW8aI0rzRglfc48AA9qWcp/F/fpLOBfc7LeutSKQNYGYtfpu4v/XrZlaZUwgQjvPlbycL702FetHryXcIH6Nxbfvl3yOWaL3+LgfrPBq+X7pt9vo2MsRA/K4dzv2wEbHq6FrYVSbZM1HYI3ST+cA7XwyXqwc8W6NPEGWsr/Caud427mlGlohECCksiJmAh2fMGacYFwLQ7YQUcJ503sLsKVBBOYikNsDJjrBn2tLUV0REAERmJ4Aj/ENcouskYr0BCJK8qbJJn3p0SuuMGI1+qgacG4CJZwL7uaGrPoiMAEBD58rr2H56bUGej9rAnzI4mdkm7WL/uIjuvCcil9WcVnxcH5ZFQiihudQmO87+C1xv983zREra+QVsoTgcU8hAiTQInmP5OJxGS/mI0JhjaTuiFQ8EKjwshCMrAjUWantL3bdv0tWPXj95D0qGNRxxfssy99BAvseMIkHW8//RoAE7bDzz4MUiIAIiMCUBAIGv0HeI7msSEsgohxvRGzSlp2k2odJRtWgcxIIcxZPVDsmqqMyIpCSwF8pi81US9epM4GfuGzE+DwvWiF3yFIjwji/aC/hRnGXOb7s0shZm9I8X2H+fkGWvN/v24QbrPx13xvO1vH/SNbnurNJ7Wknoj0//5ktMsdoIVqf3d/PXPX9n/rLOIFz4/qOkRfR+e6YATLoe52BxmMl8lyhPnYQ9ReBXAnse8BkZ9wMd1qFCIiACIiAfwIVLG6RN8iAVKQjwHMB3kjZpCs5SaUlRl1NMrIGnYtAmKtwwrp/JKylUiKQikDunyddOIUujdQmKwIt1Ob8xdLYsHcYkOdVJXy5/Bq7Cg2YpUQNo6EQs9zOL5BNIX6H2LxGJzLyHAuY4/FOUSaB32CbD2a0DuzzmMZtWZ/dD5NZPbzovxkQ4FyFDHQOldgO7ZhRPx5/SvD5LqM5kVQRGJXAvgdM4qgVxh9sOf6QGlEEREAERMAwgRra7pG8KFakI8ALgVPkJl3JSSpdYtQwycgaNDWBReqCM9WLM9VVWRGYkgA/U0qIUILJQjzyyyWeB8VC/PaxeY3GJ8jYp5PDtjzHLCECTJbilZ9V3O/XSMXLBNZ4++LlJtm/q18xyX4KexuI6MFjwArp7dyVn9305s0XLPWKt71aq/GcBM7nLJ6gNq81SohPBZis4JGpEIHiCOx7wMT6iUYobpZkWAREQAREIAAB/7mTLbJGKtIQ4DnBL8iYptwkVRYYlduOIn8CIX8LnRzETq3USATyIhDzkjtYLT9zFPkTuIKFVf42JnUQMTq/qOJrqVHB+LIA82fwGArwGeHxZ+SmAK9jWVxjoIuxBjM4zgKauP0ryiDQwiaPAXz1Gi2M8bN759VgB19LtOG+rbBNgHNU25Z4lLoNejNLiDVM7gowWhXgURZF4BmBfQ+YxGetbK14Y0uO1IiACIiACCQkEFDr5jG5rJieQESJ3L9AOIOHCqnIm8Aib/md1Zdw8d0Zhhq6IRDdOHnZSCnHqZcp5P0uvyxt8raQTH1EpdK/kK+T0Z6vEH/FwXtEGMz9emeuOVqj8NVcxRPU9f5/0CdAmEUJbsM8BpRwHbYpyOuhjW956A2tN0PgzIySaYT8Ns2wJkflcfXWpLJxRZVwvjwuMY3mgsC+B0xoLBp2p5MAw5MjaSIgAiKQiECNOvw1E/4yRUAqpiUQMTxvuPA117jMVbh0fyWw+LrkeyH6tid3hRLgjaUSIpRg0rHHC3hbO/Y3hTXu2zxH3EwxeAZj8stnz+cnNfwFpOd42oajZ5MTe2swvtcvyyp4Yyr8EvgV1hq/9vY642c2z3lKjWWpxjPy7f3hvjajuRhD6t0YgxgfYwF9lXGNkicCoxM49IAJTzSsRrAqTLpEQAREQASSE1ih4j2yTl65vIIRln9B7jK1XkE3txdFvgQW+UrvpTzXfayXSTUujoC26+KmPDvDerhk+JRx/y71IROem6yGozPfs4QHtLntRvMzYV9gA4nRvsxBCs8G9VKnHAjws/86B6ETaLzDmHy4psTQr+PbnvUAeZVtiUep+4Te8agR8uvcQnLMT3ZvxSWcN/eGog6+CRx6wOQvw7YX0BYM65M0ERABERCBtAQCyt0gt8glUjEdgQ2GzvkmBE/2eR6hyJNAyFN2L9WxV2s1FoG8CMS85A5SGwb1Uqe5CfDcZj23iMzr76C/1C/qzzOfu0Pya7wRDr3pZD33fV7fKI4n8HQM4Ku34D6+8GZKfv75BY914Ryu4f+uQAZVgZ5zssz7dp6jxH2O83nreVIfvVV41flCARMti/8SOPSAyebfJiaXliZVSZQIiIAIiMCcBAKKf0HeILmsmIbAGsNeTTP05KPyRH81eRUVEIHhBHbDu6qnCJgnUML2zc8ZRV4EeE5znZdks2q5j58io1mF0wgLGLaaZuhZR/X+b8lr3x9/84oYMtfrxJdo8LP97KUGei87AhdQvM5O9TSCySJOM7TZUYNZZRJGApVjDBHe1o79vWStlOut+iUIek8EvBE49IBJNG60Mq5P8kRABERABOYjUKP0Fun9qff5CD/8G8W3cwo4ojZvlvMmoSI/AiE/yb0V73r3UAcRyIdACdv3f/OZDikFgd+QjUiMSiBitF+QJezv34Lz9jBGBXPLbw06W76Dn8aZJyt2riGktSJmRB3nI46loeYloF8t+54/P6/5kElpEUoznInfCjpDJlqHyGyHdHLSh8eaEvy/czJfsiECnQgcesBk06n3fI3ezFdalUVABERABDIh0EAnHzSpkYrxCawwpPXzhX2uF1hJ7QoRsEjgL4uipEkERiLwx0jjaBgRGIMAz2F0PjAGyedjkC2/wCspKphdODLs+cv0iHkqbftMvWlepS6YoF6FGp728QTITJbgtnltUtm8olqUv5tXQvLqy+QVVbALAc/nH3uOgo8AAEAASURBVPT/WxcIjtuU4L/C/DEVIlAEgUMPmETj7nUSYHyCJE8EREAEjBAI0HGD/ILksmI8AjsM9QuSr7kF/y/TRW6ipfc/PxXA4M8CPMqiCHgmEDybc+QtwgvPYRTTEVhj6BJuIj8R5Hll/fRH5q8B+uvMPbwk/wJvxpca6L2jCbQY4fboUewNUNuTJEU9CNyhbdOjfWlNf4XhHO/tDJ2nMLSj+k1GgHNSTzb6/ANHSNjML2NWBS2ql3CcOZuVsoqLQEIChx4woQTLB7wF9C0TclIpERABESiJwCnMts4M8zNji+TDJgGpGIdAxDA5fkHD84jVOAg0igiMSuCvUUfTYCJgi8DOlhypKZjAFbzHgv2nst6g0CZVMQN13hnQMIaEaoxBjI7Bfb81qs2bLF5refvc97KPe9vWuviJaMQHKBSHCUS89dvht92988ado/wNVflbeNEBz0FKD54X3BYA4RweFwX4lEUR+M9LD5j8bpxPZVyf5ImACIhArgQihJ8iL5Bc9hQ1zNwjLz2ZmtlLi/o53oh4D9064Z9541H5ZwS83Yh/ZlAriiZQwvatzxX7mzjPWdb2ZbpQyH2e1xMl7PucsAoZkLmH1+ukiIlpcp+cjPRzv8/xGvElxBXe1Of8S4TsvvcLpEW78swou4aSUj6z/2eGuoQ8EeA9Os/RejbXw9tdj7a5NuW5wjJX8dItAn0IvPSAyabPQDO0rWaoqZIiIAIiUBKBNcyeIK+QO6SXCDDSILfIGqk4nsAKQ7THD5N0hAWqUbciHwKcM4UIiIAIWCag45Tl2Xn4cqmxLdGdug0cefuS+aVJql96M4P3KmgMGegcIpFfMCvSErhOWy5JtTpJFRUZkwDvZ/GzSPE6gR2alPKZrV8weX17SNkioNgyZcHEtT6hXkxc02q5FsKY3sPrA9ve503+ehLI+QGTtz29qrkIiIAIiMAwAg26/Yy8HdbdbK8AZTfIj0guK44jcIHuvCGRU+hXTHKaLf0fg3nNltSKwHMC8fkqrRGBpAT4JVNu5ypJAU1UrMG4m4nGtjZs7vepzq0BHUnPGuOUsg2OhGyUYXi89XYP4d0oZDRIKgIRhZpUxZzUuXbi4zUbi9ca6P2kBC6TVktf7C59SdMV+cCN96hgUMcZ77Msfy/+Ezkb43y4g1bGNUqeCIiACHghEGGkRp4gI9JTnMHMFnmDDEjFMAIR3fjFTU7Bc4lVToKl1T2B6N6hDIqACIjAPATWKMtUzEPg13nKJq9aoWJIXnW8grwu8hYRhnK7RvE0B2tPZuBlieQ1pCIPAqV89ow5GzsM1o45oNGxuB9rX7YzOZUdKaMriRhxPfqoeQ9YCo9V3tMk9SLwOoGXfsGEJxTx9SFmbVHNWl3FRUAERKA8AhGWT5AXSC57ihpm7pF8VQwjcI1u7bCus/XSr5jMhl6FRUAEREAERCAZAX3BnAz13kIt1t7ufcffyjpTS9Tt8cs2bncRqZiHQIuyTC/BfaTyYsa5jzX83Tn3OJW9Us6ZPH7mTbVNTDnuGQYPUxaYeex25voWy+8gqgQu+tUzi1ufNI1K4KUHTFjo86jVxh/s7fhDakQREAEREIEOBNZow382x9uFZ4An/pLJFsmLHEV/AhfowouFXGIBoatcxEqnCIiACIiACIhAbwI8X429e6nD2AR4vpXTOeJQ/7nep/J4EzxiEpuhE6l+oxHw9lP41WhkNNCUBLzdq5qS1Y9jt1hRwuf14kfj+nsWAuezVE1X9DZdqawqlXCMXmJGqqxmRWJFoCeB1x4w2fQcL3XzCgV1MpCauuqJgAiIwAOBHV4a5AnS2wlzgKePSD5swmVFdwIRTXO7UOCvmChEQAREQARE4FgC4dgB1H90AhEjrkcfVQMOIcBrh9+GdMysTwW9ud2not6zzDh3kZvbNUkXTzm2Weco+gXNHh/GesFulm+toTpmqdyOaG/3+PaRDftWal1SApwDj+cfTxAjFtqnP/T6HQFy2X23xucfnrdvnzMmV70I5P6ACc3WvRyrsQiIgAiIwNgEIgaskb8gI9JT1DDDXzO5RC6Qim4ErtGs7dbURCvObWVCiUS8RED74Et09J4IiIAIiMA+AvyCOe57Q+tmIcBzxN0sldMWrdOWO7ra2dEj2BsgQtLanqwiFXGfbx05D/DCVNgloIfLjp+bu+OHMD/CwrxC/wIr5xZ1LHp5gkt48Jy/0KNjzcvbgd7NmMBrD5i08MYLAcuhJ8ctz460iYAIlESAF6AnyAtkRHqKBma+IGukohsBbgfWzyG+dcKHiBS2CeiizPb8SJ0IiIAIWCMQIWhtTVThenhuWMLN5NzuU+Wmt8tupC91ulBK1+ZTulJJKp0lqaIiQwis0SkO6ag+3xFo8VdO93O+E68/siHg/T5cm81MzCP0bp6ySasuUE3nDEmRq1hKAq89YEItm5SCBtSq0Ic7qkIEREAERMAGgTVknCJvbcgZTUXASDfILZLLipcJRLyd0xcIFfQyFSIgAiIgAiIgAj4IeDsX9TEr//nPNYzsvJg54GN5YL3V1ZVVYQN1RfRbD+yrbtMQaKcZdrZR38xWWYVfI6DP/tcIdX/f24NhPzrX90k/Ekn7N8+VQtqSSau1qBaTVsyv2AaS2/xk91Z83ruHOohAJgS6PGDyOQMvdQYaJVEEREAESiIQYbZGniDvkJ4iwAwfMuHDJlxWHCZwjbfi4bfNvXNmTpEEfUtg9+0fWhYBERABERCBVwisX3lfb89DgJ/nOT2EPITSAp2qIR1n6EOd1OspvG9fOc7VBqK573uJMy9GnPngdtY68zSnHfL0HAvP5jLw9j4DjcdIvD2mc0F9vT/IxqmskDrekITCHYEuD5i0Gbj2+HOeGWCXRBEQARF4lUBEi1+QF0gue4oaZr4gLz2ZGtnLDuP9OvKYUw7Hp8p10j8l4ePG5vakEAEREAEREIEuBNZoFLs0VJtZCFzPUjVt0SptucHVeP7rLe68GXLix9OXSLxmDE7mxZON3zyZMeBFx1IDk+BYQuXY2w7e1o79jWmNnMjLe6y8G5S/Mgl0fcDE+k5eYfoWZU7hM9d/PFtjZ4UeBLIzF1IiAqkJrFHwBHmFjEgvwc+eBrlF1kjFcwJ3WNU+X21yDeezNqlMokRABERABHIgEHMQWYhGfclke6J3kMdzRM/xNhNzVSY6u8pco2Hs2ljtkhLYJK02fbFq+hKq0JNA27O9mr9MIOJtfl4rRGBsAjUGDGMPamg87+e4Y6LmMcbTA6iH2Hj/xZ5DvrXeOYEuD5gQQQ4XASvnc9XVXuzacIZ2nCP+3/5hhtoqKQIiYINAAxmnyFsbckZTETDSDfIeyWXF9wSuvv/T9F96GNL09EicCIiACIiACLxKgPcvcriH8aoR5w28PwRUYf4WxucwQB/TU3i7zvQ0N96Oy0tPk+PASwsP0YEPaxZaa4KkxwWBcxcuDpvQuchhNvveWe9b6WwdrwkqZ55kRwT+0/UBkxyeItNTYA8btPULNl6AbZH8IjYgFSIgAuURiLBcI0+Q1o9ZkNgrKrTmMe4DkiePigcCLV6YOUQFkSEHodIoAiIgAiIgAiKwl4D3Bxf2ms5wZQvNMUPdfSTz/oflqCyLG6Atok87oJ+6pCHg7dr/bRpsqtKRgL7Q7QiqZ7M/erZXcxF4jUBAg+q1Rhm/H6G9zVj/HNLJazdH4cQ1zxLXUzkRmJxA1wdM7iZXcnyBBYaojh8m+xHaTBzU0HmPvMxEr2SKgAiMTyBiyJ+RF0gue4oVzOgXm76f0V+//9P0X7VpdRLnmQDPZxUiIAIiIALHEWiP667eCQl4/0KwSshySClvv9znfXsaMseW+uwgJloSdKSWcGR/dR+XQDvucBrtkcBGJERgZALVyONZG04Pug+bkRK4nQON7vkN2z7UyyiBrg+YROhnWg89rPDwtF9rfaIe9QW8NsgtskYqREAEyiSwhu0T5JUz+wF+7pFLZ76G2uGNiVxu+vKkXyECcxDQxeYc1FUzFYGQqpDqFE2ghftYNIG8zF/nJbe32re9e6Tt4O06ZZ0Wn6oNILAb0MdqF563e9uHrLJ+TdcGDeJrjfT+IALtoF7qJAKHCVwefsvFO3cuXKQ3cZ2+ZPKKC1Ssk1dVQRGYkEDXB0wo4dOEOsYausJA3FFLjxzm6ts5CvjjBvkRyWWFCIhAmQQa2OaDJrk8hNBllgIa3SOXXRoX0KbJxGOAzioTrSXJjCWZlVcREIEsCcQsVfsS7ek80tfM7Hezw+p2/1su1lq+BqC24ILyg4kNXqIjP16t/O7MmOV93BnqF+1w/1dMQyBOM6xGLZRABd/BsfcW3qJjf1Na22HwdsoCRsb29uuBRrBKxlwE+jxgcjeXyJ51Vz3be2y+hikelHOLMwjeIvmwSUAqREAEyiMQYblG/oyMSA+xgAk9QPcwkxEvdw+L5v/LzySFCKQmwOOFQgREQAREYDiBdnhX9ZyJQG7/g0wfTPxcD306JGy7TFgrRanbFEVU42gC8egRbA3gbT+yRbe7Gs+fI90pTNcyTje0Ri6MwLlzvzoXOW6CS+BXAVE4DpN6i4AdAn0eMGkhe2dH+kEl7/EOL+JLDs7TbxkDqKGd/8c/XxUiIAJlEtjA9gnyAhmRuUeAAT48p8jn88n7hW+O22IO56HHcv3vsQOovwgYJhAMa5M0HwRa2Ig+rBTlYu3cbWXU31ujuobKaod2VL+kBLydz79JSk/FDhGIh97Q+lEIiO8oGDUICJw5psDPtzvH/lJYIz9y9B61d4PyVw6BPg+YkEoOT5EtoLOm2MKjgf+YMYMA7fwydos8Q1qLYE2Q9IiAUwJr+DpF5vzQ3NPUVFhYPf1R8GsL70zrwfOJyrrIwvT9VZhf2RUBbwRKeIBKx6l5t9rP85ZX9YEEdujXDuybQ7elUZFWdQ3BFdFpM6Sj+iQnwP3dU3jaj3KdF25T2v+nnb0/ph1eoxdCoIbPhWOvd/DG45FiOAHyy+H75+EOH3ryBxIUIuCCQN8HTHigzCG0kz7M0kUOk/WKxoD3PyL5sAmXFSIgAuURiLC8Qp4gcz/RvISHBbL0uMoEwFkmOiXTD4Hgx4qciMAzAiV8/v35zLVWpCTQpiymWqMS+DzqaLYGe2NLzj9qeDxeGtQ1VFI7tKP6JScQk1ectiD3pRLOb6aleNzom+O6q3cHArsObdREBF4jcP5ag8zfz/1+tRX8d1aETKiD5w3VhONraBFIRqDvAyYtlOVwUhGg8wxZerQA8KsTCDV88NdM+OVsQCpEQATKIxBhuUZeICMyx+BJ5CpH4SNrbjEe03q8sy6wMH2xAL+hAI+yKAKeCegXTOad3Xbe8qp+BAHPc7c8gstUXS1qOsbrp2M6q68IHEkgHNlf3Y8jEI/rrt4dCIhxB0hq8iKBgHerF1vk/WaE/DZvC2bUk+PGjJrphLyfbmiNLALpCPzfgFJ8Gi+HHYAa7wb489blGoYWSD6Y4SEamKiRV8g1UiECIlAegTUsM1dIHusDMqegZh6bdzmJnkArbwRXE4w75pABgy2RmzEH1VgiIAIiUCiBUIDv0j/b55zids7iqn00Ac4f95/F0SPZG4CeAjIircTSipCRdESME0YaS8NMS8DjPs79aTMtNo3+AoE/XnhPb41DYDfOMBqlYAK1c++3zv2ltsf7xfxs9RwVzC2QOr56nuUCvA15wOQOXHJ4wKSCTmaLLD2aRwBeHjIJ8HODpJ9TZEQqREAEyiNwDcv8TGqQ58hcYgGhFZLaS441zPM4Th6W4wziNpYFFqQtFuA1FOBRFsslUML2vSt3emd3/vvsCiTgWAI836qOHcRo/yV0RUPa3hrSMoaUL2MMojFEYCCBMLCfuo1DQNfq43B8aRSd375ER+91IZDTPdsufn5ss/5xhf4+isA1evN+sedYwFyNpFeFCGRL4P8NUN6iTy4nFjcD/Hnt0sDYlTNzAX62SM4zlxUiIALlEYiwXCNPkC0yl3iXi9AJdfJc4nbC8cca+u1YA2kcEehIgBeaChHwRqCU7TqX62Rv2xf9tB5NFebJ8z9zEozNpTU9xvBIjgj0IvBTr9ZqPDYBnXuNTfT5eGL8nInWdCdQoWno3jy7li0Ux+xU2xbMY05rW+Io6vTdwCgYNcicBIY8YEK9v80pukftgLZ1j/bemzYwyC9hI9JT1DDDB00uPZmSFxEQgV4EIlqfIi+QXLYelXWBifTdJapzTJkKnRfHDKC+oxGIo41keyBtb7bnR+qGEShlu47D8KjXCAQ2I4yhIeYl4HkO38yL9ln15bM1WiECIjCUgPanoeTG6RfHGUajiIAITETgfKJxrQx7a0WIMx1Xzvzss1NhJVMhAtkSGPqAyTojx3zoYJGR3qmlRhQ4QebyJWwfHg0a80GTGqkQAREok8AatnmM44noDmk1AoTps+nhifTW6iR9o6v6ZlmL8xGI85VOWjkkraZiIpCGQEhTZvYqls89ZoczoQByjxOOr6HTENikKTNLleUsVfcXtaRlv0KtFYG8CCzykutO7c6dI3uGoj1JUpQJAR4f60y0DpV5N7Sj+r1IYIN3Szi+Vy9S0JsiYJzA0AdMIny1xr09yQtYWD39odevBNZYOkXefl3jYyHAxg2S/wYvlxUiIAJlEmhg+2ek5ZPRAH2K//wnh59DrzRRIpCQQEhYS6VEIBWBRapCM9exfN4xM5pJy28mHV2DpyLA/cfrXIZUEDvUsaSlg1w1EQHzBIJ5hb4F6tzL9/zKXd4EzvKW/6r6NVroGPQqpkENyNXb95b7QLzft1LrRCAXAkMfMKG/HL4QepoH7qiLpz/0+pVAxFKNPEHeIT3FEmb4ayZ82CQgFSIgAuURiLC8MWw7GNaWUto6ZbGBtd4N7Kdu4xKI4w5ndrRgVpmEicBwAjw3LyFiCSYNevzdoCZJGkbA61wugINpIUo5HltgLQ3lEAjlWJVTERABEehM4LxzyzwblvAAxJwzczdn8US1eX1QJaqlMiIwOoFjHjBZQ81udEXTDMgd9XKaoV2MGuHiF+QFksueooaZe+TKkyl5EQERcEGAn02Kh3OJ1jiIAH1MxfwE4vwSJlfw0+QVVEAE0hMo4TNvlx6rKj4SiCLhhsDGjZPnRsLzVbOseTNLVRUVAd8ESjjP8T2DcicCIjA2gYABq7EHNTRehJbWkB6PUsiX6T30vbX3GXbs75gHTHgD7beM2KygtcpI7xxS1yh6grxCcn69RICRD8gtskYqREAEREAEbBG4tSVnr5pq71qtTE3A0/nJIXb/O/SG1otAxgRK+EIzZjw/uUvf5G5A+r8S8DyXy68u511YzFte1UXAJYHg0pV9U9G+RCkUgWIJeP/S/FOxM5vWeAmcKyDV+Xna7UrVRiJwzAMmlLAeSUeqYbx/sI3FscFAPyNz+MKvj+eAxjePyWWFCIiACIiADQJ3kLGzIeWgiuXBd/RGSgIxZbGZapXwRfxMaFV2RgIl3DCx/jk24/RPXlrsJ0ecrMAmWaX0hawcB5fprauiCLgnYGX/dg9aBkVABLIhUGWjdJjQ62Hd1KsngTXa73r2ybF5naNoaRaBYx8wiUDYZoSxgtZVRnrnlBpRvEbyF00i0lPUMMNfM+GvmgSkQgREQAREYF4CvFjYzCvh1ervXm2hBikI/JGiyMw1wsz1VV4EpiCwnGJQY2NGY3pKkmP9HKKkuTjWK88JmR4jGDG1MKJDMkTAE4HgyYy8iIAIiMCRBCr0D0eOYbl7C3HRskBH2nhdsHHk55AV3XM+REbrTRM49gETmrsy7fC5OP6KSXi+WmsOEIhYf4K8QHLZU6xg5h5ZezIlLyIgAiKQKQHrP3sYwFU35OffuOL8EpIoCEmqqIgIpCEQ0pSZvcofsysoUwBvOip8EYi+7Hx189+vS/MtLOcrrcoiIAIiIAIiIAKFEDh37vPWuT9r9q6sCZpAT4UxmQoRyIrAGA+YtHDMzCX45dBNLmIN6VxDC//ZHG8H9ABP3B62yAqpEAEREAERmIfAep6yvarqpnwvXJM0LuWLRG1rk2w+GnQmAmGmuqnLblIXVL1/CERxcEfgd3eOHgxZ+GxfOGUrWyIwN4Gf5hag+iIgAiJghECAjtqIlqlktFMNrHH3EiDv3d53fK0882VHbkogMMYDJuSU21N7FTSvKFzRiwAP5A3yBJnbnEPyixHw7j2SD5twWSECIiACIpCWAD9j2rQle1db9u6hDmMT2Iw9oNHxglFdkiUCQwiUcuzk55giPQFxT8986opx6gIzjb+Yqe63ZcO3f2hZBERABERABERABEYmUI08nrXh1hAUrYkqQM9vBXg8h0cL1wsFoJbFsQiM9YDJGoJyu7FzCc0BqehPIKJLjTxFRqSnqGFmi+T2oQM6IChEQAREICGBzwlrDSlVDemkPqMSiKOOZnewN3alSZkI9CYQevfIs0PMU3b2qsU9+yl8ZsDrnIZnTtOvsKAhvWtVFIHpCYTpS6iCCIiACGRB4H0WKoeLvB3eVT2PIHB3RN9cuvK7yGUuYqVTBEhgrAdMOFZuT5Fxh72hcMVgAi16niAvkBHpKRqY+YKskQoREAEREIE0BNo0ZQZX0Zf+g9GN1nGHkZjeQxeV3me4LH+lHDtjWdNqxu1fZpRIyFgE4lgDGRyH96HmjLnrz+ldtUVABERABERABKYlwPsYnu9lRPhrkYr0BDYo2aYvm7wi/6d3hQhkQ2DMB0yu4XqXjfMHoRVeVplptih3DVGnyNweMnqNZUADPoS0RXJZIQIiIAIiMC0BXjBYPpcI0LeYFoFG70AgdmiTe5OQuwHpF4FvCCy/Wfa6yM8vxTwELJ83zEMk/6oxfwsHHcx9Hjl3/YNg9IYIZE5A+1bmEyj5IiACoxDw/usl7SiUNMhQAp+GdsyoXwWtOqfIaMJKlzrmAyY7wMzxAYMP0F2VviGM4D9ijBWSv2hyi/QUAWb4kAkfNuGyQgREQAREYBoCPJfYTDP0aKNWo42kgYYS+H1ox4z6LaA1ZKRXUkXgEIEl3uD27D3+8G5Q/kQgIYFdwlqpS819PPwptWHVE4FCCMy9bxeCWTZFQASME6iM6ztW3tWxA6j/UQTW6O35OuEJzuppQa8iYJ3AmA+Y0Os1MsednA8OLGhAcTSBiBFq5AUyIj1FDTNfkJeeTMmLCIiACBgj8NmYnh/lhB9X6O/kBGLyivMUrOYpq6oiMCqBMOpodgfb2JXmXll077A8gzneU+o6S7rv1JWU2omACIiACIiACORE4AxiQ06Ce2pt0T727KPm4xLgNcLtuEOaHO2dSVUSJQJ7CIz9gAl38hx/xSRA98c9fLRqOIE1up4gf0VGpJfgDaEGee7FkHyIgAiIgDECrTE9P8p58+MK/Z2cQExecZ6Cy3nKqqoIjEqglO14Myo1DSYCIhCdIggz+5q7/sz2VV4EREAEREAERGAiAt6/KynhwYaJNo1Rh70bdTSbg/EeSmVTmlSJwPcExn7AhKNfI3ffl8nirwoq9csU408Vt4dTpD6Ex2erEUVABETAI4GNcVNL4/pKkGd9GxlrDvQw01gkNc6cBN7OWTxh7V3CWiolAiIgAkMJLIZ2VD8REAEREAEREAEROEAgYP3Zgfe8rG69GMncB+ehhGtv7/tT5puh5D8RmOIBE+7gV08FMnttoNf705ZzTElE0Rp5gtwgFSIgAiIgAiJwiADPI+KhNw2sDwY0lC4hFgJgWYhP2fRNoJTtWNc4vrdjuUtPIKYvmaTiIkmVw0Xmrn9Ymd4RAREQAREQARHIlUCVq/COutdoFzu2VbPpCeT4L2j0pcLvqHXe3pea2icnMMUDJjRxjYxcyDCofZmh7hwkR4j8GXmB5LJCBERABERABPYR+LxvpZF1PMFnKuYjsEPpOF/5ZJW5nS2TVVMhERifALdfbsfeYwODO+8m5U8EEhPwuk+VcExMvKmonAiYIBBMqJAIERABEZiHgPd/FeDTPFhV9QCB6wPrPa3mNcOZJ0Py4pPA/01o61eM/XHC8acamjsvdZ8iI1IxPoE1hmQ2SO8nILCoEAEREAER6Elgg/aWf1EsQB81KuYjQP5hvvLJKleopG0tGW4VGpnAcuTxrA73h1Vh0iUCGRP4K2PtVqUvrAqTLhEQAREQAREQgWwJ8JovZKu+m/D3aMZUiEBKArwvvk5ZULVEoC+BKR8wuYOYFlkhc4sAwU8PmexyE5+R3gZa10i+Wv4iEfIUIiACIiACCQlsEtYaUooX0NY1DvGVU5/PEHuWk+CBWt8M7KduImCBwFsLIhJo0OdBAsgqIQIicDSBxdEjaAAREAEREAEREAER+J5ACQ9eVN9b1l8ikIRAhSo8f98lqaYiIjCAwFT/RM6TlKunhQxfl9DMh0wU0xKIGL5G8p/OiUiFCIiACIiACGyMIwjG9ZUgL5ZgEh6rQnzKpk8CpWy/1j+zfG5dciUCeRJY5ClbqkVABERABERABERgL4Fq71qtFAERGIPAaoxBNIYITEVg6gdMWgi/nUp8gnEr1LhJUEclHv5P8BOAuEBGAREBERABESiawA7umVbjJ6vCCtK1KcRrgE+mQgRyIxAgmFlCxBJMyqMIJCZg+TzwGBT/Paaz+oqACIiACIiACIiAIQI1tARDeiRFBLwRKOEXgrzNWVF+pn7AhDBXyJxvDtTQf4lUpCGwRplT5FWacqoiAiIgAiJglIDlBwj+Z5RZSbIizOZ8ftlnrs76NFZbETBCoDKiY2oZPA5Z/rya2r/GF4GpCJTyGT8VP40rAiIgAiIgAiIgAlMTOJ+6gMYXgcIJLOC/KpyB7BsmkOIBE94Y+M0wgy7SGjTSQyZdSI3TJmKYBnmCvEUqREAEREAEyiPwh2HLbwxrK0laW4hZbW+FTLQzm2+d+TlkRw+XHCKj9SIgAiIgAiIgAiIgAiIgAl4JBBirvJqTLxEwREAPchmaDEn5nkCKB0xYsUHmfvONHvSQCSAkjIhaNfIXZEQqREAEREAEyiFg+bxhUc40mHb6u2l144k7G28ojSQCyQhUySrNW+jzvOVVXQREQAREQAREQAREQAREQASSE9B9iuTIVbBQAtzXdB+60Mm3bjvVAybk8Kt1GB30NWijh0w6gBq5yR3G46+ZXCAjUiECIiACIuCfwM6wRZ3Y25ic1oaMyVVwe6smr6ICIjAegSWGCuMNZ3qk1rQ6iRMBERABERABERABERABERCB8Qm8H39IjSgCIrCHAO8J1nvWa5UIzE4g5QMmLdzm/k/lcMIapB4yIYn0sUbJU+Rt+tKqKAIiIAIikJjAJnG9vuVC3w5qPzoB69vImIarMQfTWCIwMYGzice3NHxJxyFL3KVFBERABERABERABERABERgHgIVyoZ5SquqCBRJ4F2RrmXaPIGUD5gQRoOMyNyjgQE9ZDLPLEaUrZEnyDukQgREQAREwCeBnXFbC+P6SpDHbSSWYBQe3xbiUzZ9ECjl5scG02X9s8rHFiUXJRLQeVaJsy7PIiACIiACIiACORA4z0GkNIqAIwIVvCwd+ZEVJwRSP2DCG3AXTtg18HHjxEuONiJE/4Lk9sRlhQiIgAiIgC8C0bgdffFhY4I+2ZAxuYoKFcLkVVRABI4nEDBEKTc+Nsfj0ggiIAIHCHg9z/rrgF+tFgEREAEREAEREIEcCPAc7SwHodIoAs4IaL9zNqEe7KR+wITMWqSHfyqHXmrkF6TXmx+wZj7WUMhfM7lC7pAeQ9uXx1nt50nbQD9eau2HQDRsJRjWVpK0TUFmzwryKqv5Eqjyld5b+efePdRBBESgdAK70gHIvwiIgAiIgAiIQNYEeF9ikbUDiReBPAm8z1O2VHsmMMcDJuTZICPSQyxhgg+ZBA9mMvbQQPvPyNuMPRySzm2Mv5YTDjXQetcEeOL+0bVDmRMBERCB4QTa4V2z6/kuO8USXCKBkn4uuS1xguVZBEQgWwK7bJVLuAiIgAiIgAiIgBUCJV3vWWEuHSJAAgtkxQWFCFghMNcDJrywvbACYQQdAWPcI/mqmI9AROkaeYKMSE9Rw8wWeYkMSIV/AhUs8rjCh0sCUiECJRKIhk0Hw9pKkhZhlllCVDDJC0qFCFglECCssipuZF0R4zEVIiAC0xD4aZphix5VD5gUPf0yLwIiIAIiIAJHEwgYoTp6FA0gAiIwlMD7oR3VTwSmIDDXAyb00iK9/FM59BOQX5ArpGJeAhHl+ZDJBZLLnqKBGT50UCMVPgnwy8MPSM5zhVSIQMkEdCO85Nnv7v1T96bZt6yzdyADnglUns394K394W/9KQIiIAJdCOjctgsltREBERABERABEbBIQN97WZwVaSqJQAWz/O5IIQImCMz5gAkBNMiI9BLcufnF8KUXQ5n7WEM//9mcq8x9/Cg/YMUNcotcIhV+CPDYwXnVCbufOZWT4wj8dVx39S6EwKYQn7T5riCvspofgfP8JA9W/HlwT3UUARHoQoD3VjzGbmZTc9ef2b7Ki4AIiIAIiIAIHEFA9yOOgKeuIjACAV4j1SOMoyFEYBQCcz9gwovbX5DeLnIbePqCDEjFvAS4bTXIE+Qt0lMEmOF2doPksiJfAhWk88GSBskTBYUIiIB9Aj/Zl1iMwrtinD78slVVkF9ZzYdAgNQqH7lHK22PHkEDiIAIvETA6zUR70/MGXPXn9O7aouACIiACIiACAwnUKFrGN5dPUVABEYioAe9RgKpYY4nMPcDJnSwQV4db8XcCEsoukdW5pSVKSjCdo08RUakp6hhhg8nXHoyVYiXAJ88TjC5rBABEfieQPz+T/0lAnsJ8MuSdu87PldWPm3JVeYESjoP5fVrzHy+JF8ErBMI1gUO1Mdzljlj7vpzeldtERABERABERCB4QTOh3dVTxEQgREJVBiLqRCB2Qn83+wKHgRc42WJ9PZBFeCJXxw3SI8P0cBWdtFC8QmyRvJGeEB6iQZGaiS3tTVSYZfAAtK4/a3sSpQyERABEciKwGeorbJSPFzse3RthndXTxGYhEA1yag2B+XxRmGHAM+rFb4IaE6nm8/ddEMnH/kCFdvkVVVQBERABERABMojEGC5Ls+2HIuAWQIVlLVm1UlYMQSsPGBC4Pyi9S0yIL1FA0M18hQZkYr5CawhoUVyu+MXNV4iwMgNkp74z09FpMIWgacvBnXj1Na8SI0IiEDeBFrI54N7JQQ/Pypki1SIgAUCZxARLAhJpOEuUR2V6UZA59TdOOXUKuQktqfW2LP92M3/GHvAGcfjvh9nrK/SIiACIiACIlAKgaoUo/IpApkQePp+KRO5kumVwP8zZGwHLXwAg68eI8DUF+TKo7lMPcXH+TjB622mHg7JXuKNLZIPmwSkYn4CFSTcI6+RC6RCBERABERgPAIthtqNN5z5kUp5mMb8REjgPwTOC+LA40xbkN8crOq8OodZ6qfR85zGfihGb+3pXCmMTkcDioAIiIAIiIAI7CNQ0vXePv9aJwLWCPB6qbImSnrKI2DpARPSj8hfueA0uON/QPJL5oBU2CAQIaNGXiAj0lPUMMPtbeXJVGZeAvRyDpgVUiECIiACIjANgU/TDGty1AqqliaVSVRpBAIMnxVk+nNBXnOx+t9chEpnZwKhc0s17Etg17eD4fba9w1PjqSJgAiIgAi4IRDgpHLjRkZEwA+BSz9W5CRXAtYeMCHHNfKKC46jgrctUgcBW5O8hpwTJB9yikgvEWCEDzZxm6uRijQEFijDffwLskIqREAEREAEpiXQTju8udFL+lLfHHwJ+kqgtOuZu6/OtWCFwP+sCJGO0QiE0UayNVA0IMeChrEwLMcaSOOIgAiIgAiIgAgcJFDa9d5BEHpDBIwRqKCH3z8pRGA2AhYfMCGMBlnCzTv65Jf+ujAGBENxDS2nyFtDmsaQEjDIzWNyWTEdgRpDc99ukPqgBwSFCIiACCQgwHPHXYI6Vkq8hxB9xliZjTJ1cPurCrPO44zCFoGfbMmRmhEIvBlhDItDRAOiPJ0nBQM8JUEEREAEREAEvBOovBuUPxHImMAqY+2S7oCA1QdMiPYCGbngPAL88RcO+MU/lxU2CETIqJEnyA3SU9Qww4cfPiADUjEegQpD3SO5Py+QChEQAREQgXQE+KWJt8/sl+jxc2b1UgO9JwITEzjD+GHiGpaGbyFmZ0mQtPxDgMdChS8CXuf0LwPTtDGgYSwJ3E7CWINpHBEQAREQAREQgWcEzrAmPFurFSIgAlYIvLUiRDrKJGD5AZMdpuQUGQuZmho++aX/ZSF+c7EZIfRn5AWSy55iBTP3yNqTqZm88ObWDZI8K6RCBERABERgHgKf5ik7W1X9isls6FUYBEq7brnVrJskEEyqkqhjCCyP6Wy4bzSgjffZPIXXbcXTHMmLCIiACIhAvgTe5StdykWgCAIVXDIVIjALAcsPmBBIRP6C9HYRDEsHo8E7W2SNVNghsIaUE+SVHUmjKAkYhQ9GcJurkIp+BBZozi9XtM/246bWItCVQOjacIZ2Fv4v1Blsmy+5Nq9wXIH8HDobd0iNJgKdCNRoFTq19NOo9WPFnZPgzlG5hvi5xvQY0YCpHTQwvUTwYkQ+REAEREAERMAYgQA9tTFNkiMCIvCcwNnzVVojAmkIWH/AhBQ2yF/T4DBTJUAJv/TnP53DZYUdAg2k8EGTWzuSRlESMMo9ktsdlxWvE6jQhPtog1wgFSIgAmUR8HRz3tPMcV5aT4Y6eLns0EZNRGBsAqVtdy0AxrEharzRCCxHG0kDzU3A81zGueE+1reiYwwcb8YYRGOIgAiIgAiIgAg8I1A9W6MVIiACFgmcQ9TCojBp8k8ghwdMOAtr5BUXCgveXNkib5ABqbBBIEJGjfwZGZGeooYZbnOXSH0wAcKe4H55/5hhz/taJQIiMB6Bn8YbSiMVRMDbQ6CvTV1Ag/q1RnpfBEYkUGOsMOJ4OQxV2nElhzn5VqOuW76lkfcyr7W8xs6Isd+N6BhDRjXGIBpDBERABERABETgGYH3z9ZohQiIgEUCvBauLAqTJv8EcnnAhDNh5WJ8jq2iRlF+ob2ao7hqHiSwwTsnyAtkRHqKBmb46xw1UvFAgB/WH5DkUiEVIiACZRMo+bzE+szfQWBp88MHQxUikIpAidtbmwqu6gwisBzUS50sEnhjUdRImjYjjXPsMPHYAQz1D9CyMKRHUkRABERABETAAwGeW+v82sNMykMpBN6XYlQ+bRHI6QGTc1vokqsJqMgvt7fIGqmwQ2ANKafIKzuSRlESMMoNktscl0sOfkiTw6pkCPIuAjMQCDPU7Fpy17Wh2iUnwLlpk1edt2BAeX1GzTsHpVSvYTSUYvbR5xqv8XFZLzYJBJuypGoAgeWAPjl04bkJ00JECyJG1OB1mxkRkYYSAREQAREQgV4E9GV1L1xqLAKzE6igYDG7CgkojkAuD5gEzIwuGh82T7Lgl/5MLitsEIiQ0SBPkLdITxFghg9XlLjNVY/er/GqD2lAUIhAYgKW97tdYhYq14/Ab/2au2h9CReW9xkXkGXin39GsTQMn0oznKHfNxlqluTnBPgZtny+2sWajSEXlrSMgcXrNjMGG40hAiIgAiIgAkMIVEM6qY8IiMCsBFazVlfxIgnk8oBJVeTsvGy6xtv80p+/ahKQChsEImTUyF+QEekpapj5guQXWN4jwOD9Y3JZIQIiMA+BxTxlO1XddWqlRnMRaFG4tDni/rKaC7jqFkGA54ChCKf/moxYvPv3Ty0ZJRCgi8dARd4ElnnLf1H9Xy++m/bNmLbc5NXeTV5BBURABERABESgHAI1rIZy7MqpCLghcO7GiYxkQyCXB0y0cxzepPhFAr8Irw830TszEOCN6BPkBTIivQRv3DbILbJGegv6u0TSX4VUiIAIzEcgzFe6U+Vdp1ZqNCeBEn/F5D2A87NMIQJjEwgYsB570AzGazPQKIkPBCqByJ6A5zlsDc0Oz2GjIT3HSlkeO4D6i4AIiIAIiIAIfCWgBze/otCCCGRFIEBtlZViic2eQA4PmPAmeZU96WkNBAx/g+SX4rq4BgRDsYaWU+StIU1jSAkYhNvcRySXPQS/lOM+1HgwIw8i4IBAMO4hGtcneWX+6gDPmz9o8kVgAgKXGDNMMK71Ia+sC5S+rwSqr0tayJXA21yFd9C96dAmZRNreo7xznOf6pgB1FcEREAEREAEROAfAgH/PRMLERCBbAlo/8126vIUnsMDJlWeaGdRHVD1C5Jf/HNZYYNAhIwaeYK8Q3oKfmjxoYyct7kK+u+R18gFUiECImCDQLAh46CK3cF39IYVAhsIaa2ISaijRq0qYT2V8k8gwGLt3+Yzhy3WxGdrtcIqgTdWhUlXZwLLzi3za2jtvPFzfghfVFy9+K7eFAEREAEREAER6EKg6tJIbURABMwSOIeyhVl1EuaOQA4PmLxzR316QzVK8Ev/y+lLqUIPAhFtf0FeILnsKWqY4UMafM0lAoR+RFJ3hVSIgAjYIhBsyflOTfzuL/1hmUCJ/0wO5+OD5UmRtuwI8FypxLgt0XTGnj0/nJDxtHSWXqGl15uhfLhk05lEmoYxTZlkVd4mq6RCIiACIiACIuCXwKVfa3ImAkUQ4PVUXYRTmTRBIIcHTCoTpPIU0UD2FlkjFXYIrCGFv2ZyheTNJi8RYOQGyW3uDGk1+EHLE+YvSMs6rfKTLhFIReBNqkID6sQBfdRlHgItynr6rO1KcYmGq66N1U4EXiDwHu+FF973+laEsbVXc059LeCrcuqtBFtnjk1uDHprDWo6RlKFzjwGKERABERABERABIYRqNAtDOuqXiIgAoYIvDOkRVKcE7D+gEkAf6ZiOIGArvzSn1+mc1lhh0ADKT8jb+1IGkVJwCgfkdzuuGwpeOOS+0KD1A0oQFCIgGEClvfRvwxzk7TvCezwZ6m/YsKHKcP3OPSXCPQiENC66dXDT+PWj5WinFRFufVl9q0vO9+5+f27v2z8wfOjaEPKaCrq0UbSQCIgAiIgAiJQHoHz8izLsQi4JFDBleV76i6hl2rK+gMm3BkU4xBYYpgt8gYZkAobBCJk1MgTZER6ihpmuM1dIgNyzqhQ/B7JB18CUiECImCfAD+3rEa0Kky69hK43rvW/0peUPK8TyECQwlw++F2VGJclWjagee3DjyUaCHAtOXzvmPnpD12gIn6f55o3LmGfTdXYdUVAREQAREQAQcEKgceZEEEROCBwEogRCAFAesPmOgG0fhbQY0h75GX4w+tEY8gENH3BHmB5LKnaGCG21yNTB38UuQDkvUrpEIERCAPAvySgfuv1YhWhUnXXgI7rG33vuN/ZQWLK/825XACAu8xZjXBuDkMuYbImINQaXxGoMIay+cPzwRrxT8EKuccolF/G6O6hsqq0FH7/1B66icCIiACIlAygRrmQ8kA5F0EnBHg/RyFCExOwPoDJtXkBMosEGC7QW6RNVJhh8AaUvjP5lzZkTSKkoBRbpDc5pbIFHGJIqy3SlFMNURABEYlEEYdbfzBvN2QH5+QvRG9fa72IczPw9Cng9oWT4DbS1MwhduCvXuwXnswUZiHc8d+d/Bm9byxdci9duhJlkRABERABERgagKez8WmZqfxRcAigQVEVRaFSZMvApYfMAlAzVRMRyBg6BvkRySXFTYI8CZUgzxBervBHeDpC5LbHZeniAqDbpENkh+mChEQgfwILI1L5nFakReBFnKZJQY/C3mup8/EEmd/mOf7greXCO8tUpEvgXf5Si9SeYDryrHzjWFv1LYzrG+INO3/Q6ipjwiIgAiIQMkEAsxXJQOQdxFwSuDcqS/ZMkTA8gMmS0OcvEs5g0F+IX+DDEiFDQIRMmrkKTIiPUUNM9zmLkc0FTDW/WNy2VN4e9DI09zIyzQE3kwz7Gij8oa8Ij8CV/lJHk0xz6vH/MwdTZgGMkeA20kwpyqdoJKPE+koT1upwvCLaUto9BEJ1COOZXGozxZFfaPJ2zltBW9MhQiIgAiIgAiIQDcCZ92aqZUIiEBmBLhv67o4s0nLTa7lB0yq3GA60FvDA7+g56vCDoEWUk6QF8iI9BQNzGyRNXJo8IPyA5LjVEhP0cIM/8mkBqkQgZIILA2b3RjWJmkvE2jxdny5iet3V3B37tqhzB1LoMYAzbGDZNw/Qvs6Y/2S/i8BHu8UeRDw/rnUGp+GT8b1DZF3NqST+oiACIiACIhAoQTeF+pbtkXAO4EFDNbeTcrfvAQsP2Bi/f9ennfmpqseMPQN0uOX9dNRSzPyGmVOkb+lKZesSkAlbnNfkFzuEzwJ5rbq7SZyhCfONXODVIhASQQCzDKtxh9WhUlXJwLePkM7mf6m0TWWwzd/a1EEnggELFw+/VHo61Whvj3afuvRlENPFTwFh76+tdR++4fBZev6hiA7RyfeUFfkR6CC5GV+sqVYBERABLIlUEF5yFa9hIuACLxG4N1rDfS+CBxDwPIDJrqoOGZmj+8bMMQ98gbJZYUNAhEyVsgT5C3SU3Cf3yK7bHMV2vGBlGvkAukldjByheSvlrRIhQiUSIDHAsuxsSxO2l4lsEYLHmtLjQWM8/yOrwoReCLwtF2EpxUFvkZ4Xhfo26vlCsaYCtsEzm3LO1pde/QI0w+wQYnd9GWSVuBn2ippRRUbi8AHDMT7PMwaGZAKERABERCB6Qh4PxebjpxGFoE8CFSQucxDqlTmSMDqAybc6HlRqJifQA0JW+QlUnMCCEYiQkeNvEBGpKeoYeYeudpjKjy+x/d5nPAUa5g5QTbIHVIhAqUSqIwb3xjXJ3kvE+DxtfRfMQlgcPMyJr1bGAFuD6Ewzz/avfpxhf7OnsD77B34NhBgr/Zt8T+fM/H3KROdfWRq/+9Dy0bbABlP93j4ynOT7ePrGV4VIiACIiAC4xJYYDgdX8dlqtFEwCIB7ecWZ8WJJqsPmAQnfD3ZaGDm6f8i8OQrdy9rGOBDCb8iI9JLBBj5gOQNhRrJk95LJLfBCukpWpg5RV4gd0iFCJRO4K1xANG4Psl7ncA1mpR+vD0DA36uKkSA2wG3h5Ijwvy6ZABOvXO7Xjj15sFWCZ9BbSYTlYvOPji579d9Oqjt7AQOnYtwHj8it8gbZEAqREAEREAEjiegc+XjGWoEEciBwPscREpjngSsPmCyzBOne9UBDnlBxws7LivsELiGFD6kcGtH0ihKAkZ52uYaLC+QXmIHIxdIzluLVIiACDx8tlg/B9hoorInwONv6b9iwklskCsuKIolcAnnTbHu/zV+9e+ilpwR0DHO5oQGyDqzKW00VTzXaEcbbdqB7jA89XoLfsYp8iHw2pcfAVZqJO9H3j8uB7wqREAEREAEhhE4H9ZNvURABDIjsIDeKjPNkpsJgf8zqvOtUV2S9UAg4IUXdWskb8hGpGJ+AhESamSD5P/hsUR6CX4QegnevOMXm9dILitEQAT+JbD8d9HkUmtSlUQNIcBjMG+ohCGdHfX5AC9/Im8deZKVbgS4/TfdmrpuFeFu7dph2eb4haXOue1tAzz+LOzJGlXR51FHm3awHYbfIKtpyyQfPaBijVwjFbYJVJAXekhkeyZjjeR5bItUiIAIiIAIdCMQ0Kzq1jTbViso/ytb9RKekgDvi3m/NrmExzYlVNUSgTkJfEHxv5VZMOCXEjxAKewRqCFpi9S+ZIfBPeYjIPtGQIeU88h6XoLMU7LrU6v2AnlEHzeG54tzez2iVw01P4EaEvrss17b8lxuOf90SEFCApxvzrvXbbqPrzohdyul+vDx0LaxAl46/iEQ8N8t0sO29ZKHGh5zihXEvuQn1/e28LXIaSIK1XozwvbHub5EBqRiP4F7rP7bWXLeFdMTCCjhbduhnwZZalzDuMc5ffLE7xYVItCVgPf9gfsF7/+Uek68hvenY4PX1xt4nCX+3yxVXy+6fL2JWhghwANTg9wia6TCDoE1pJwgr+xIKlbJBs5PHzMWS0HGReB1AtXrTWZtwX1Z4YfAGlaiHzuDnfBc7h65HDyCOuZEgPPM+ea8lx4RANalQyjA/3t41PZuZ6LPISXYkTOZknaykacZeD3NsLOPGqBgNbsKCXiJQMCb9UsNOr4X0K5B8t4kz3NqpI79gKAQAREQgT0E3u1Z52mV/klkT7M5vZe76UvMXoHnRPXsKiTAHQGLD5gs3VEuw1CAzRvkRySXFXYINJBygry1I6kYJTs4/RX5M7JFKkRABA4TqPBWOPy2iXc2JlRIxJgELsYcLOOxeLHJm/E6D894EjtI5/xynjnfCj2EXco2wO39shSzxn0G6GuMaxxDXotB4hgDJRxjh1ptwnopS+khs5S0+9ea4vhcQcYNcvv4yr8VIiACIiACDwQqvISHRbf/bd06k7EpCHB7iVMMbGxM7w+WGcNdhhyLD5iEMtC7dXkGZ08XcZpLO9McIaVG8kGHiFRMT4BPS58gr6cvpQoi4IIAPz8sB2+8bywLlLZBBFr0YioeHjq4B4ilYLgkwHnl/C5cuutvKqLLun839ciUwAq6dWybf/Iu55eQRMGnJFXGL5Kr7tdI8HOvlG3vNRbW3g8QVE8oinPP8Xn+s31cDnhViIAIiEDJBM6dm+f5THTuUfbGJ3A7/pDmRqygiKkQgdEIWHzARDd+RpveWQeqUZ0XcXxV2CGwgRQ+9HCBjEjF+ARaDEnGK+QOqRABEehG4G23ZrO14vFT4ZPAlU9bg1wt0Ivnb8tBvdXJKgHOJ+eV86t4IHAqEMUR+FCcY1uGeRyqbUmaTM3dZCNPO/Aaw++mLTHb6CtUrmarrsKHCFweemOC9QFj3iC3SJ4T1UiFCIiACJRGIMBw7dx0rudhzqfFvL1r8wrHEXg2zjAaRQQeCFh8wCQYn5xb4/osyeNcPl3A6eBlaWYe/o9N3ljXl2rjzUvEUGTK5LJCBESgO4GApsvuzWdp6fX/6pwFprGiLfTcGtM0p5wFin9Bns8pQrVHI8B55BcpnFfFA4E1XuLDov5bEIEKXlcF+bVm9aM1QRPp2WDcONHYUw+7QwHq9xq8N7Xwai5DXwGa65l0V6jL7WH7+LrEq0IEREAESiBQOTcZ4W/t3KPsTUOA58HtNEObGvXclBqJyZ6AxQdMfjJMlRfbNfIXZEQquhEIaMYbSryA47LCBoEIGQ3yBKkv1gBhYPAE5Ar5M7JFKkRABPoTOOvfJXkPngMo/BJYwRqP54p/CayxePnvn1rKkMB7aF4jFxlqn0oy93OetynKJMBjmvaH9HNP7iF92Vkq5n5d7fn4yG1Q5zWz7BZ7i1qYC24TNZIPVm8flwNeFSIgAiLglcC5V2OPvlrn/mRvWgK/TTu8idF5LVyZUCIRIjARAZ7Y/20073/w3OBvXoRY1WtV1yWYBaTCFoEzyNH23G9/vgazFDepA+qk3J9Zz0vcw0hKdn1q1V4gj+Bja3ieOKd/juBRQ9gn0EBin324lLaX9qdOCvcQ4LyVso328dnsYVXaqj68PLa9L23CZ/YbUN/jdnTIE/3mHjzvPeTPw/oq9wlyoL+GB8vb0kfo4/0xb3EPQ5a5D9G29TZJRv0Eh9sOt7cGWVIEmB2yn+XUpyppQuV1dAL8jsf7eTD35/vRydkecA15OR3Hhmi9sT0FadUNAZiqD79M/jECVqyRqTR4qbMFsxqpsEeghiTOj5dtbQof9+BTIVNFQKEpfBwak/W8BOfqkM+519deIB/pY2l4jp62EW5HijIIbGHzad71+i8L3mjnxbbCPgHOE+dL2+9zBty/Fc+5lLitrLQhJCHA4xH3u1K2sfskVKcv0jifM26TOqeZfjs6VCGn4wK3lRtkOGQms/U8Rv3tLDlHiukJBJTwtu3rfGBAAABAAElEQVTQT4MsKW5g1uM8PnnaljSZ8joZgWvn+8nT/lLSufC6gDm9mWyPeGVga/9EjvUNO+7hyXU18gS5QSq6EQhoxg2fH/5cVtghsIaUU+StHUlmlEQouUCST4tUiIAIHE/g/fFDTD7Cp8krqIAVAjzGK54TOMOqL8jw/C2tMUSA88N54nwpnhP49fkqrSmUwCV8Lwv1ntI2OYeUBWeudTtz/bHKX481kNFxAnTxXpRiHgI5HRcCENXILZLnV1wOSIUIiIAI5EigylF0D81XPdqqqQgcInB36A1n61fO/MjOTASsPWASZuLQtezmhYYR7/2MvEByWdGNQEAzXqzxAp/LChsEImTUyBNkKR+ssHowdniHJ6rcx9dIhQiIwHgEqvGGmmykdrKRNbA1Apzr36yJMqInQAdvrutC1MiE/CDj/HF+wg/r9ecDgTVedE6rreGJwAILH5F8VUxD4D2GLe3zop0GZfJRd6joxcsheGd44/LQm1o/GYEaI+d6XFhCO+9bbh9fK7wqREAERCAXAvzcC7mIHaizHdhP3UTgWwIt/th8u8Lp8lunvmSrcAIV/P9tOHlB0TUaNLTsxaq2y66A1S4pgRrVtkir282UunjzOSDnjIDiU3r8cWzW8xL3MPKjPyt/114gH+GDDKzMxyEd2yP8qWueBBaQ/Sfy0Dah9Q832MlJMT8BzsMHpLbLwwx4HA9IxQMBbSv/biv32igmIcD7JqVtZzeTkJxv0KqQOTyfD3FxlQMcb5Gejg30w3OwgMwh7iHSE3964RwopicQUMLbtkM/DbKUuIFRj3P45Om+lImUzyQEGlR52rY8v1ZJaM5fZA0JnueR3m7mwmztF0ys36iOPSaqQdsT5G2PPmr6cHK3BYhaMEwRWEMNt+cr5A5ZQrQweYr8BRmRChEQgfEJnI8/5OgjtqOPqAGtE+Dn3K/WRc6sr0b9L8iAVMxHoEJpzsNqPglZVOb5a8xCqUSmJlChIL8cVIxHIGCoj+MNl81It9ko7Sa0RTOm97iGwaV3kwb8LaDhHhkMaBlTAv3wHKxCKkRABETAKoEAYbVVcSPp8nYeNhIWDTOQAM8PS4izEkzK47QErD1gEqa1e9ToO/Rm9omIxjWS/6xGRCq6EQhoxqeuPF6AdiNgt1UDadyePZ+4cT/nF4unyBapEAERmIZAwLDVNEOPOuqnUUfTYLkQWENom4vYmXQG1N0iL2eqX3LZBczzS3GdK7++FazRhKkQgUMEVnhDx7FDdPqtD2he4nEpwneL9BYlnAPz85QPRAVvk2fMD89ZvDKO8LZGKkRABETAKoHKqrCRdPE+/nqksTSMCJAAt6mWC87jHP54LqwQgcEErD1gYnmDjoMpP/y7XSfof4E8ZpwjJGTZtYLqLfIGGZAKGwQCZPxkQ8roKq4wIvfV69FH1oAiIAI/Erj8cYXRv1ujuiRregI8b+OFpeJlAg3e5vna2cvN9O5IBCqM8wW5Gmk8z8NEmOO5nUIEXiPQoEEu5yWveZnr/QUK3yPDXAJmrOv1OLMG0xLOgwJ8lrrtwvrkwWNrPXmV+Qq085VWZREQARHoROB9p1b5NrrLV7qUGybg9fz+W+S8fqu+XaFlEehLQA+YdCc2xoX1GuVOkSUcoLqTfb1ljSa84F+93lQtJiTADx3+nyeciwrpKVqYOUE2yDH2dQyjEAEReIFAwHv1C+9beYv/56aOCVZmI72OiJI6Z+vGPaDZR+QNksuK8QkEDEnGPA/jsuJ1Atx/4+vN1EIE/iHQ4L+XYjGIAK8TSz028TyxHUTNfid6+82+zFEUBoxS6jY8CsADg/CY2hx4z8tqXSt4mUn5EAGfBJawxfQct57NydtsBDaozHNh7+H9ATTv8ze7Pz1g0n0K/ure9MWWEe82yBOkPgABoWMEtOPDDVtkjVSkJcAbA2S/Slt28moRFU4fk8sKERCBNASqNGWOrnJ39AgaIHcC1zCg7aD7LNZoyvMFnjcskIrjCZAjeX5Bnh0/XDEjrOGUqRCBPgQaNOb+puhOIKDpPXLZvYurlndwE105+t7MNf7cfb/K7V8Bzrgt81VxPAEeS5vjhzE9whrqommFEicCIlA6Ae9fHkdMcFv6JMv/JAR4/lvCd7cVfC4mIahBiyBg7QGT/xqm/ufI2iLGq5EXyIhUdCMQ0OzmMbmsmJZAheG3yAbp6cOGJwlXyBNki1SIgAikJcAbjjlEm4NIaZycgM7V+iNu0IUPRNRIxXACvCHo8TxsOJFuPSOa8TxPIQJDCDTolMt5yhB/Y/YJGOweuRxz0MzG8n6s4XVzKb9iwk0vILlN81UxnACPoc3w7tn09L7/ZzMREioCInCQQHXwHR9v3PqwIRdGCdwZ1TW2rNXYA2q8cghYe8BkYRj9WL9g8qPFNVacIH9FRqSiG4EazbbID8iAVIxLIGA43ljxeHOFN8i4zzVIhQiIQHoCNUqG9GV7V2zRI/bupQ4eCfDLlQuPxib2FDD+DZLnazVS0Y0Ar4dqJLldIy1fH0GeydB1lclpyUpUA7UfkQGp2E+gwmqP14r73e5fu8bquP8tV2v5WbRz5ehlMwFv8yHZs5eb6d0DBHiPrjnwnqfVa5iJngzJiwiIgDsCNRwFd66+N7T+/k/9JQKjEmgxGtN7nHs3KH/TEbD2gMl0To8feeoLal60nyJvj5da1AgruOWNrboo19OZXWBo3hDglxoV0lO0MMN9jNvMDqkQARGYh8DlPGV7V9XncW9krju0cMcHFBX9CQR0uUHy3KJGBqTiOQGeg/H4SE7kFZCK/gSu0OWufzf1EIFnBM6w5h4Znr2jFe+BQGzK+aUkXjuXdg7Ez+SPyEukohsBMuNxYdWtefatbrN3IAMiIALeCbxzbrCFv+jco+zNT+DT/BImVxBQoZq8igqIQAICvBj522g2Cfw/lQhYsMzC6hxtwW35BFGvvQnwRuGfSKvzO1QXt4uz3jRsdQiQM9T/kH6s5yXuYWQIgxR9ai+Qe/ig5xRsx6jBm6QKEfiRwBesGGP7KnkMnmvcIANS8XDu+gEgPJ6Dpd7Ot9qgOhFIPS8e6pXyhelrGxDPjW6QHub0WA/3r8Fy9j7nvtTPKW7zwdl8jm1niQG3yGP3q1z6348NMNF41J0L4646t4nYlV4mONx2uI01SK8RYKzrfpRru9rr5MmXKQI8B851H+mj+9oU9XHFrAuYw5txkXUfzdovmHCHtRq7hMIiap0iL5BcVnQjENDsC5I7FJcV3QhUaHaP5AeJ5X0Q8noF99kr5M/Iu1491VgERGAqApdTDTzyuGuMx2OIQgR+JPALVmjb+JFKv78XaF4jt0ief3CZ60oK+l0h6Z/nrlwujQEsjxoRo/H6SSECUxD4gEFvkGGKwTMZs4JOHq9qpKKcXy95musdFnhtXWLUMM3P62WJ5jt4fv/IJ3Ro66XJr16MyIcIiIBbApVbZ/8au/t3UUsiMBkBngO3k41uZ+BzSFnYkSMlIjCMwBbd/jaa9TBLo/RqMMqfSKtsrOq6HIW+30ECrN0jrc7fMbpu4Iv+vESAkWN49O3Lel7iHkb6+k/VvvYCuaMP+k3F9tg6Zx09qVmZBCrYPnYbU//vGfI89wbped/jxXr16FPn9d/P/xj7Qw22im4ExuBd6hhbIF51w+ymFY9dH5Clzvk+3/duZre/kS+FbwuX/ZG57RHgjPvCvn3E87qbjGfU43xtM56PnKQHiPW4Xzc5TUJPrdw3PM7Zk6ebnjzUXASOIVCh89O25/nV63XuuoD50zERk8zYIq3upDUFzhgBtddIq3ys6uI2VSMV/xLgTcJLpMcvN+7hq0J6iwBDKfcx1vMS3CZSsutTq/YCuYMPHne2yD585mpLnQoReI1AgwZzbaPe6/L85COyRgZkzsFjX428QXo877KyLTbgq+hOwMq85axjC9xVd+TZtnwP5Tp2Pf+8L2HuD2209J7zvjuGdu7/NbLkKPnYEDKe+HtoH2MfsDQG90fF9AQCSlia97G0NNOjm6VChapjMbI6Dj0qRCAlgRKuie5TAk1Ya41aVo9lY+m6ScjTdKmt4cmujZAL0GGZ01g7xdjjfAE3sis9agDwuP3wQ57evEaAsbH3iZfGYz0vcQ8jL3md873aC+QOPi4Nz8OP28BNBz9qIgIkcI/8cfvR3+Mz4TncB+QZkg9sWA7qo07qpW5tD9Mz+AjOin4EtF2Ot13eAH3ohz+L1jyObZHaVp4z4JyXHvcAoG2jzH82q8Lcbwue/9z3f4/7LrdHxfQEAkr87TAbePIYPFZ5nK8nT1uPkyZP5gk0UPi0DXp+tX7PbciGsi5g7m6GgPHYhx8QVnfQ2hhw6rHMy+o83oBbQJYWFQzfI63Oy1Bdf8JTg/T44QdbXyNgaSijIf1Yz0vcw8gQBin61F4gv+Ij4P0UPMeqQb0KEehCgJ89W+RY257G6caSD27woYIVskLOdQ7AuqxPHTdIbQvd5m/M7ZzMA1LRj8CYc6CxHrb7G0xB1W8azLXmMa1G8hireT3MIIBP6REAgNfh2k7+3f/JxHNUMHePLHnOuc0HZM7hcQ63OU9IRtoDtHrc/5uM5qCPVO+f0dd9YKitCIxEoMI4Ho+DP3pqRuJlaZg1xPzo09vfN5aAz6lla3iy6znBHKjNm0AN0tsOMbUfbmeXyBKC28gNcmqmc4x/D18BWUIEmEzJmPW8BLeTlOz61Kq9QH7Fx43hOfhxvu5f8aK3ReBHAgErvN/A+XE/sfg354D770dkg1whq8cMeOX5UJ9g+//f3t2juXFl6aLuqm7jeifPCCo4gsryjlegea2izGsJHIEo81oERyBqBAmOQCzveIkagdje9TJqBMr2jqf7LVVmF6VikvmDn713vOt5FoEEAhFrvbEDGYgIIqfkefJFcp3cJC+SPyat89P/bq11MCXFwwVa3IZHqaneH9bJh77nPHwt7u8VVevrpPe1L7+v1e8A8Q+BTW5G2W731UeNjyk5UqzSzGVyX0Y9z2cTh95jxHV51ftK6aT+KXX2vP3eVfumE/+HlLnOxHf1O8rj00NATEtgjwKXmdco29FdfdRnwtFim4bu6neUxy9GW2mP7eeq4ZX96rFNHeF1U5axTY6yQRyrjxpv6+SIMfKBwjpwuxpxpX2mpynPHWu7qOXU8kaJyzRyTLuHLGs9CvJn+jhv2P9T62oJ6+Qzq8tTjxRY5XWfGk8ea9PlKuvrrrTO2lxnn1ovLx65vXpZP+v4U+u9l8fqwNxFctXogKvPiq+Sl8leTFuoc4qX+KfAVe62sF5aq+GHuPT8O6reH14n67hLa7anqucqFiPEZZo4leGhljvKuml9fE0Djp0ak5vkaHGZhg61vbUw3+pPEDiVQH1+amE7OHQNq1MBH2i528z30Gannv/Fgey6m+1lwyt704FmfYi9atjw1BvaXcu/iNmUHCVWaWTEcVAHausX+RJjStN3jd9DPF7LGyUu08ghjPYxz/UoyJ/p46ph/9+uw6pVEHiswFI+aP52u/Fzu79jRl43m8duqF73i8DIY6PF3uozTJ1wXien5KlilQW/Tl4mW3RqvaZN3MSvBVb5sfX1dsr6ruJzkTxPth5nKXCVvEzWe9Yp3Vpc9jomI0St3xZ9n1LT1QgrpoMepgHHTo27TXKkmNLMU7anHl67HmmF6aU7gdpfWsJ+Un12HSm2aaaH97en1HhxqhX2+1Mt2HIPIvA+c32WfJmck+J+AutMdpX8Ljkle406cHF5k1OvTdxR9/d5vMb22zue9zABAu0JvE5JU3tl3VlR/Q4VBB4rUL+f3jz2xV5HgMC9BWo729x7ahMSOL3AWUp4kayDPvWZs7IO2r1KrpL1/L5jygzXyfp8e5n86eZ2k9tVUjxMYM7km4e9ZBFT79JlfU4XnxaY8vA6+WOytvvaHlfJVmJKIfU+VO8RVV/drpKHeE/KbLuNbSqvFAQIEGhdYN16gXuob7eHeZgFgccKXOeFu8e+uKPXrVKr/cGOVtgpS/2PUy68s2X3tFFtY7tLbpJfJ8X9BF5lshfJOnC9TfYSNTZfJ6v+0WKXhr5NfhitMf0QGFxgSn+9vSc5QD74oDxCe5ssY0ra9wqCIHAAgXeZ5+YA8zVLAscUmLKwyhfJ27jOnfq8U7dz8r9ubnPzy2P1+G1Mt3dyW/f/R/Ls5n79XCn2K/Bmv7Mbam6bdPOX5JQUdwtMeerVTdZUu+Tfbm4/5PbjbTw/7j1u3yNWmfMfk3U7JcXnBeY8bfv/vJFnCRBoR2D04xDbUM/tcKtkoQJ17PjF4L3XfuM6+XbwPrW3B4HWLjC53kNPh5pFHbjpKeYUu05ukt8lR3/jS4t7iSlzuUjWBRsvk7tky/FNitsk641/pJjTTA/+I5nrhcA+Beo9tKf3pW3qnZOCwFMF1pnBH5KrpCBAYH8CHzKr9f5mZ04EmhKofaZVUxUp5lZgmzuV4tMC13m4Prdffvppj94hsMrjlfWZqaIc6/dcZV1gVrf12G3Ouf+5mG6erNvKs2Ttj9b985vb3IgHCrzJ9PMDX2NyAgQInEJglYVOp1jwEZf51yMuy6II3CWwyxO1f1b7WiPHX9Lc25Eb1Nt+BFq7wKQ+SIn9CsyZ3VfJdbI+vE5J8WWBKZPUQZJtssUPlavUdZGckiNF/YL+Plm/wOq+IECgP4F1Sq7sKep9XhDYl0Dtd9U+xPm+Zmg+BBYuMKf/5ws30D4BAscXqM+j9hG/7L7LJPUZvv7zi3icwFletrrJx83Bq/YtsM0MKwUBAgR6EPi6hyKfUOOc175/wuu9lMA+BWq/9/U+Z9jgvFapqY5pfmiwNiU1JPD7hmppvZSp9QK/UN82zz9L1gGSOSnuJ7DOZFfJ+qVRH/pPHVMKuLzJuj9SbNNMjdFN8jopCBDoT2BKyb3tZO9S85wUBPYlUL/D6iKTeV8zNB8CCxaY0/vzpH3DBQ8CrRM4kYBjJ/eHf5VJP9x/clMSaFpgTnW1/QsCBAj0IHCWIl/0UOgTatw94bVeSmDfAu/3PcNG5zf6+0qj7H2V1doFJnPDfFPDtT2ktE0mroO07x7yItP+ctHDj3FYn8iidhbrpG3VsEqOFLs0U2PyZfI6KQgQ6FfgIqVPnZX/prN6lduHwJwy63db3QoCBB4nMOdltqPH2XkVAQJPE5jz8rdPm8XiXl0X1/o8v7jVPmTD9flwHrIzTREgMKLAizR1NmJjH/XkuN1HGO6eXOBDKtidvIrDF+DbCQ9v3P0SWrvApOUPoyP9op4zctfJZ8l6QxT3E5gyWZ08vUrW/WPFOguqZW6So43Dl+npeXKXFAQI9C3wOuWvOmthl3orBYFDCMyZaf2Oq1tBgMDDBOZMbvt5mJmpCRDYj0Adl6r3H/EwgTmTv3zYS0xNoDmB+tr7bXNVKYgAAQJ3C3x991NDPFPnruYhOtHESAJ/HamZO3qp85CrO57zMIFfBFxgcv+BUBtU5Ugxp5k/JesgQN0X9xOYMlld8HGRrPuHilVmfJms5Yw09q7Tz5tkjb1tUhAg0L/AlBY2HbbxrsOaldyXwJxynyfrVhAgcD+BOZPZbu5nZSoCBPYvUJ9V5/3PdhFzfJ8u6wS9INCjwJyiNz0WrmYCBBYrMKXz1eDd268YfAV32t42ddc5rtHj9egN6u9pAi4weZjfSCf5P+58mx+eJetAiri/wDqT1p+s2fcb7ZR51kUll8lVcqSoA051YckmuYRfwmlTEBheYEqH9X7VW8wpeNtb0ertUmBO1U6Wd7nqFH0CgTnLtL2cAN4iCRD4RWCbf9+yeJLAq7x696Q5eDGB4wvU8ana/3Cc6vj2lkiAwOMF6nfu6LEbvUH9dSlQ+wt/7bLyhxV9nsnPHvYSUy9JoLULTObG8WuDGjk2ae5Z8t3ITe65t3qD3SSvkuvkU6Lm9TpZF62skyPFLs3Uh/WvknNSECAwjkC9b00dtvOmw5qV3K/AnNLr92DdCgIEPi0w52HbyadtPEqAwOEF5izC/uF+nH3u34+juRxP4Nssaj7e4iyJAAECexH4y17m0u5M6gT+3G55Klu4wHYB/df5yvUC+tTiIwVau8Dk+pF9HOtltUGNHnMaXCf/lJyT4n4CUya7SP6QrPsPjRd5QV1YskmONM5qm64P6nWyYJcUBAiMJVAXl6w7bGmXmrcd1q3kvgXmlO/ked/rUPWHE5gza9vH4XzNmQCBLwt8lUnmL09minsI1HGAek+vW0GgdYE3KXDbepHqI0CAwG8EVvl5+s1jo/24Ha0h/QwlsEs3S9jXHf1CtqEG5bGbae0Ck/nYAA9c3vkDp+958g8p/lnyZXJOivsJvMhkV8m62GRKfilWmeAy+dgLU740/1M+/yYLrzH09pRFWDYBAgcTqPe7zcHmftgZ1/uTIHAKgTkLrYt4az9LECDwD4HaHlzcbjQQIHBKgdo39Lt5v2tgzuzqoh1BoGWB9ylu03KBaiNAgMAdAl/f8fgoD89ppN6jBYGWBb5vubg91bbKfCoFgX8RaO0Ckypw/pcq23lgaqeUo1WyzZKeJ5fwZrlP1HVmVheO1O2n4iwPfpesaVbJkWKXZurCkk3yOikIEBhPYEpL9R7WY2xT9K7HwtU8jED9bqx9KwdLhlmlGnmCQG0HtT3YZ3wCopcSIPAkgXof2jxpDl58l8AuT3x715MeJ3BigTnLf3niGiyeAAECjxGY8qL1Y17Y0Wt2HdWq1OUKvF1I6y8W0qc2HyjQ4gUmLR9c/OMDfUeZfE4jr5J10cC7pLifwJTJLpJXyY/fhF/fPFamI8WcZuoEQWXdFwQIjCkwpa26OK5ue4w3PRat5uEEan+3/lev8TjcqtXQAwTqAvbaDmp7EAQIEDiFwJyFvjzFghe0zLfp1f7OglZ4J63OqfN50j5IJytMmQQI/Epg9aufxvyhPisKAq0L1H7ErvUi91Df15nH2R7mYxaDCbR4gcl/Nmw8pbYlb0hz+l8n6wDMnBT3E5gyWf0JnDoh+1NykxxpHNUv0jpg9Cy5SwoCBMYWqPezqdMWt6l77rR2ZY8psElb9TtUEFiaQI37V0trWr8ECDQlMKea58n6PCsOK7DJ7O3vHNbY3O8vUNt8bfvz/V9iSgIECDQl8E1T1ey/mDmz/LD/2ZojgYMI/PUgc21rpmcp57ytklTTgkCLF5jMLcB8pobpM88t5altGn2W/DY5J8X9BFaZrN6MR4q6mrjGwmakpvRCgMCdAt/lmV53KK9TuwPbd65aT5xQYJNl1z5VjVFBYHSBGucvk5vRG9UfAQLNC3yVCufmqxynwE1aeTdOOzrpWOB5ap87rl/pBAgsW2BK+70el7vvmnPs7r5SpmtBYJsilnA8r/4qgyDwKwEXmPyK414/jP4L/F4INxO9zW19MHOQ4CFqY0y7Sxu17l8ll/ALNG0KAosXqB3J2uZ7jbogbu61eHUPL1D7VH9KzsN3qsElC9T4rv3HbVIQIEDglAJ1YeeHUxaw0GWv07fjRwtd+Y20/TJ12PYbWRnKIEDgUQJLOMm7e5SMFxE4jcB1FruE/dtV+jw7DbGltirQ4gUmre/on7e6Mk9U15zlrpPPkrukGFtgTnv1P72eJ3dJQYDAMgTqA+ym41bnzuvvmF7pDxCYM239fm19X/gBLZmUwH8L1Lg2vv+bwx0CBE4o8CbLfnvC5S990esAvFs6gv5PIvAyS92eZMkWSoAAgf0JrPY3qybntEtVc5OVKYrA3QLv735qqGdeDdWNZp4s0OIFJvOTuzrsDP582Nl3O/c5lddB4/rAVvfFWALXaedNsv539VJ+YY61BnVD4PECvV9cUp3X+5cg0IPAnCLrd+33PRSrRgL3FKjxXJ8T5ntObzICBAgcSqD2CTeHmrn53ltgnSnf3XtqExJ4usDLzGL79NmYAwECBE4q8CJLn05aweEXbv/g8MaWsH+BXWY573+2zc3xL81VpKCTCrR4gUmdyK5sNaYUdtZqcQ3UtU0Nz5JvGqhFCfsR2GY2dbJrk2x520x5ggCBPQt8nflt9jzPY8/ufRa4PfZCLY/AEwVe5fXfJv3efSKkl59UoMZvjeMaz8bySVfF8Av/Wzqch+9Sg08VqIvdNk+didfvTWCdOTlutDdOM/qMwMs8t/3M854iQIBALwJ1jG7kmNPcduQG9Ta0wLuhu/tHc+e5WS2gTy3eU6DFC0yq9Pme9Z9isrMstDYk8XmBTZ5+llzCG+vnJfp9dpfSnydfJuekIEBgWQL1wXU7QMt1clMQ6FHgbYr+U3LusXg1L16gxm3tR9Y4FgQOLXCVBXyVvD70gsy/W4E6LvGq2+rHLXyT1t6M257OGhCo41nbBupQAgECBJ4qMGUGL546k8Zfv2u8PuUR+JzAUo59jP4+9Ll17LnfCLR6gcnfflNnaz+et1ZQo/XMqWudfJack6IPgeuUWR/Cnyd3SUGAwPIERrm45E1W3by81afjgQRq/NZFJt8P1JNWxheo8Vrj9sP4reqwIYEab/UZRhD4rcC7PLD+7YN+bkZgk0pqn10Q2KdAHdd6ntzuc6bmRYAAgRMKrE647GMtuvbZBIFeBWrfY9dr8Q+ou84ZnD1gepMOLNDqBSZz4+b+1tTDVlCtz2fJl8m6L9oUqF+Cb5K1rrZJ0Y6A95x21sUSKnmdJrcDNDqnh80AfWiBQP1+fpW0H2UstC5QY/XbZI3Xui8IHFvgfRZY75WCwK3Au9xZ3/7gtlmBTSqrbdfvjmZXUVeFzan2eXKXFAQIEBhFoI7VjRxzmtuN3KDeFiGwhP8cdpY1+WIRa1OTXxRo9QKT3RcrP+0E56ddfLdL36by+pD3ptsOxi18l9bqf5pukg7qBKGRmFLHD8m3jdSjjPEF6gPrZpA26yC1IDCSwDbNOFg+0hodq5dd2ql9SfssY63XHrvZpui60EkQqOMOawzdCGxTaf0emZOCwGMF5ryw9pc/PHYGXkeAAIEGBc5T09RgXfss6ft9zsy8CJxIYJflXp9o2cdcbH2LiSDwb61eYDI3vm7OUt+q8RpbLW9OYZvks+S7pDitQH3org/flXNStCFQ7zF1ov/H5Is2SlLFAgRGurhkm/W1W8A60+LyBOa0XL+z6+TpdVIQOLVAjcMaj/YlT70mLP9jgbf54c3HD7i/OIFa/5vFdd1/w3Na8Puk//V4qg52WbCLlE6lb7kECBxS4JtDzryReb9vpA5lEHiKQB0fefeUGXTy2lXqPOukVmUeUKDVC0xqQ5wP2Pc+Zr3ax0wWPI85va+TXyXnpDiuQG1jdTKgPnzvkqIdgXVKqQtLNkm/qIMgDi5Q4+wiuTn4ko6zgDmLcVLpONaWcjqBt1m03+Gn87fkfwjsclPjsMajINCawCYF1ecdsTyBWu+b5bU9TMdzOnmW/H6YjjRyDIEaL3Vx0vUxFmYZBAgQOLLA6sjLO/bidlngfOyFWh6BAwm8P9B8W5vtq9YKUs/xBVq9wKQk/nZ8jgct8c8PmtrEdwnUG24dPHiZnJPi8AL1wbvM3x5+UZbwAIFVpr1M1on+KSkIHENgykJq3K2To8SbNDKP0ow+CHxGYM5zz5Mvk3VfEDiWwHUWVCdwa/zNSUGgVYH6vFPvkWIZAvXeVO9LPueOsb5fpY36XVPrVRC4S6DGR73P13gRBAgQGFFgnaamERv7qKd3H913l0DvArs08KH3Ju5R/xK+WekeDMuepOULTFrfCFcZOmfLHj577X6budXBIDsUe2X91cx2+elPyfrgfZ0UbQjU+0hdVFIn+VdJQeBYAlMWVOPu/FgLPMJy6gK67RGWYxEEWhLYphj7UC2tkbFreZ/2an/y7dht6m4ggW16qTF7PVBPWvlXgTkP1XreJcU4AvW7ptbrPE5LOtmjQI2LGh/bpCBAgMCoAl+P2thNX7WP/n7wHrW3PIG/LqDls/S4WkCfWvyMQMsXmOw+U3crT61bKWSQOub0sU4+S9qxCMKeYs586sRT5YekaEOgfgm/Tl4l10lB4JgC9QG1/hTTdMyFHnhZc+a/OfAyzJ5AqwJzClsnv0rOSUFg3wJzZlj7ksbYvmXN7xgC9RmoTkLOx1iYZRxdYJclWr9HZz/aAueb9fv90ZZoQT0I1Hiw3fewptRIgMBTBKa8ePWUGXTw2joHdN1BnUok8BCBtw+ZuONpX3Rcu9L3INDyBSYf0l/rv1z+sod1YBb/KjDnoa+SL5N1XzxOoLafN8n60L1LinYEVimlTu5vkmdJQeCYAt9lYdvkaGOvTny2vt+QEgWBgwq8z9yfJb9NzklB4KkC9b5a+5M1rnZJQaBXgTmF177Ch14bUPcnBer9qdarfcBP8gzzYK3fV8mXyTkplitQY6GOF9Z4qPuCAAECIwusRm7uprd3C+hRi8sTqH2U3QLarv/AeraAPrV4h0DLF5hUyR/uqLuVh89TiA3ocGtjm1k/S75JXifF/QW2mbTsNkl2QWgk6j3j8ianRmpSxnIEaszV+Hs1YMv1e2IesC8tEXiswNu88Hny3WNn4HUEIvB98nZ/EgiBEQTmNFEX39fYFn0LzCm/fs9tkmI5Atu0av9mOev7t53u8kC9h7//7RN+JkCAwKACrwft67atOXd2tz+4JTCYwJvB+vlUO2d5cP2pJzy2DIHWLzD5a+OroTagF43XOEJ5mzRRHyLfjdDMgXvYZf51wOVl8jop2hCo94r61oj61pJVUhA4tsAqC6yLS+p2tNiloc1oTemHwB4E5sxjnXyWtA8VBHFvgV2mrHHzKml/MghiOIEa298O19VyGtql1To+ULdieQJzWl4n65jHnBTjC9S+SL1nP0/OSUGAAIElCKzS5DR4o38dvD/tLVvgQ9pfwvGUvyx7NS+7+9YvMKmNsPX4uvUCB6lvTh/rZB3snpPi1wJzfqwDLPWBe5cU7Qh8k1Kukq/aKUklCxOoi5vq4pJpwL7n9FTvfYIAgbsF5jy1Tj5L7pKCwF0CuzxR+5KVc1IQGFngbZqr98V55CYH660O0N6eZK77YtkC27RfFxq9WTbD8N1v02G9V9d7tiBAgMCSBJZwzsl7+5JG9PJ6rc8r7xbQ9io9TgvoU4ufEGj9ApNdam79wMEqNZ4lxXEE5iymPly+TNb9pUdtH2+SdWBlmxTtCKxSSn1jyduk94ggiKMLnGeJNQZfHX3Jx1ug3wXHs7ak/gXmtPD8Jne5FQRuBXa5Y2zcarhdksCcZp8lv19S0532ukvd9Zm3PlsJArcC17mzSdZ2/D4pxhGY00rtm7xM1noWBAgQWJrAi8Eb3qW/efAetUdgKfuna6t6mQKtX2BSa+VDB6tm3UGNo5W4TUNL/98quxuDTW594A5CIzGljvq2iMrzpCBwCoHXWWhdXDLyGHyT/nZJQYDAwwR2mbwO2FfWfbFcgV1aNxaWu/51/k+BVzfbwvzPh9xrRKA+575M1nvVnBQEPiUw58GvkjVW6r7oV6C2+W+Tz5K7pCBAgMASBdZp+mzwxt8N3p/2CJTA7ibr/sjxzcjN6e1ugR4uMPnr3eU388xfmqlkWYXUB89Nsj54LmmnZJd+n9/knFvRhkDt+N+e1F+1UZIqFihQY68uLNkkR45tmtuM3KDeCBxBYJdl1P7E0vajjkDb/CJ2qfB2X7LuCwIE/nHwr/4Dw/cwmhGodVG/o7bNVKSQ1gVqrNSYeZmck6IfgTq+9yZZ6+9tP2WrlAABAgcR+Pogc21rpru2ylENgYMJ9HB++6nN13mx1VNn4vUEDiEwZaY/d5Cr1ChOK7DK4q+SPYyXx9T4U3p7lRTtCaxTUq2fx6zXFl8zpZdR4jKNtGhcNa33iFw7ct8lW+11n3Vdpc/qVxAgsF+BKbPbJmsb2+c2a15teNZ+yibp/TMIC48Rt8mLPa/TKfO7So5o1UNPl7E/TwoCTxVYZwa25fbfyy6ynqakOKxAvbf+PFjW9i0OLzBlEaONnepnk2wxphQ1ovfHPV20CK8mAgcSqGMwH4//Ue//cCC/p852uwD/k72n9vANJnMGQGXr8aL1AhdQ3y491v92eJmckyPF7f/eejtSUwP0skoPl8l6E6+dBUHgFALrLPTH5KtTLPzIy5yzvOfJ6yMv1+IILEFgTpPr5Kj7UmltkbFL198ma71ukt4/gyAIfEFgzvPeC7+AdICnd5ln7edVfkgKAk8V2GYGtuWnKh7u9dbP4WzNmQCBfgXW/ZZ+78rf3XtKExLoX6COwez6b+OLHawyxdkXpzIBgRMIvM0yW7+yq/5XoA3oBIPjjkVOebyHcfOlcV0XL1Qvoi2BKeXURSVfWn+9Pl/9jRK1DbW6HtZPRF7l9S33dwj36lkQIHA8gVUWtU0eYns2z8O51ueS2g9eJQWB3wqMuO1d/LbJPf/8KvO7So5o10JPl7FdJQWBQwusswDb8mnfy2ofZZN0/DQIR456r23hPX+fNdT2LA4vMGUR+1xvrcxrc3i6Ry2hxnUrRoeoo/oTBJYmsErDh9ieWptnfW5uLbYpqDWnfddzcSr0Hr7BpGzenwroAcutD0ctbkAPaGGoSeeb9VH/W6XHq2Kr/uc3WfdFGwK1nb9O1rdFrJOCwCkEpiy0dhwuk6vkUqL+B/5uKc3qk0AjArvUsU7+z+TL5C4p2hXYpbTbbyupzyX1syBA4OkCbzOL+mz2JjknxX4EdpnN7Wfeui8IHFpgmwU8S9a4e58UxxO4zqLqPbT8N8n6WRAgQIDArwVW+XH69UPD/bQbriMNEfiywC6TLGHf5y9fpjAFgdMI1FXuPzeeV6ehsdR7CKwzTa2f1sfQ7f/muEdLJjmywIssr4cxtI8xPh3Z9pCLu8zM92FyiHmsH9j4WaZ/nezh9+G+vTYPtDI5AQKHE5gy61fJH5P73tbN7+Gml1kPm2T9jhAE7iMw4nZ2cZ/G9zTNlPmsk1fJES2P0dNl7FZJQeDUAlMK2CZtz4d7P7O9Z4A1ErUufh4sa9sVhxeYsojRxk71s0m2FhcpaETrj3uaWkNXD4EjCWyynI+3hVHvr47ked/FbDPhqNa3fV3cF2PJ073tZCCslrySOui9TohcJW83vpZua4w7OdDeIFqlpMtkS2Pl0LVM6XeUaHndre+JXO8Lr5NLvLCkxvo2KQgQaFNgSlm1b+Vik+PuJ9Tvtk1ySgoCDxWo362j5cVDEfY0/Trzqe1xNM9D9FP7sZukz7tBEE0KvEhV2+Qhxv/S5nkVx03S9h6EhuIytYw2FmusicMLTFnEaGOn+tkkW4p6zxzR+eOe6riBILBUgVUa/3h7GPX+prEVvF2A+0Vj5k2Ws+pkIFw2qaeojwWm/LBNtvImXmNmlRRtCdSO/XfJVsbJMetoa008rZravo5p95Blrb/Q2pTnXyfrgPxD5jvStD58ZuULAp0ITKlznbxMjvQ+1EIv9XugXF8lp6Qg8BSBFsb0vmu4eArIHl47ZR7b5FVy3731Pr/LmKySgkAvAnUcYJ2ssdv79nfM+mtf5W1ylRRtCow4pq/apB6uqikdHfP95FjL2jS2ptaDOn+8PqtHQWDJApdp/uNtYsT7tU/YUmxTzIjOH/d0cSrw/zjVgh+x3A95zXWyPuy1HKsUV7lLijYF5pS1Tm6SPyTPk6eIOQv9Nvn+FAu3zM8KvM6zr5Ktv998tolHPnn9yNd52f4EVpnVN8kX+5tll3OaU/XzLitXNIFlCsxpe3uTufllf7jex/6cPK8HxIME5kz91+T75IfkdVIQINCmwJyy1jelvcjt18m6XWrs0ni9f22T3ruCILoSqDG7vcmz3Na2/JfkKlk/i38KzLn7Lrm7ydyIhgX+s+HaHlva/NgXet2DBXYPfkX7L5gbK/E89ewaq2nf5Yze3769zG88gdpvWkJMaXJeQqNL7/F3nQG8Tb110q312KVAJ8VaX0v/rG+du3VBwZQ8RlxnId8nazzXfdGOwCqlXCSn5FJjl8ZHev+6TD+rZIvxMkVtbwo7y+2LZJ2QWCWXHnMAahzWrSBAoH+BKS2cJ1fJP9/cz434SOBD7v8tWbfvk9dJQeAQAj8fYqYnnuc2y6/9qpbiLMWski+SdXK6fh416v1ql7y9KK5+FgRGFFilqdqm/5is+0uL22299lfeJ+elAeiXAAECBAgQIECgK4FNqq3jkCNHfQ5/O3KD++ptlRnVAbEesmoVfQlsUu6hx9YPWcaUFG0JTCnnMnno9d/D/DdxGClaXq/rQK+Sr5M/JXsYH8eo8SoWU1IQIDCuwFlaWyVfJWvf6MfkMd5fWllGvc9V39X/KlkegsCxBFrZDvZZx8Wx8J6wnFVeu0leJvfZ+ynmVfut1ccmuUoKAksUqN/dL5JvkyNs1596L6lt/eP9lfwoCBAgQIAAAQIECBAg8G//9rsOEeoDTg8HYXep83mHvksveQrAJvl1cp+xy8zeJOtWtCNQ7yXfJDftlHTySup9a3fyKvZXQB3sW+1vdnud05y5TXudY/8zm9NCjcG6FQQILEugfief3+SU2z/e3O9hvz+lfjKu8+ic/JCsryWv28p6XBA4lUCdRBwttmnoZWdNrVLvefLPN7dTbluNOYXtkt7HgiAIfEagtunb7G0/Zk7tH5J/v7nd5XZOCgIECBAgQIAAAQIECPyLwO/+5ZH2H9ikxNftl/lLhXWSbNdJrcr8tUAdFPguufr1ww/+ac4r3iS3SdGWwO2FJWdtlXXSauYs/dlJK9j/wq8yy2n/szXHAwjMmWf93qxbQYAAgVuB+j1d+2W3t3/I/enm59vb/HiSuM5SKz/c3P49t/PNz3VbzwkCrQn83FpBe6hnm3m83MN8TjmLsyz8/Can3NbJ6dvHcvfgUe9X803We9mHm6zH6jlBgMDjBKa8rPL85vZ2P6YeO0seM+YsrLbnD8n/urmt+3OyHhcECBAgQIAAAQIECBC4l8Dv7jVVWxOdp5wf2yrpzmp2eeb5nc96ogeBVYpcJ/+SPEveN3aZ8Pvk+/u+wHRHE1hlSa+TdSt+LfAyP25//VD3P12lg6n7LsZvYE6L9fuybgUBAgQeKjDlBZUVU7L22W732+r2fyRvY7q984nb+TeP/f3m59vHr/Nz3b+9zV1BoDsBF5h0t8p+eT87vyl7ym1lxcfvb9Mvj/zrP/NHD9UJ5Xr/us16rvL259wVBAgcWWDK8ipre66s+xV1/3b/5fa5X574zT/zRz//dhu/znP1/O3tR5O6S4AAAQIECBAgQIAAgccL/O7xLz3pKy+z9NVJK7j/wp9n0t39JzdlwwKr1Hae/GNySn4cc374e/JDcpesD/CiLYEp5XyXfNFWWc1UM6eSer+q25FixJMoI62f6mVOjjj2qjdBgAABAgRaExhx32gb5JetQauHAAECBAgQIECAAAECBAgQIECgHYFXKaUOjPWQV6nzrB06lRBYnEBtf6+TPyV7eM84VY3r+IwYp/K03Pttb1cZdNOIA09PBAgQIECgUYER91EuGrVWFgECBAgQIECAAAECBAgQIECAQCMCdcK4p5PFm0bclEFgaQLrNFwnsEc8kL7PnspoxJjS1D6dzGu/njXuah0JAgQIECBA4HgCI+7PXByPz5IIECBAgAABAgQIECBAgAABAssW+H2n7V+n7ncd1f5Nap06qlepBHoXWKWBy2QdbJ6S4m6BOU89v/vprp+Zuq5+7OLntFfjrm4FAQIECBAgQIAAAQIECBAgQIAAAQIECBAgQIBABwK9XmBStNsOfG9LrG9c+e72B7cECBxMoLa1uqikLi5ZJcWXBV5mkvnLk5mCwN4EPmROf0rOe5ujGREgQIAAAQIECBAgQIAAAQIECBAgQIAAAQIECBxcoOcLTOoE1e7gQvtbwIvMarW/2ZkTAQIfCdSFJa+TV8l1UtxPoC4u2d1v0i6nmrqseuyi36W9urjkeuw2dUeAAAECBAgQIECAAAECBAgQIECAAAECBAgQINCawCoF/dxR1snvOhEuCBDYn8Aqs6ptq6f3glPX+lO8ym302KTBU1tb/j/XQa0PQYAAAQIECJxWYMR9k4vTklo6AQIECBAgQIAAAQIECBAgQIBATwJXKbang2T+VE5Po0utLQtMKe4y2dP230KtZVZ2S4gf0mQL5mr4t397tYQBp0cCBAgQINCBwIj7JRcduCuRAAECBAgQIECAAAECBAgQIECgEYE6adXbQbJVI3bKINCjQH0LUF2o1dt2f+p661tLlnaS/9I4Ofl2UuNulRQECBAgQIBAGwKn3ic9xPIv2qBVBQECBAgQIECAAAECBAgQIECAQA8CdbK5TmAd4kDVoeZ5lXqrbkGAwMMEvsnkvW3vh3ofue98y2uTXOJ7jrFy2t+N9btuSgoCBAgQIECgHYH77kP2NN1FO7wqIUCAAAECBAgQIECAAAECBAgQ6EFgkyJ7OgBWtX7XA6waCTQisEodPyZ7285PXe9lzKbkEqMuqDm1/5KX/0P8l3hR0xK3NT0TIECAQF8CI+6fXPS1ClRLgAABAgQIECBAgAABAgQIECBwaoE6idXj/1RfnRrO8gk0LjClvsvkiAfCD9nTVcxWySXHKs0f0ti87/bdLHng6Z0AAQIECDQuMOI+zEXj5sojQIAAAQIECBAgQIAAAQIECAwj8PtBOrlOH9932Ev9D++pw7qVTODQAnXR2OtkfWvJKinuJ1Dvhd8mnyV3ySXH+ZKbP1Hvc5b7PLlJCgIECBAgQIAAAQIECBAgQIAAAQIECBAgQIAAAQLNCtQJ6R6/xeSyWVGFETiNwDqL7XFbPvX/Bn0bt3ofFP8QKI9Tr5MlLb9+l03/oPcvAQIECBAg0LDAiPsnFw17K40AAQIECBAgQIAAAQIECBAgQKBhgU1q6/GA2euGTZVG4FgCqyzoMtnjNnzKmsvsPCl+LWAsHW9bevVrej8RIECAAAECDQuccr/1UMu+aNhbaQQIECBAgAABAgQIECBAgAABAg0L1P/e7/WbD1YNuyqNwCEFpsy8Dgof6oDzqPO9itkqKT4t0Ovvgp7GqzH46bHnUQIECBAg0LJAT/sa9631omVwtREgQIAAAQIECBAgQIAAAQIECLQtsEl59z0Q1dJ0dTJ0SgoCSxGoC8JeJ10I8LD3rPLaJMtPfFrgPA+39P4+Yi1vY2wMfnr8eZQAAQIECLQsMOJ+yUXL4GojQIAAAQIECBAgQIAAAQIECBBoW6BOeF0lezxwVnU7Ydf2+FLdfgRWmU2v2+kp31su4uY94stjcJ1JTrmeRl72VWxXSUGAAAECBAj0KTDifspFn6tC1QQIECBAgAABAgQIECBAgAABAq0IrFNIrwfOLltBVAeBAwisMs8a471un6equ8zKTtxP4CKTnWpdjbzct3F1gdP9xqCpCBAgQIBAqwIj7qvUvp8gQIAAAQIECBAgQIAAAQIECBAg8CSBy7y614Nn3z2pcy8m0J5AnZSucd3rNnmquuvP4ayT4mECV5n8VOtsxOWW5+phq8DUBAgQIECAQKMCI+6rXDRqrSwCBAgQIECAAAECBAgQIECAAIGOBFapteeDZ687slYqgc8JfJMn60KJnrfHY9deXpukb4sIwgNjyvTHXl8jL28TT+MwCIIAAQIECAwiMOJ+y8Ug60YbBAgQIECAAAECBAgQIECAAAECJxa4zPJ7PoD29Yn9LJ7AUwRWefFVsudt8BS1X8ZsSorHCazzslOst9GWaRw+bvx5FQECBAgQaF1gtH2W6ueidXT1ESBAgAABAgQIECBAgAABAgQI9CEwpczevzlh1Qe1Kgn8t8CUe3VyesSD14fs6ceYrZLiaQJ1guGQ62n0eV/F78XTVoFXEyBAgAABAg0LjLgvc9Gwt9IIECBAgAABAgQIECBAgAABAgQ6E9ik3p4PotUFMuedmSt3mQL1ZzReJ3ve3k5Re23jr5Y5ZA7S9ZUx+KhtsMbhJlnbsSBAgAABAgTGFTjF/u6hl3kx7urSGQECBAgQIECAAAECBAgQIECAwLEF6mRZ7yccXWRy7FFjeQ8V+CYvqHF66IPHo83/bcyc0H/oaLt7+nNj8FHbYJ2UMQ7vHleeIUCAAAECIwmMtj9d/dS+jCBAgAABAgQIECBAgAABAgQIECCwN4FV5tT7gTQXmextOJjRHgVWmddlsvft69j1l9mUFPsV2GR2x16XPS/PONzv+DM3AgQIECDQg0DP+y531X7RA7waCRAgQIAAAQIECBAgQIAAAQIE+hKoE2l3HZDq5XEXmfQ15kaudkpzPyR72XZaqfMqZqukOIzAj5ltK+u65Tou47Q6zCowVwIECBAgQKBxgZb3UR5b20Xj5sojQIAAAQIECBAgQIAAAQIECBDoUGBKzXWBxmMPWrXyOheZdDj4Biq5/ozG6+QI29Ixt+ny2iTF4QSmzPqY67THZV3GaJUUBAgQIECAwHIFetyH+VLNF8tdnTonQIAAAQIECBAgQIAAAQIECBA4pMCrzPxLB6d6eL5OVr84JJR5E/iEwDqPXSV72EZaqvFtzOrCHHFYgXVm39J6b6mWy9iskoIAAQIECBAg0NI+yr5qubBaCRAgQIAAAQIECBAgQIAAAQIECBxKoE607etA1qnnUxfMCAKHFlhlASNtN8fabsus7MRxBIzRX/9uqwsR6+Km6Tj8lkKAAAECBAh0InCsfeFjLueiE3tlEiBAgAABAgQIECBAgAABAgQIdCgwpeaR/rzH6w7XgZL7EKhv3fguecyDwyMs6ypmL/pYxcNUOaWTEcbOPnqo32+bZG2/ggABAgQIECDwW4F97G+0No+L3zbpZwIECBAgQIAAAQIECBAgQIAAAQL7FHiVmbV2UOwp9dRFAILAPgVeZ2YjXYj1lO3rvq91Yn+fI/Bh89pk8vuup1Gnu4yBC5seNm5MTYAAAQIEligw4r7QxRJXpJ4JECBAgAABAgQIECBAgAABAgSOK1An40Y6uPZj+pmOS2hpAwqs0tNVcqRt4xi9/BCzKSlOI7DUMXt7UdPqNOyWSoAAAQIECHQocIx942Mv46LD9aBkAgQIECBAgAABAgQIECBAgACBzgSm1Fsn54598OuQy7tKP9WXIPBQgSkvuEwecnyOOO8yWyXF6QRWWfSIY+tzPd2OO38G53TjzpIJECBAgECvAp/bx+j1uYteV4a6CRAgQIAAAQIECBAgQIAAAQIE+hJYp9xeD6LdVXddNFN/AkgQuI9AnaD+LnnXePL4p21sZ/cZXceZ5mIh4/cyfdZ7u4tKjjOuLIUAAQIECIwqMOL+fe0PCgIECBAgQIAAAQIECBAgQIAAAQJHEXibpYx4kO31UfQspGeBb1J8XSgx4vg/ZE+bmDnJH4QGYkoNh1zXp573ZfpzUUkDA00JBAgQIEBgIIFT798cYvkXA60frRAgQIAAAQIECBAgQIAAAQIECDQuUCeKr5KHONB16nlWX1NSEPhYYJUffkyeenz2tvzLmE1J0Y7AOqX0No4+V29d8FXjzEUlQRAECBAgQIDAQQQ+ty/S63MXB5EyUwIECBAgQIAAAQIECBAgQIAAAQJ3CJzn8VG/yaH6Wt/Rt4eXJTCl3Tp53euB41PVfRWzVVK0J1Dr5lTjYl/LrYu93iZXybrgURAgQIAAAQIEDimwr32YluZzcUgw8yZAgAABAgQIECBAgAABAgQIECDwKYH6H+MtHSTbdy110G36VOMeG16gTlq/To56EdW+t5Xb+ZVXvS+INgXWKet2XfV0e3tBSdXvgpIgCAIECBAgQOCoAj3tN9231oujCloYAQIECBAgQIAAAQIECBAgQIAAgRuBt7m970GsHqe7Sn/rm17dLEOg1rcLSx6+Xdd7gZP/bW8jlymvh/fhFBj/HwAAHY1JREFUH1JnjacXSWMqCIIAAQIECBA4qUAP+08PrfHipKIWToAAAQIECBAgQIAAAQIECBAgsFiBOvlX/7v8oQe0epu+DsBNSTGuwCqtXSZ7G5unrrfMyk60LbBKeaceK/dZfo0nQYAAAQIECBBoSeA++zC9TXPRErBaCBAgQIAAAQIECBAgQIAAAQIEliUwpd2rZG8H1R5ab/W4ToqxBOoiqYvkQ8fD0qev7WGVFH0IXKbMHsbsug9OVRIgQIAAAQILEuhhH+qhNV4saP1plQABAgQIECBAgAABAgQIECBAoEGBVWp66EGtXqe/Sq9TUvQtUBeWvE76czgP23bLa5P0p0uC0ElMqbOX99uqVRAgQIAAAQIEWhLoZT/qIXVetASsFgIECBAgQIAAAQIECBAgQIAAgWUKvErbDzmo1fu0dVBuWuaq7r7rVTq4SvY+Bo9dvzHf59Cv9XbssfKY5V32yatqAgQIECBAYHCBx+zXtP6ai8HXmfYIECBAgAABAgQIECBAgAABAgQ6EdikztYPpu2zvvo2h9dJ3+YQhA5ilRovk/scA0uYV5mVnehPYErJvYzRdX+8KiZAgAABAgQWINDLvtRD6rxYwHrTIgECBAgQIECAAAECBAgQIECAQCcC29T5kINbI0x7lZ7XSdGmwCplXSZHGGvH7KEuoFonRb8CPY37qV9mlRMgQIAAAQIDCxxz//tYy7oYeH1pjQABAgQIECBAgAABAgQIECBAoDOB+jaPH5PHOjjW0nKu0vc6KdoQOE8ZdfC0pTHSQy11Yckm6Zt5gtBxvEjtPYy3qvGiY2elEyBAgAABAmML9LI/9ZA67XuNPWZ1R4AAAQIECBAgQIAAAQIECBDoTmBKxVfJhxzkGmna6n2ddII+CCeIVZZ5mRxpTB2rl3KbkqJ/gau0cKxx89Tl1MUwggABAgQIECDQosBT93NafP1Fi9BqIkCAAAECBAgQIECAAAECBAgQWLbAlPavki0eUDtWTdX/RXJKisMLrLKIy+Sx1u9Iy6lvHSo/MYbAOm30Mj6vxiDXBQECBAgQIDCoQC/7VA+p82LQdaUtAgQIECBAgAABAgQIECBAgACBzgWm1F9/buMhB7tGnbYO4q2SYr8C9S0xr5JL/bNMT91eavssPzGOwJRWrpJPHRvHev0mtQoCBAgQIECAQKsCx9onOuZyLlrFVhcBAgQIECBAgAABAgQIECBAgACB8xC4yOSfJ3uv4rFOTknxeIFVXvpd0tj659h66EHpt/E7S4qxBGq7eOhYOOX001j8uiFAgAABAgQGEzjlftKhln0x2DrSDgECBAgQIECAAAECBAgQIECAwGACLjL59AnfH7KeXwy2rg/ZTl0M8Tp5mTzUwdYlzLf8apsU4wlMaamnMfx+vFWgIwIECBAgQGAwgZ72re5b68Vg60g7BAgQIECAAAECBAgQIECAAAECAwrUCW3fNvHpk79XsamDfKuk+LVAXVTyKnmZ/Fk+yaDG2SopxhWoddzTdrIad1XojAABAgQIEBhEoKd9q/vWejHIutEGAQIECBAgQIAAAQIECBAgQIDA4AIuMvnyyd+6CKcO+K2TdXHFEmNK0y4q+fJYue8B5BpTm+RSx1NaX0R8ky7vOyZamO5qEWtFkwQIECBAgEDvAi3sN+27hoveV4r6CRAgQIAAAQIECBAgQIAAAQIEliPgIpOHnQS+zNDYJFfJUaMufFgnv0teJfd9AHXJ87uIpwtLgjB4TOmvLiTqaayvU68gQIAAAQIECLQu0NP+1X1rrc8IggABAgQIECBAgAABAgQIECBAgEA3Ai4yefyJ4Mus5boQ40Wy1wsHptS+Trqg5PHj4EsHj2ucrJJiGQK1vr80Jlp6/moZq0WXBAgQIECAwAACLe1D7auWiwHWixYIECBAgAABAgQIECBAgAABAl0I/EcXVbZf5IeU+Dz5Q3JKivsLrDJp5atkxZwsz/+8ub39OT+ePOoCmCl5nvzjzW3dr8fFYQTmzPZNcpsUyxD4Jm2uOmv1XWf1KpcAAQIECBAgQIAAAQIECBAgQIAAAQIECBAgQIDAgwV+9+BXeMHnBKY8eZmsW7FfgQ+Z3XWybv/r5rZ+rpxvbnPzpJjy6rPkx7d/yM/nHz2eu+IIArVev0++TdZ9sQyBKW3+mDzrrN1nqXfurGblEiBAgAABAssUqG8NGS22aejlaE3phwABAgQIECBAgAABAgQIECDQooBvMNnvWpkzu+dJF5ns17Xmdn4zy9XN7adu6kKE24sR5k9N8NFjdQK7suLj+/94xL+nFHifhX+bnE9ZhGWfRKDeO2+3y5MU8IiFbvOa+RGv8xICBAgQIECAAAECBAgQIECAAAECBAgQIECAAAECBAj88g0Y9b/w63+HSQbGwP3GQF1csEqKZQq8Tts9bivTMleXrgkQIECAAIFOBXrc3/pSzRedrgtlEyBAgAABAgQIECBAgAABAgS6E/h9dxX3UfCcMuubTOqbGAQBAp8XuM7T9Y0ltc3skmJ5Auu0vOmw7W1qnjusW8kECBAgQIAAAQIECBAgQIAAAQIECBAgQIAAAQIECDQosElNX/ofV55ntNQxUNtHb38SJSWLPQpMmddVssdtoGoXBAgQIECAAIGeBHrc5/pSzRc9rQC1EiBAgAABAgQIECBAgAABAgR6FviPnovvpPZN6qxvaPiuk3qVSeAYArss5GVyTorlCtTFRZfJqUOCbWqeO6xbyQQIECBAgAABAgQIECBAgAABAgQIECBAgAABAgQeJeBP5DyK7cEveptX/Ck5P/iVXkBgLIE57dSfwqms+2LZAq/T/tQpwZtO61Y2AQIECBAgQIAAAQIECBAgQIAAAQIECBAgQIAAgUcJuMDkUWyPetGHvMpJ9UfRedEAAvUtPnVC/llylxQE6uKSV50y1FieO61d2QQIECBAgAABAgQIECBAgAABAgQIECBAgAABAgQIdCJwljrfJn+WDBYyBmq817gXBG4FXuROr++BV6l9um3ELQECBAgQIECgM4Fe98E+V/dFZ+tAuQQIECBAgAABAgQIECBAgACBbgV8g8nxV911Fvkq+e3xF22JBI4qsMvSnidrvNe4FwRK4DzZ80mA71P/nBQECBAgQIAAAQIECBAgQIAAAQIECBAgQIAAAQIECBA4msCUJV0lP/e/sTzHp7cxUGP6RVIQ+K3AlAdqfPQ2pm/rrdoFAQIECBAgQKBngdv9mpFuL3peIWonQIAAAQIECBAgQIAAAQIECPQk4BtMTru25iz+T8l3py3D0gnsRaC+peRNssb0+73M0UxGEpjSzGWybnuNGt+CAAECBAgQIECAAAECBAgQIECAAAECBAgQIECAAAECJxVYZ+k/JUf6n2R6Wc76rP81OCUFgU8JnOXBq2TP7wk/fKoxjxEgQIAAAQIEOhPoeX/srtovOlsHyiVAgAABAgQIECBAgAABAgQIECCwF4Epc7lM3nXgzONsWhsDNV5XSUHgLoG6uOTHZGtj96H1THc16HECBAgQIECAQEcCD90H6mH6i478lUqAAAECBAgQIECAAAECBAgQ6FrAn8hpa/XNKed50p9haGu9qOZfBerP4bxM1njdJQWBTwnUxSWXyfNPPdnRY9+n1rmjepVKgAABAgQIECBAgAABAgQIECBAgAABAgQIECBAgMCCBKb0epXs4X+MqXE566n+jNMmWRcOCAKfE6gxMsI3l9T7sPH+uTXtOQIECBAgQKAngRE/u130tALUSoAAAQIECBAgQIAAAQIECBDoWcA3mLS79uaU9iz5bfI6KQicWmCXAv6U3CSNySCIOwXqgozL5PmdU/TzRH2jlPHez/pSKQECBAgQIECAAAECBAgQIECAAAECBAgQIECAAIFFC0zpfpsc8X+b6an99XqVsbdKCgL3EaiLS0b45pJ6b7q4T8OmIUCAAAECBAh0JDDi5y/7bB0NQKUSIECAAAECBAgQIECAAAECfQv8ru/yF1f9Oh2/Tk5JQeDQAvWtDfXtDW8PvSDzH0ZgSieXybrtPeY08DxZt4IAAQIECBAgMIrAepRGPupjzv3dRz+7S4AAAQIECBAgQIAAAQIECBAgQIDARwKb3B/xf57pqZ31WheV1DdRCAL3FZgy4VVylO14nV4EAQIECBAgQIAAAQIECBAgQIAAAQIECBAgQIAAAQIEuheY0sE2OcrJXH20sS4vM6bOk4LAQwRqzFwlR9mOazsQBAgQIECAAAECBAgQIECAAAECBAgQIECAAAECBAgQGEpglW5GOrE7ygnq3vqoMVRjSRB4qMDXecFPyd7G/F311rYwJQUBAgQIECBAgAABAgQIECBAgAABAgQIECBAgAABAgSGFFinqzoxetdJU4+z+dwYeD3kVqGpQwvUuPncuOrxufWh0cyfAAECBAgQIECAAAECBAgQIECAAAECBAgQIECAAAECLQisU8RVsscTu2o+7Xr7LuPmLCkIfEmgxskPydG22YsvNe55AgQIECBAgAABAgQIECBAgAABAgQIECBAgAABAgQIjCawTkNXydFOAOvnsOu0xsyUFATuEpjyxIjvLcb+XWvc4wQIECBAgAABAgQIECBAgAABAgQIECBAgAABAgQILEJgnS5HPBn8c/qShzGo8VLjRhD4rcDXeeCn5Ijb3vlvm/UzAQIECBAgQIAAAQIECBAgQIAAAQIECBAgQIAAAQIEliiwTtN14cCIJ4b1dJj1+nqJG4qePylQfxKn/oTSqNva5pNde5AAAQIECBAgQIAAAQIECBAgQIAAAQIECBAgQIAAAQILFlil98vkqCeK9bXfdXuVsTIlxXIF6ps9ahyMum39sNxVq3MCBAgQIECAAAECBAgQIECAAAECBAgQIECAAAECBAh8WWDKJNvkqH/uYtST4afq63XGiliewDdp+VRj7hjLvUp/0/JWq44JECBAgAABAgQIECBAgAABAgQIECBAgAABAgQIECDwcIH60xfr5I/JY5zQtYx+nS8zRqakGF9gSou1vkffXqtPQYAAAQIECBAgQIAAAQIECBAgQIAAAQIECBAgQIAAAQIPFKg/hbFNXiVHP7Gsv8ev49cZH2JMgbrgrNbvEraPV2OuQl0RIECAAAECBAgQIECAAAECBAgQIECAAAECBAgQIEDguALrLO6H5BJONOvx4ev5KmNjSopxBFZppdbrEraHt+OsNp0QIECAAAECBAgQIECAAAECBAgQIECAAAECBAgQIECgDYEpZayTl8klnHjW48PW80XGxZQU/QpMKb3W41LGfv05MEGAAAECBAgQIECAAAECBAgQIECAAAECBAgQIECAAAECBxSYMu91sr7Z5KfkUk5I6/Pz6/oqY8GfGwlCZ3H753CWtC3XWJ06W0/KJUCAAAECBAgQIECAAAECBAgQIECAAAECBAgQIECAQPcCq3SwTdZJWxdhMKhxsE6K9gXWKXFp2231OyUFAQIECBAgQIAAAQIECBAgQIAAAQIECBAgQIAAAQIECJxQYMqy10nfbuJCExeaZENoNFap68fkzwvM8/QsCBAgQIAAAQIECBAgQIAAAQIECBAgQIAAAQIECBAgQKAxgTqZu07WBSdLPaG9xJP4H/d8eTMGciNOLLDK8mt9fLx+lnTfn3A68QC0eAIECBAgQIAAAQIECBAgQIAAAQIECBAgQIAAAQIECNxX4CwTrpKbZF10cpUc9QR39XaRrJPaq5v8Kbej9vulvspjnRTHF1hnkZfJL62jkZ/fpH9BgAABAgQIECBAgAABAgQIECBAgAABAgQIECBAgMATBX73xNd7OYGnCNRFJ+c3OeX2j8nbx3K36bhOdZUfkn+/ua37c7Ie/22s8kCd6F9yzGn+TfJ98lNGeVjsQeAs8/gm+SpZ95ccNd42SwbQOwECBAgQIECAAAECBAgQIECAAAECBAgQIECAAIF9CbjAZF+S5rNvgfPMsE6OTzf5h5vbeuz28dw9SFxnrrc539z/e27r/oebn+v+Q2OdF1w89EUDTj+np12yTv7PSbEfgVVm85fkOlnbyNKjxtdm6Qj6J0CAAAECBAgQIECAAAECBAgQIECAAAECBAgQILAvgd/ta0bmQ+BEAlOWWyfTPz6hXo/dJ64z0cdZr5nrnwPGq8z7uwPOv7dZ71Lwu+Q2KR4uUON+nawLS1ZJ8Q+BGlNrGAQIECBAgAABAgQIECBAgAABAgQIECBAgAABAgQIECBAoGeBTYr/Wf7K4Kd41Le7rJLiywKrTFJe5WYs/dpgGxNBgAABAgQIECBAgAABAgQIECBAgAABAgQIECBAgAABAgSGENikCxcGfNrgKjZ18cQqKf4psMrd+vYbF5V8etzU9rRNCgIECBAgQIAAAQIECBAgQIAAAQIECBAgQIAAAQIECBAgMJTAJt24yOTzBrcXm7yIVf05mCXF7Z+/qYttXFTy+XHi4pIlbRl6JUCAAAECBAgQIECAAAECBAgQIECAAAECBAgQIECAwAIFNunZRSb3N7iMV32Lxyo52gUn1U/1Vf1Vn8bF/Q228RIECBAgQIAAAQIECBAgQIAAAQIECBAgQIAAAQIECBxQ4HcHnLdZEyBwP4FNJnt9v0lN9RuBXX7+kPxbcr65n5suYkqVq+Qfb27PcyseLvAuL1k//GVeQYAAAQIECBAgQIAAAQIECBAgQIAAAQIECBAgQIDAQwRcYPIQLdMSOJzAJrN2kcnTfa8zi7rgpPLvN7dzbitPFVMWXBeP1G1dTHJ7/yz3xdME3uTlm6fNwqsJECBAgAABAgQIECBAgAABAgQIECBAgAABAgQIELiPgAtM7qNkGgLHEVhnMRfHWdQil1IXnVwn52RdfHJ7v25/m3noszHdPHuW28r6+fb+H27un988nhtxAAEXlxwA1SwJECBAgAABAgQIECBAgAABAgQIECBAgAABAgQIECBAoA+BFynzp+TPkoExcOcY2MRGECBAgAABAgQIECBAgAABAgQIECBAgAABAgQIECBwRAHfYHJEbIsicE+B+uaLH5LTPac3GYGlCFyn0W+T26U0rE8CBAgQIECAAAECBAgQIECAAAECBAgQIECAAAECrQi4wKSVNaEOAr8WmPLjZbJuBQEC//jTRl8F4gMMAgQIECBAgAABAgQIECBAgAABAgQIECBAgAABAgSOL+ACk+ObWyKB+wpMmbC+yaS+0UQQWLLAnOafJ+tWECBAgAABAgQIECBAgAABAgQIECBAgAABAgQIECBwAoHfn2CZFkmAwP0E5kz2p+T395vcVASGFNilq9oO5qQgQIAAAQIECBAgQIAAAQIECBAgQIAAAQIECBAgQOBEAv9+ouVaLAEC9xf435m0vm1odf+XmJLAEAJ1cdX/k/w/Q3SjCQIECBAgQIAAAQIECBAgQIAAAQIECBAgQIAAAQIECBAgcASBVZZxlfxZMhh8DPyU/tZJQYAAAQIECBAgQIAAAQIECBAgQIAAAQIECBAgQIBAIwL1rQiCAIF+BKaUepmsW0FgRIE5TX2V/DBic3oiQIAAAQIECBAgQIAAAQIECBAgQIAAAQIECBAg0KvA73stXN0EFiowp+9nyfrTIYLAaALv09Cfki4uGW3N6ocAAQIECBAgQIAAAQIECBAgQIAAAQIECBAgQKB7gX/vvgMNEFimwP9O2/+V/F/J/2uZBLoeSOA6vfy/yW+T/2egvrRCgAABAgQIECBAgAABAgQIECBAgAABAgQIECBAYBgBfyJnmFWpkYUKTOnbn8xZ6MofpO05fXyV9K0lg6xQbRAgQIAAAQIECBAgQIAAAQIECBAgQIAAAQIECIwp4E/kjLledbUcgTmt1p/MebOclnU6kMD36eVPSReXDLRStUKAAAECBAgQIECAAAECBAgQIECAAAECBAgQIECAAAECbQusUt5V8mfJoPExUON0lRQECBAgQIAAAQIECBAgQIAAAQIECBAgQIAAAQIECHQi8O+d1KlMAgS+LDBnkr8m/2fyPCkItCjwPkX938n/r8Xi1ESAAAECBAgQIECAAAECBAgQIECAAAECBAgQIECAAAECBJYksE6zvs3Et7m09G02P2VMvljSRqhXAgQIECBAgAABAgQIECBAgAABAgQIECBAgAABAgQIECDQg8CUIrfJli4yUMsy18fbjMOzpCBAgAABAgQIECBAgAABAgQIECBAgAABAgQIECBAgAABAgQaFThPXb7NZJkXdpz6gp4ad6tGtwtlESBAgAABAgQIECBAgAABAgQIECBAgAABAgQIECBAgAABAp8Q2OSxU19wYPnLWAf153BqvAkCBAgQIECAAAECBAgQIECAAAECBAgQIECAAAECBAgQIECgQ4EpNW+TLvRgcKgx8EPG15QUBAgQIECAAAECBAgQIECAAAECBAgQIECAAAECBAgQIECAQOcCq9R/lTzURQbmuzzby4ynGleCAAECBAgQIECAAAECBAgQIECAAAECBAgQIECAAAECBAgQGExgnX5caLK8i0H2eQFQjZ8aR4IAAQIECBAgQIAAAQIECBAgQIAAAQIECBAgQIAAAQIECBAYXGCT/lxo4kKTh1x48lPGTI2bs6QgQIAAAQIECBAgQIAAAQIECBAgQIAAAQIECBAgQIAAAQIEFiIwpc9N0oUmLjT53IUmLizJRiIIECBAgAABAgQIECBAgAABAgQIECBAgAABAgQIECBAgMDSBaYAbJMuNHGhyccXmriwJBuFIECAAAECBAgQIECAAAECBAgQIECAAAECBAgQIECAAAECBH4tMOXHTdKFJsu+0MSFJdkIBAECBAgQIECAAAECBAgQIECAAAECBAgQIECAAAECBAgQIPB5gbM8vU660GRZF5rU+n6VrPUvCBAgQIAAAQIECBAgQIAAAQIECBAgQIAAAQIECBAgQIAAAQL3Flhnyh+TH//pFPfH8rjM+l0lBQECBAgQIECAAAECBAgQIECAAAECBAgQIECAAAECBAgQIEDgSQKrvHqbdHHJGAb1Z3DeJldJQYAAAQIECBAgQIAAAQIECBAgQIAAAQIECBAgQIAAAQIECBDYq8CUua2TV0kXm/RnUN9W4s/gBEEQIECAAAECBAgQIECAAAECBAgQIECAAAECBAgQIECAAAECxxFYZTHbZH0bhotN2jXwbSUZoIIAAQIECBAgQIAAAQIECBAgQIAAAQIECBAgQIAAAQIECBA4vcA6JfyQdKFJGwZ1UclFcpUUBAgQIECAAAECBAgQIECAAAECBAgQIECAAAECBAgQIECAAIGmBKZUs07Wn2JxsclxDT6+qOQs/oIAAQIECBAgQIAAAQIECBAgQIAAAQIECBAgQIAAAQIECBAg0LxAXeSwTtY3m9TFDy442b9Bub5NrpIuKgmCIECAAAECBAgQIECAAAECBAgQIECAAAECBAgQIEBgPwK/289szIUAAQIPFljlFS+Sf06eJ8XjBHZ52d+SdVspCBAgQIAAAQIECBAgQIAAAQIECBAgQIAAAQIECBAgsHcBF5jsndQMCRB4hMCU19RFJnXByR9v7udGfEJgl8f+M/k++SF5nRQECBAgQIAAAQIECBAgQIAAAQIECBAgQIAAAQIECBA4qIALTA7Ka+YECDxSYMrrzpOr5O0FJ2e5v7Soi0d2yfqGkg83WY8JAgQIECBAgAABAgQIECBAgAABAgQIECBAgAABAgQIHFXABSZH5bYwAgSeIHCe107JVXLEi07m9FUXkfw9ubu5P+dWECBAgAABAgQIECBAgAABAgQIECBAgAABAgQIECBA4OQCLjA5+SpQAAECTxA4y2vrwpPbi0/+kPvTTdZzrcWcgq6TH5J1Icl8c79u63FBgAABAgQIECBAgAABAgQIECBAgAABAgQIECBAgACBJgVcYNLkalEUAQJ7EKgLTKbk7e3t/f9x83hufnmunr/Neuy+cZ0JKytu78+//PSPi0c+fqwev33uZhI3BAgQIECAAAECBAgQIECAAAECBAgQIECAAAECBAgQIECAAAECBAgQIECAAAECBAgQIECAAAECBAgQIECAAAECBAgQIEBgEIH/H8pGWueywH38AAAAAElFTkSuQmCC;" parent="1" vertex="1">
                    <mxGeometry x="319" y="414" width="94" height="25.55" as="geometry"/>
                </mxCell>
                <mxCell id="12" value="Azure Bing Service" style="dashed=0;outlineConnect=0;html=1;align=center;labelPosition=center;verticalLabelPosition=bottom;verticalAlign=top;shape=mxgraph.weblogos.bing;fillColor=#008373;strokeColor=none" parent="1" vertex="1">
                    <mxGeometry x="343.5" y="783" width="53" height="66.2" as="geometry"/>
                </mxCell>
                <mxCell id="13" value="Open Weather Map" style="shape=image;verticalLabelPosition=bottom;labelBackgroundColor=default;verticalAlign=top;aspect=fixed;imageAspect=0;image=data:image/png,iVBORw0KGgoAAAANSUhEUgAAAa8AAAC4CAYAAABUz2OWAAAAAXNSR0IArs4c6QAAAERlWElmTU0AKgAAAAgAAYdpAAQAAAABAAAAGgAAAAAAA6ABAAMAAAABAAEAAKACAAQAAAABAAABr6ADAAQAAAABAAAAuAAAAADerED+AABAAElEQVR4Aey9B4BlRZU+/u7rON09CQYkDTAkUYKKov5ZFlEMiKtrXldWUQyYdtVdd3GNP3V1dc1hUVdQDKyYA+6KAVFEMLAGECXJECUPM9Pd0/G9+/++U/XdW/e++16/nukZemaqZvpV1alzTp36quqcm959SS2mBUEgTdOktv6G5bWx6eFaT//S6Xpv3+S3/muouX7DUJo2B9VJktQnBx70iPGeBx83kY6u3zQw2D9Z2+eQe9E+kSRJKr6YRwQiAhGBiEB7BJL2TbGlEwKbzvvs3un4xiOToZH7T15x6SGz11+9f6235361JNkTf8tqzeZwLalXq0ibNWtLauO1xswdtTS5GTJ3J8t2uXHouJP+0EzTa0d2PfQ3ybHHjlYriNSIQEQgIrBzIxCDVxfzb2dVt1yz173nfPTI5oZ7jqtNTx3fWH/XIQBvOaJQT61/oJbgr5Z2d+JELgKv3JkASrNRSyc3gZ5OobauZ9Wev8EJ3aUDxzz2opG9D/xD8rBH392FuZElIhARiAjs8AjQh8bUBgGeXc3cefPxM7+99KnNidG/SAaW7GmsPKOq4y8BfD5gFQNRUWEY0kLAQ5mwnEk3Zq2YNhDUNm28pu+gI36d7LLbl1c8+K9+GM/KMpRiISIQEdgJEQh96U44/NYh4yxr4N73/P1jmnfc9DfNTaNPqTWaK2tLcAWQgSoLVoQN50devArEljbIQredcbX22gWF8tNTNZz11ZKh4ZvQ5xeHnvR3X1/yhOf+Kt4r6wK/yBIRiAjsUAhU+d0daoDdDia97MJVGy769jOnr/7dSxCljkwGBnvnkq08W4JQSFdZeVlnO3qZr1D3Z3vNibGp3lV7XlDfZ82ZK1757/+LIIboFlNEICIQEdjxEdjpg5cFrZ+d/4LpK3/+cty+OqDWP+jOsspz3+bMicGHiUAqELlcFGvO2lwt51VduXSozjzsI6TbmeDsTC2dmeZZ4a/77rfPR1a87bNfRBADIaaIQEQgIrDjIrDTBq/04ouXbvjl106eWXvVv+Jy3L7J4FDby3pVAcUtCReg2gaXYN1U6RAtlA/LgXhlMZTnZU27rDg1cdnwSc9759AzXnoeaI1KwUiMCEQEIgLbOQI7ZfBa9+5XPXH2mt++vTaw5GFJb5+7l1WeSAQDPYxRbppXvUKPgk5ZTzt6mY/1Trx8YjFZMvK/g4866fSlT3/576vkIy0iEBGICGzPCOxUwYtPD45++zNvrqXNF9aHl/W3C06tgQFnNf7iXSfAWuWwNCqCFxcMeZk66XMc3X226Gs2a83R9WP9hz3sPSuO+ZsPx6cTu8MxckUEIgLbBwIL5TsX/Wjvedupz5hd+8f31peuXJMioHQ18HLgQb38xGBVwGoJJAE6jp+9KxwWA9hcslQV2l7Vf94d7J3BMxy4lDjy7Je/cujEk3+Zt8VSRCAiEBHYfhEI/eD2O4oOlt974TdWpJd8912zN1z98mRoadeXAjsHBX/ZriKYyZQq+RZaOThCmDxMLrwFgYq8TF1+r6wwsZBJZ6fHe3bd4427/tsXPuwUxc+IQEQgIrD9IlDwcdvvMKot3/iZdx06ceF5ZyXDI8d0egNGGFTCcpXWMLjkIabIWdaxufWynHppR1d7u5xPJdYHl3x215Nf+7r4to52KEV6RCAisD0gsMMGr/FzP/rEsR98+Qv1oaW72H2nitmwIODPfuYKCGpXbuqysyHW2JKnAh/IYd2VCX1RJpf2Jeh3lykdb6ijwOvHUKBVVcjHR+snxi8b/MuTnrfshW+4qoot0iICEYGIwGJHYIcMXutO/5uXz2685721voHhLRlg22CxALM6l26FNRe2gsuHc/XdJpBl/bEdCS8Vvq3v4AefvPL0j1w4l8rYHhGICEQEFhsCbV57vtjM7N6eu175xLfMrr/rjASBi1IKAsrbaVK7cvIp8IU0yVfR2NaOXpaTbtHz3hyltT3n7NhHcE9MEgV+3v/CXzK0bM+Za3/77Xs/9vqniS/mEYGIQERge0Ggk4/cXsaQ2Xn33z/x3WmzeXra05sFnqzRF+jI+YVePfhQ2V4mhrL+UQrT04avQG7Tl+SVhzKO5h7PDyeoyMsWUlxSKeQvt7GudtMF25rjG6f6Dj3qRbu87kPniD/mEYGIQERgsSOww5x5MXA1Z2dPr3UIXNlklM5O5PjZHoYE0ZU7x+9qCgLSKR7Vs7zUl+hledGpR/2EPKLn/biS6gzIxo9cNOpkmfRQF+lWtzOwpQMzV/36rHXve83JpMcUEYgIRAS2BwR2iODFS4UMXLhUmGEeOvCMiIK+4SWnzjY68pBfdTtDI0MXqRwcyiJhe7mv1tBSli7WKS8d0stLgVVfiFY7NYRlaSQND7UwgH06XkIUKjGPCEQEFjsCVf5ssdtcsO+uV570j2lz5v1JX3+B3q5Cp69Bh2Xjb3OJr52uTvRcd/HyH+lMsoFl8SonrVMq8FXYXGjvpChsg57m2IZ1/Yc85JnxIY4QmFiOCEQEFiMC2/WZ1/hXP/nUdHbyXfkZVxgSquEOOcKycVdd4mNw4F8hleu+MeAVB9+joTK5WFadQYaJdQs41k/xsp8xeAnytAQmb7Pjwyd0hPrVR9ZeKmTt0INXZu2ChzjO4ffjSmyxGhGICEQEFhUC223wGv36xw8fP/+cM/DrxgN60ZJyIZw5ZhG6zBVMjJ3BoRwgLIRUKPO8Yb8FXSWRMMhY2foJgl0WNJ1G8kimpMosMq7A1nb8oX3SIxreQrLn5M9/eE5679oVaot5RCAiEBFYbAhsl8GLr3ya+M45n6GjJaB00nS+ZcderpO3Kslxh23tZMmb8WfBJZTM7RFV9qmeyYtQyrN2X8jqnq9cJ5l9yOZye7ke2iOZAq2376h73v7qD/nuYhYRiAhEBBYdAttl8Gp+95z/4M+ZhGiaE/aX3UK6HDdzldke1uXARWdeTO5SHmXIm/EHZznkD/WzHqbcvpDqypm+UlP5TFLNZf5O/VJG/CFfJ1qtp6/WnJw4hV/2Vp8xjwhEBCICiwmB7S543fuW55/S2Lj+JbzPFTpjA9VfdgsBlpMmrVxmPdTBcsiTt7lLeWEb9SmJL2wPyxmfD3Zqk5xy8am9nKu9nItPelQP+dhWRRdNsk4G48UDMLPr73znpvPPeXioJ5YjAhGBiMBiQGC7Cl6T115x4Mydt/67vWQXYUeOtwrI0BmrrDzkD3Vkj8b7y4FZXQIVlwmpM9Qh1qo8f5TCtXYrF+oKxxCWydNJH9vIn8t47ooxURf5kv4lK0f/+2Mf5K9OkxZTRCAiEBFYLAj0LBZDurHjH6au+hTOuB7OJ+rMuXohOeTQeYdlsjFw5LS85FTk9VCvtZX6cvzuM+y3RQ4soikPZcNy3vvcekPesBzqqyrLBsqoHPKVdVkdY0/6+lZPj96+6T0/+OVFIX8sRwQiAhGB+xKB7ebMa8NZ/8Y3QDyj1uPibehsWQ7rZUBdG122UlgmLb+71KIHl/paaP5shXS1KVcPzEWz3MuQzt5lQTlnu+RUFg/rSlU0tVXlZZ1VPJU0vLFk+srLTufTnZXtkRgRiAhEBO4DBLaL4MXLVlOXfP+NyeAQvH4eaObCK3Tw7coKFXLuIV+Vfmv3965YLvMX6j5ghTLSyf5IV7+iK1e76uW8nRz5CjaUBa1elC7zsx7SkmUrR6Yu/M5bK1VFYkQgIhARuA8Q2C6C1z3nfezVyeCSB4T4hM5V9JDGsu5ZWVlMvBSmMnKGQsmJj7n+AlYrhrIs8y+UF7/RSg9oqE06lJMeljvxqa1dzn5NVxg4S8z5iEsNvlq2hTg2pyeeyd9Iq5aI1IhARCAisG0RWPTBa+LLn1rTvOfPr6j19mVBgs41dLAKHo4WfPrgUYC0RJOuzOl73dIv3QUdvqI28UoXm0VjWXwsl1O5TXXlIT9pVfSQJ+u3NE7ySJY8KjMP6+KTHvHhqwm1sf/97zexPaaIQEQgInBfI7Dog9f4b370Uvyo5J7uF4Vb4Qqdr3O0mbvNHLQcsaRzDlHowB1X2EZKWZYSIU+uobrUylvUWKwVA4lklVf2gLOiTu3STx47E/VnZNLFdmsTgXwVZdLqS5cdc8/bTn1G0ByLEYGIQETgPkFgUQevTed9du/mXbeewu8cyckKpbLDZnvodMlXrku2mp5fTKPusn7JMpe88rCtXCYP/3J9eanMqxbJqF2XP8t0a8cZlgKv+KtyytprrvwZmdXLjHMEQv7cTHr37f+IA4nBsmisRwQiAhGBbYnA4g5eF3/3hcngsL0CiqCEDldl5XL8IXikZfS5HLPXT336o65MnhWfqmhqU17oG8ROdkqGPKGcZFrfrSgJ5S7wdrKrui3rwSmyQOiLUl3Km9OTx2z60sceXSLHakQgIhAR2KYILNrglV524armvbe9sFavZw49dOxEKXTIJTdsIJLGP5MLHLM1dvFBuXZ6Q/HQjpBelEWtdMmuSq4o47SFfGG50Bd0d5KtaisiGGrLxx32x3KCe4+Tv734VUXuWIsIRAQiAtsWgUUbvO798beeUEt6DhAcdL76C2kqMy87WrVVO27XSplQTjLMKdepPXfx4mbuUmuf0OQv2YU85b5ZD2XDeplXPRm9pDvsQ+WqPNRf1S4MsjYEr8bdtx03/oMvPiSjxUJEICIQEdjGCCza4NW8de2L89/pylGhs6124jkPS2Wnq4BQliVdbdIQ8qg97DdvdyUnX6ZKm8vVGvZFWlgvSrha2M6y6tJXRoP0vK1KY5EmfUWqq0mPeCznGezg8Mim//niU6pkIi0iEBGICGwLBBZl8OJRfWPjuiNr9R5zxHpggc6UDpR/cqzMVZaTBaltkqxk2jKWGtQvyeon1BGW1S4VbCvTQj2Or/jKK8kyD3WHdF2GlG71o3qBdzMqbfXw8ufs7HPw4MbAZqiNIhGBiEBEYIsRWJTBa+rnPzqxPji0C922OdDSJTE5aY0+dLKhoyc9rIf8kim3l3VLJswlIx1sc+VWirUF97okG+pz5fYt0trCYbiotRjUW/VXY1HFV6apX+UMmunE6MHjZ7392DJvrEcEIgIRgW2BwKILXjyab95561/xrKtTkiPNXbdzzmG9LC+ZkF7mL9dz3vYtGU+BJegtCL4FFi8YcGaqWCjTy7KuPefKS4GaIHCG8pW8gVhYlJxya+sf7Jm+49b4na8QqFiOCEQEthkCiy54jZ7972ua01P25nihUOVo5UizNjhp0STXTZ7JG3MnDY6Tn7yMKTnlJo4gVah7A+ailXsVf5nu1bXNyN8iEwROCkp3lZJ2baIrpyx/lmb2T384mr9qXaUr0iICEYGIwNZEYNEFr+a9dx1fa872ctB0lvyTQy7nYRvfwBEm1STDS10qqy3kd+Xq4MM2yZgO9MWcNOkUT7lOekhjncnR8BkEwio+cTqpgmSlXtmZ8UN/qEN9MA95y2ORfEgPZQzv/sGH1a/59f3FG/OIQEQgIrCtEFh0wWv6qt8+Fk+z2fiLbrcVEjlitoRl1UPnrLfRF2gludBRU0eYyvqreMs85Xqoz5WhxQdCtVXpVZtkyONSaw8tFAb1EjGXl54SiwW8vC0sFVSBb/bmtY8M22M5IhARiAhsCwQWVfCyS1CNxgN5NlJOVQ5XPPNp4/lXq/bWsyjq7qS3rKPMG9bDsmxWXm4r662yIucpS0trKS+dlUpeObmpybQR+4C/zCPNouPyYQxeAiXmEYGIwDZDYFEFr+G91hySJrUDqkZPZxm66szZgi5HSrl2dLY5Pqcl1MW2qhTqrWoPaWXesB6WKdNN39ItXuWih5cbM5ovtPAGDGpTribaaHYGgUttZV7R+c7J2VuuezguIdplXtFjHhGICEQEtjYCiyp4jZ139sH4YnLhu0N0nHKeCgKsZ87Wn6WFPOIjeGFZPKSXk/ja8gRngzmPpJw20tWmvNwP6aGUK4eUogRbQl1ZGUGmnVSZLply3+xJbZ3KsiHUSzmTbaa7b/rhuUdQPqaIQEQgIrCtEFhUwat5zx2HJ3hzOZOcKh2mnKYcpuqO0XGGNMkqN75Aj+p5Hkq7vsuy5Utprr3IRS1OU35pUhzKrc8gEDobCq25Wb6U65X+Iktbad9PcXShrLNT8iFfPoKcX3yk5LzJSDo5Wfih0FwiliICEYGIwNZBYFEFryRtHllLmzbS3DnmA6+ihQ5VnOJTLnqYF9tyLUW6q6mVucpsCeuh7pzLOXnySa/yIn+xVtarPotcea2dTj4RGMq28hXbc40subayLSGP6eOLk9fdfXBIj+WIQEQgIrC1EVg0wQuOtidtNtcUB5y7WzlhUeRUVS/KheHDtZh8yxmP5/P0sA/qlWt3ZReA1B95WVYbe5G8ctKYJMOytQVBJeRVWXrFL3m1k85UrLd+90x6yBf+UVY6xUNaOaktzMkT9pssGa5tuvh/sp+tKeuI9YhARCAisDUQWDTBa/2Pv7m0ueHuPfiDh0oKHnldpTxw5JRiiQ634GTZ7B9GKNAZuDy9qCGvkZ/6mCQb6lebcsdZ/Smeck5u0VhmP2G/pIXtVi8E4/weWAuflyVdbRqH+qG+qhTysV31jBfYJc10Xxx89Ge0WIgIRAQiAlsZgUUTvHrvvX2fWqPRx/HKocrRkhY6XtaZyo40q3unHspnj9+jjXT1EQauAt16cHxOT/jpGh3FMwaZ6Jk9aAvLOavjrGpjS6gn5MnKcwTdvB9Xopxkpbvcj2Sq+NhWyd/bc7/a+huGJBvziEBEICKwtRFYNMErmZnZAw7Tjt5bHGThDCOHRA5YgSmrVzh13v+x5HP1ISdtOrKgl2nKAp3cfsYPZSyHddeB+ySdWtTuNJYv7bnWkC/UwbL0yCLVq/hCmvoNadRhegI8xadc/OpP9Y55kuxZG5t23yzvyBgbIwIRgYjAwiCweIJXz8AIzokseIWO1JyoDziiKycEVlZgqsBEvNSjcsgmJ23BDXpcvcgZyoqfOlgO66FelYvt0t8qV+STdDGnVRkfAhDrsjSjF0UKtYxfeEEH5aS3kw71I4WSsXqSLJuanB5UW8wjAhGBiMDWRmDRBK9af++uGmzoRJ3TdJSQXsUrGmXkbEMZldUW5mqTDuYhLSyHPOWydHbLX5ZnXTpYph7VCzp9oBXNeIIzKtGpQ4m0At0HsQJNzKW8zFOsJ8MDwyN2ybckFqsRgYhARGCrILBogldzYsIuO8lRK3ejLtaKjrOICznZXsUTahEfpat4SbcUBASRpEc56WFZfJW56evYY4tYNXeRajWdUbVoyO1rZ2c7ekFViEVYBtP02mvyJ20KQrESEYgIRAQWHoFFE7xwESy73xUOs+iiw5bcIYfUtvxwtmyjk2bOWlcOu0NAqOorpFXqhz73L7S6WJadoXxYdtykhL25sbXyOW5xKi/ziV6wpBSgwodbVDY9zUZt4uLz4mXDAnixEhGICGxNBBZN8NIg6Qz5R2dqjrHkQI1mzLm7zWnWkH04uudruUSW33/KBLICZHy/1FHWn/ecCVQWyCf5UAfpVTrES2XteNiWp1Brtc6ctzgO2aZxhnxZuUPgJk/We7LollE2hFiICEQEdkwEFqXXkWO33DtQOXb+EKRLLviQLkp5ihxv5mKtuVjLJaTfUVALgl2r/m4oThM59UeK+lfuuNxnyCe6+NSj6uV21cXHesjLctjGdqtjnGU+tnVK4s/0+beidJKJbRGBiEBEYCERWDTBC6FomgOTQ5SD1GBFZ1AJ2zI6GEO6yZUCH2nkNz4GwSwQOnqoy+TbfOQWOImWfivlXH/qQzlZKV+lgzTjC84Cye+pWaks6+phD6GEiWUfWR+eQinpY65yJoBCqNnZV6/1HfUXjZAnliMCEYGIwNZEYNEEr/qSJePhQEMHKScqWn72Ve1cxU99LFOOf3LEpoeBzQc3NM2ZJEtG2UGN0j+nAnKWAm8oI53V/ThO8eQjKdNDjZ0ui+Yacp2tNLaF7aH2QhnBdeiwR04UaLESEYgIRAS2IgKLJnjVpmfvaTfOFgcaBAH3GAYk4UDFJ6cbBgLqJl005aQXUnA2FtJD2U70Kr0hTTaWdahe1a6gRz2V7RL2eTc8JZEtrKbjU+NjM1uoJIpHBCICEYGuEVg0wSttTI3hPMYuHXZjfeagfSF7g0YbYQUQyTEXLRSZSw95y3LSybawXMVLWqdE3WX95Kfesm7Smar4XUvx0/HlWjrJVbVV0ayHNN04MNg/Wewt1iICEYGIwNZDYPEEr76+2+FWC8GLzlIOM3e5DgzRdemP7RnN40Wa5KraPVtBTnzSpZyaQl1OVhTWwnJuC6n8y/WQt32ai79KT6HnNmeOlHN8KPmzVMlJp+q0Liw7a/Pxiz+7Z5imt9VG+guXfZ1M/IwIRAQiAlsHgUUTvGZX7nELznoQvPLvX9GBtjpRB0RIlzMNaVVwldtVVy4Z1kVTXh1+1DMl8zJLuRzb8nrOFUo4nvCzLB/KhXwsq83yNvfxCvrA6GRyrNvpzOn5YypZn+prtnFHbcX+m3LeWIoIRAQiAlsXgUUTvFYc/9QNPbvucUcNX3jNUnAWIQedtQWFgmMO6FVF6inrKtfbyVXRjQY7Qx2yRzTl5GUb6/wTH4otKZRhYydeCXfDQ16GIcervIhJaFvZDspTVn2xPa0nN+EhmsJZM/liighEBCICWwsB+aCtpb9S770XfmNF39j6kyYv+f4R6cZ77M0MSV9/kjYaT6sl9X0rhdoQQ0ebs3BYaFHw0xlCzlAoVesosPiK1xs0hbJhOWBpKZKPqR34c7U76W4+W+3tLFXiJ34eu3BsKmd2ps1fg/MHabMx0Fl/sTWp90wNPv7Zlw+vPPi85NhjR4utsRYRiAhEBNojQG+1TdP697zqYTM3X//5dOzeQ5ORFbVaTw/8Y34GkBvDs5kqes7BkhypUQNnW+RytQJviaFTm4UZ8+vOXYe8YTlUKbrychvrCwV+2IfKysN+rcyzxEq8WzjbEtrq9hJsZ6oan2SzfGKslk5NX7Lk0U9+0bIXvuEqJxk/IwIRgYhAZwS26WXD9LILVzFw1dLGockyvES+ju7bONIwcNHRySG64Ti3mDlAjRG6Qj4r6+wLPFXOVKKVeSYLvYHuUE9Ypg71L7ryUD9poos/bN+SMvWWdbKe0drgzT4zHlaQQjm1lXPHWfzU2IpUV1Nbli8ZqdVX7HLMxIXnnZVefPHSKplIiwhEBCICZQS2afDa8LPzX5BOTxxa6+ELyL0bzAJE0TQ5N1JZDusKUaIpFy/zLMFZF1Px/hTbyBHqED8DlhLbq3jUzlx6cqmwtbUs/taW+VHKdpVtVV12KS/3UtZTbmddusRbpauKFuqqaq8vXXbMugs+/fiQL5YjAhGBiEA7BLZp8Jq5/OIHJUtKP7gbnNGYkbysFVgblkV2jlPuU9RiTrlqjtZLkdV8ub6yDVX19v3leljKZDFO9ZvRAtaQxrLqLneSogVilUXxqT/llcyeSBnyiVd5WaYdnXzUob5DOcqIrpzt6eTEw0K+WI4IRAQiAu0Q2KbBy4woBysQCw4Q7WE9LGsQ5vB8A8uhAyQP65Irt6mduUuO0/hKZ4HSIU7lZTrrIU3lqr7VxsulTPwMX3dlRNJ8QTpUd2RHDWnik7xy0x/oascnfuahjOid5MpttCv8K7dTp8ZcGMPMtP0sjvqMeUQgIhARaIfANg1eye773lJrNlscczvjSA8dH8v8o8PTJT05SZCyJIco3qzBF8J29WA0H1A685dbpaGVrn7YEo5D9cy+ioAubdQR6gnLxuPPVMv0qv5CXeX27MlM9FalizTJMFeZNpT5SVMin9pDGQXvjA/rom+vfa9VPeYRgYhARKATAts0eA0cfdw5zdH1YzJITk313M05SsHZgUR+ySjPZYul0GkWW3LH21lHayvPFqi3yi72IbrysN+yNtZDmspVsqbH9x3qtDLPVEtt1CF95TMc6Ve79OlggKMQj8tzTpWYqyxe6Snn4mNwDMvUQFnJpxNja5c/62XnleVjPSIQEYgIVCGQ+ZOqxq1BW/e+15w8c8UvPlFfumJkS/SndIbhmRLqdJB0hlWDEl152LccaJVcyFcuV+kSj9qUkx6WxdcuJy9TaJPklfMs1jGBK8TCUef92YJpNxqIezd9i485E2U8rTkxtm7kcc/+u+Hn/P13XWP8jAhEBCICnREIfWNnzgVsHf/BFx8y+YOvvTydmTm4We8ZDE//6I5VL5dlgtpZJ09Pkgw2RtftV0t6ViYD+M5z4EwzRy9hOVHVfS4+5SSzzESQQroR/Uc7esgTlkP+zdIP+9NJvImpXh/vGV5+bSNNJ0M82FeIW7s66ZQjL1NZB2md2tjeLoVyYZn8rGd9NRuTePr0t4MnPO2spU9/+e/b6Yv0iEBEICJQRuA+CV4yApeq+Mx85stE35x8/Y+/OdS84GunNO669a3JwNBK6giDw1w6FVSUh/xVtHbtZd5yPZTbnHI6NTHVf/AR7++//1FnLPmr59+1OToWkUwDlzWD94EtIsuiKRGBiMCiRuA+DV5bA5l1737VE2evu/zLyfCykY5nYOhcgYU5UyUYpTO1UEb8jsaaNOW6TfECfaQz07X+gw9/+Yp//OAnFkhlVBMRiAhEBLZLBOR/t0vj2xm97p0vPWP2lrUvr/X1twQkBR8LVRZv3AMKVUDkvO16mpte1tGpXm5r0Z7U/3fVh7791zhbmW1pi4SIQEQgIrATIbAgl+wWG14D93/o92vTkw2dCzEoKClIWcjCvbGqgCH+nFfSc+eSdZzBE3YgFNtaz87UX7EXT23M1upLl38/Bq4iOrEWEYgI7JwI7JDBKxkZ+TOeZJvglNL1VwUF0qoCl2SYK1XJq62cS6+ju3CloMU2pyv8dHaIR/pU14Pr6dRkbfDhj86+ZiC+mEcEIgIRgZ0RgR0yeKVjY3sheLU8is+AoL92k62g0a69QOf9MB+OJMfchaacs1xXQMo5XEk6Qrpkk8Gh2uQvL2wZU8gbyxGBiEBEYGdBYIcMXlNX/9/jk377mbDCPCrUZAEBreWAobaCYLuKPZLvNLTKtVKopjq4FXllE3OV7Tts46NPxROa8RVK7eYj0iMCEYGdBoEdLnjd87ZTnzF703Wn1nr7WiYxCwRBSx428lLQbMVQrhBQAkbxSEv57KrY7r5MnYu7VskyD/+MD2d5zclNx6//91e8IpeLpYhARCAisHMiIH+53Y0eZyC0fbi2/gZ+V6w2cfFFw5su/u4Lmxvvfn3SNzDMcNDt4MTrckq5YEK9TGp3te4+t1SmWh5Bb2rTVO++B316ycFHv3fwcY+9N7Nmxf4TeJhjKqt3WbAzufU3DHXFvmJ/fsd40+Y+NJKmNy+prZ/t7teWV+w/jb44puJkdGVoZIoIRAR2dAS69e+LCoexL33ksZMXf++0tNY8oJYm5njTxvRqhKvhpB++MXjDRmh4GBCs7L/D1UIPhUrlkLfUZNVie2sgbJGBDQggRg4no6gnkCI/Ht6opc2ppG9wrVoQ1O7o3ffg7yXHnvTxlY9+2nrR2+XpvWtX3P2mV56aTm96Cl4ztXs7vlZ6ckPf3vt9acXbPntOt0Fs9OsfP3zTd7/0qqQx+9BaUi/9Jk5rD0ZJm+OIW1f1P/wxH1t+2jt+0YYrkiMCEYGdFIHQX24XENzzpr97deO2G9+PLyH3hAYXnL0PSu7cywUGu2eEIKEBe2pWD3V1W1af5Zzy3eqXbKc+Qx6Vy7mNbxonXlMTl4087SVPHXryKbe208lftL7rk2/7am1m6lG1Xn8LjQGUuIWpigaWdNN4rXfv/T+1y3u+ctpcZ0aj3zrzuE3nfOScZOmKfUx/WWe5HvaPcjq6fuPg45/1iuUvetM5paZYjQhEBHZiBEreanEjseGTb37E5K9+8pNkaKldegqNlzPnCFhmatfuWoufoXyxpftaQYcPoAXaHKpCXpWVF0Sz4Fyg5pXx9V/Y7ayfPS8nFEt3vOT4TyQzU6dlgavYXIj51kQgaUiQ0onxWt8+B75il/d86eMBuVC898JvrJg+650/TQaHDy80dKqoL+XgTTfee8uSJz7nccte+IarOonGtohARGDnQWA7e2Cj57lJvWeAfi3wbS2zZe3+LEI+l7ROaa52yUqfctJVLujgGQWSaOIxov8o08QbyoU00ssyXpVlakt7+580ee0VB4ZtKvOsq7Zh3ZP49pHMODUqlyLVK/JkaLg2c/2Vz8Elz8IZcMjavOi8E2Dw4W37CZlVrugbfe0zddnFJ4kl5hGBiEBEYLsKXtN/+L+DwkfgQ8celm1aS8EjnOoK/5g1sy1v91qDQKh+lFMwLLuao+R6yjyuu6Kco3X6lD7eI8vs9LYV5ZKV9WZj1yLN1Sbu/vMBuHy3zGpSWMVIWmhgWGYbZZcM7VH7vx/bS5BJKqf6kuEHGI28lC/rCAXK7SXb6sNDh4bssRwRiAjs3AhsV8GrvgTPZqT6kQ1NXCePGAYi8ec+tOgfnZ6iD/Uc7QJhZeCgjJOTZcWas8Nrzo3KpAqkLJCSv2ibH4e3jVLqr6ihWEt76jNGkQGdhMTDXOVQXbPJJwLbp9nZ/I0gVfJlyTJPYFs6zd+BiSkiEBGICDgEtqvg1bPn/hfCiRXmrvx9qkIjKoH/KzdZm/yl9KjewlxF8GdAYZPklbMNDzXA94eU3K6QWraVbaIpN31eJ8stiQF1dvaPfYc8aG1LGwhDj33OlbW+vpuyJzJDA6oE2tEwdtx7vDp52KPvbsdS33XVpYW2sK9wQGQK2yQU0HqW7fIbkWMeEYgIRAS2q+C1/C9OPLvWTP+Y/YIw5o+BIUzO3zla4PsqfSPlJF3OW/T4fkKdkg9pfBUv69JHHgaKQt2I7kP0UIeJ4CNsK7db8CmN3eTGR2t9Bx72X8Cl8re+QJ/uP+CB77MftFQHzpS8Q9GVqz3I07ENGwceeux7A1JLcdlL3/5LnCl/JQuUIUfLgNDI/tSncpDS8dGLVjz+pV8PxWM5IhAR2LkR2K6CF4/yl5/6xmenM1O/xo8y2sylzSZ8Izxh4Q+XFgt1BI9SvdxeXQ/0oB/xZP35tUM/m/vi9oGqvNQkozxsD3y38+lV9gc20bbmhnVjfYcc+eaVb/j4h0Jd5TK+o/W5ZHj5G9ON6zfWZv2VP+pvekuYq86cyed8ypBP//U+8KGnzvX9KwTKdPd/fP8r0omxr1BO+FXm7IP9Bn1bXxvuuWjJSc89LTn22FGyxBQRiAhEBIhA6CO3G0TSiy9euv6333ns7B8vX5P297W+xHArjyTp6d21NrXp+HR29qhOX4q27zXRFjl+FIuAF8OesZZ5cHaV4vtb9d6+S9KBJT9PG7P3kK+cevsH7x1+yqk/HfiLJ/y+3NauPvWz7x0+8Yvzj52+6vJd2vGU6QOPePSNfbuv/nGn75GVZRDseyd/dN5xY1//xINx4NH1fA0//tl/GHrGSd9LktXuSKWsONYjAhGBnRaBoi/daWGY/8DhkAfWvfl5L2vcddv7ksElvQpQ1MRzlQxYXtrT2UupmwJfqU1VnGFO9d1vn9Pm80YLycY8IhARiAjsqAhkPnZHHeDWHte6d7zkXxu33/SuWg/iFzojoMyZ5gdu/lCHdOB1SrWekRUdvwjseoqfEYGIQERg50Jgu7rntRinZuULXve5dGbyetqmYMVcAah7m13Ikw7K4Z7PZSuf/Pdf6F5H5IwIRAQiAjsHAjF4beE8J6vvj3cI1n+js61QXSEQWUNOmYs/wcMY9eW7XBkfVAgRjeWIQEQgIuAQiMFrAVZC0phueaAgDE4su7CVU/MwFhjAhzN8FQ9m1Oqr9ohfzA3gicWIQEQgIiAEYvASEpuZ8zeq0nrfagYjF3hcWKoMThV9ZMGKbXiwQ3J8inH2+qv3rxCJpIhARCAisNMjEIPXFi6BTV/65vF4WONRVOMCT/ldGqK3dsTAlQWrcjOfUOzteQzfpF9uivWIQEQgIrCzIxCD1xasAP7I4viPvvox+64X9DAYKSCpnH3Xq6IfBa6Mt8STDCwZmPrFhR+b+PKn1pSaYjUiEBGICOzUCMh/7pAg8LtYk185c6/pe2+axy8Fzw1FT0/vyOz6dY+ZvvbylycDQ9lb1RW4yhpa6YSdVCVXF59ythrX9ORt/Qcd/pneFbv8qNEIXnYr8W2U96/c987BZ734Nrw5o/iCyW3Uf+wmIhARiAgIgR02ePEXfCe+84W31+o9f4H36/VqwAuW4+EKnBl1rS4MSK1C5WDWymGvw2rzZedW7q1EqffUkr6+X/fsfeCbdnn9x767lXqJaiMCEYGIwJwI7JDBywLX/57zzaR/yUpdtqsKHlU0IpbRS2/HyOhzwhro6IK3ksX3zT6ZOk1UaFdYdpKt53ikV/G1oxd4EUDxZv+pnr32P3nXt376a+oj5hGBiEBEYFsisMPd8+KlQp5xhYGLgMr50xErVdHYJrq91olBhH8h3WqtH93obpVqQ2GQQBN75pvqO6Vya25HbrfT47Tk7cXAxtayLkcLqMACPwg60Lzr9n/jOyadxvgZEYgIRAS2LQI7XPCavuT7B9vTfz7ghI6a0AZuOKsVaaUJ4KU6H0jUEuoMy2U9bKuiSY+Courk1x9puWzYi7jb561yOUV6RVEeaiv31vL8JLBNJ0YPHr/qgoeHcrEcEYgIRAS2FQI7XPCauPg8e2u5HDCds8o5qHLZrS05T7EkPZSQNDlULmtqVxe/aWdgDBLb9OfI+ZeWxVaUEDUfY0E/mh1/O6lWeXKWz/TKOk0qqfc0kp49cg2xFBGICEQEth0CO1zwWv68f7Kfng8dblh20FY4c55NoLGiJZsN6mnV5ZpJlyxz8YpWlhOd0iyX66SHVLVnery9jq9ol3jZlvGLsSInv/hcHmrI7StQ02ajZ2TZHRXqIikiEBGICGx1BHa44FXbs/fGWmP2J+VLckQydL5h2VDGWRAdt5w421t4jHHuD+kgZ1gOJR3dBUyWQ75ymXaENLPNn7VV2UjeKnrYv8riM52eKJp4qE9/pBlvY/ammd1XXyaemEcEIgIRgW2JwA4XvPjDhb0HHv6e5vjGqRp/aThw+2EACMsEvOCwcVZjzhp5mAo8YYMvF7krGFpI+eugWpoyu4taaYPZFuQM1BZQWpXMSSnrkv6OYx3f2Bj8yye9eeWjn7Z+zg4iQ0QgIhAR2AoIFD3jVujgvlI5dubbTpj83S/e3th475G1vr7+wA75ZY5dZTarHuakd+Ipy7GuJLmyPrUzJ4/aRa+qh7ziC/WLFuZhe7nMPpRkg+rMq2g0dDqd3HTD4KOf+u7lL3rTOaFALEcEIgIRgW2JQOjEtmW/26Qv/vz8ph+ee0S9Ppy9BWObdLyDdpLOjI4tecJxV/DsdgcdYhxWRCAiEBGICEQEIgIRgYhARCAiEBGICEQEIgIRgYhARCAiEBGICEQEIgIRgYhARCAiEBGICEQEIgIRgYhARCAiEBGICEQEIgIRgYhARCAiEBGICEQEIgIRgYhAROC+QGCzv+eF71DtPjs7e/DU1NRBaZIekDbS/fALu8vxTVb3C41pbQI8G5Ke5MYkTa4fGBi4rre391rw3HlfDDT2ubgRwFqxtYj1oS9UL26DF8A6jLkH420sgKqoIiKw0yEwr+CFzTY4MTHxxEaz8SyUH4r3MKzBC5j69BYluR2+lKmc8B6qGQS2tXjx0q/6+vq+jGD2fWzc+HPyZaB24vrGjRs/gOEfi792X4IewNp545IlSy6YL0zQfTZkDsXfVJeyXMb9PT09Zw8PD3+qS5mMbXR89G04oHsCCO36w7Fc70eHhobOzYRiYdEiMD4+flqj0Xg+DJxtY2QvfNqL8ffHNu2RvMAI9HajL01vXjI5ueq5o6Ojr8VvOx3Gd+kpUEledR4/13Hs7I6j8e4jX0bWh/IhkD8EZ2snT89MXz42NvYBOIYvxSAmFHfuHOtgTbPZPDrF+mr30k20/wVQmlfw2pRu2ntmdPZxWIN7ZQdaOJLi75S5t1hCI150zGjFdtKafFEzyjhIuxfkeQcvBK5nYA8cZvsCilp+E829WPmj0B3TdoAAri4dirVwDNao+Tb5O5qudYPgtnw7GMoOY2I7H5ENcNOmTY8cHV3+w6mZmTNBPIwbWxPHSWNinWUFLOakZXSUuVdJN566vUj2SDiisxEQvzc9PX20KYofOzUC9Xr9N1heFriyteLXFetcY3AQB80XpGQy4RnXrgxGTLZ+GZzYGXIGKup3wQr9sM3zor+94bTCd2M6JR0+wT+C5W6vJLNxIHQxWb9eDj1M4KzuSl+N2SJHoF6rF64SaX0yNyfadHO8yIexQ5nX8cwLp8ovmZmdfT/2+FKeTYWJk8Y9aZscOSeQLOYQPCOOVkAvHnVyA1NWOViPm5icvACXI1+Ly0FnedGY7YQI4Kj2Kh9SCqNHLMnWFxoOKTR2UcFB0v2x5Aa4PpVs/WLFchkrUKnNnJHWaZLsgSsF+6PtGrXPleNgbA30jtCf2b5gJ6UE0kR/f//aEjlWNxMBHDDsNzk5+ViIt7uHyPuLPx0cHOx6HqtM4brhetSaob+jn4tp2yPQNnjhkt7ps83Gu7m7bbIC2xR82MZ502mzsYCZdW5aF6DcxMoBGS/anPMwCTDWlmLDn4k+V46MjLzPU2O2kyGAM5GrktkZjJouwV+6Q82CCXN3pLSSl7Hn83JgO1uDbMJF6FN28OR0GtV8ENc7amYB+OEU94D8wSB17fQgswb8Q1RtuvChda/9gjH9CTyFo3nUY9pMBHDw+7AZd3XIaQD2pZT29/W/BLSu57Ek7w66QeS8cn3wUjD/WfJZWSbWtx4C8guFHvzNyXfbZkaL7W/kdtTBicNEhcEnVBIGMgU5+gzTgQ/pUodZH/V6DQ+C/AcW4YvUFvOdCwGcifwZK2U91w0v3XFdcT3xTzQEhpVTU7ut7hYZ8POS3wN4BGZrFgsw0+kdjq3noGxrkosWifc4cOZ2oFW6/GjWmmvQrx0YZusbY7IxQIffL1dBd7ub/132FNlCBHivFEc4wJlOisHF/XmnA+KWJc0llwaDFusZbYu1b5ltO6N0GHds/LjH9f/NNhrv5aatSpwsbn4lcwioaBJt3Xgem2S3jhy7dwiskD+ougo6nZ6Z+SBtcALxcydDYBOWy7VcF1yYXFtcT8VFmixD037zwGUFeA8P+amPf9StI+diHyE3eOt13jPrOs1Oz+5nDlQSfi9xzftiDWeZm30GILUxr0bA5haBS/NczbX5VM4hz7x0EOQ0gRjTNkWgcNkQR4uDeIDifdhjSzE3hcSJIskcStCCDTmLhuvqSf1nIF+LTXk3jlTr9TTlkzeHNlM8HZbWeOTa53auO2KhCtvI3ND4Y/JOaym+P/Y+2PIExLIx1xI/dwYEMN+bRsdGr8PlvaOxZtwBDhZddoBkCzAdwNrYt1s8cDl6NwSofXgUbuI+XJkD8uuOurI+SGNjcGTVaDaPQJ/9PLbqpl98t3GfegOKvH4FSO4h3gNmA3TF4NUNmPPgYbAyyDF/hjmg1kEyUd/i5PVRD+9zmf9C2fkvP9lb3ElU0C0CheCFM55TscHwOKgmhJPURhVubaHpf/C9mw/jJuhPsBkrL4Fg0/fiRuqjcD361bgU9GRNuAVBbe5Sf/Abx8CWv0XP835EuY21kby9IJDUrk2wCMP1QdPNCXEtYgHh4GjvboeD+1WHmXywjt1ZFhedaYGfSzdB/zB1m1MCWf3b+k9TnrkN4W/O4IX1vgwHgBZcKcsYqK659ulUkc1gv9xuvcePBUNABwc6WDDFAJ2hjP8XKlk/VImJzNblAupfKDt3dD1uH2OU3HS453QaNxiTbTxOTrb1HN2OMtLaup56/dSlS5c+jV8YbRe4KME28oD3r3vr9RdgEa0zhxD24RcC+XXAC6fzatg0QFpMOw8CvfXetebgvTMw5yBHwdWIMtbGAfNA5CFlXlvbWIjm5NL0UhyAnWY8WHy2/rQIQXTFdDkOvvjQRjeJVxz2IyNt1QbTOEgH+S7si1tZjmmBEfBzSLyZbJZ92VE2/5OHHS5A5jrkyzipMW1bBLS3anhQ4kQ82ntk2L1tOD8rZHT12mh/X98z8VTgZ7EB2z2WGqqxMnhTygz09z8HKtdrcYWMDJzsh0+VYdEdBpueFrbH8o6PgHPqib2VIjuA4kEUnIM5IpSR+EDEYDdo4BL0g3kAZv+gg3r0R3lc5v4drhxcCH03sz+uQcshweQP5hIEzMLesMaKD1ymXAYHt4dst5yODYqyzZamd+JNDLdViEfSFiAgfLM5JO5Izp+4+XSUzfukV5LuUIOtTb9QQnosb10ENN88mn1K2BUnhEm5q+HLMoP9/4wzqQtVn28OR/GD3p6e18NZmKib+LwfHtnY4S4WAxzPifPVH/m3ewRuhJvhWy0saf3ZugCFywZrZw2KI46j/Sf4hhCD9rIAwtAHxfyz5J0NeG5EwPwz/tYWNKEj9qn+Z5vNBxfa21SwZvfnI/mSI1u2ybxMvad+B/rb1EZFJC8AAsQ/WzMMOvhbqBTOrXRyzmPatgjYvsIG3gUPVjxeBw/h5Giz20auJ98b6Bv4zJaaiPe5nYnNez77oX7l1GsGybHUao+DbXtsaX9RfvtBAGckN8Lae3iIG65DjoB1WxpJsjfuoy6da1T8sjB8yl4mV/ItfBQfz+PXcMnwOq9nLUkhr/YDO027fLMHHtY4SHYV/BkqtpeQ4+Gm68UT8wVDoEkfZX4K80isCwcNpfnfrF5LOrK1wvWRLZbN0hyFNgMBe2ADjuAhcBUr+EYAzgEn3jYyck6QCzBprafe+ykEnTlvWs9lB3Q0xifHz2hMN7IzK/VDWV4ecindC5cO16C8oDe3ERATvDXhYNz4P6qRNh6AFc+nIYdB70G+Hg5obU/ScyXs/BXOMtc6W7beZ2DPYbDpEDhWOsBdMAl8QnMGlz3uhS034O8aXOb6Pb4PdQ3KlQ/IbD0rc83ECWtmX1BWw44V+OvDmXsT+UY8Vv5n2PcnlDdrnUBuCi/RvcvWANYfkzkJ5Ob8mTu/dACKHedmNp0FT7qKjoU6mLLcdCfrQLqKdASxqxDs3AZA3ZwgcvWJ4mqMezfYdxfKbRPeaXh/NlLenCf6lQ72TTMwh5v9WijYsAJnd4fB1geifCDWC97XmCzlnCT1ZCxtprdD/3WYh6txlePyueylrVua0PcA7gkeDrsO5n7Cr0jsjTW8Eut2APkU1y8ehLkV9zO5fq8B1lfArgX9gnZaT2cVrIS3cptzF1y6vs1RiQnWjPlF35jr94urUsgROT9VewbzNAYsbvV7pt1LnDtonl8T7cDaOQT79TCU+b7G/TE3yzBnQ8g3pc3ahr7e3j+Bfi1suwIHk9zLW4bb/EwscMMOoH4LbhHso+cfOM3TsGlMTxseDaY+LH6bHEqTg1Nim5CFJPkTHPl5KC1IGhoYunB0epSb2J4Go1ItDC42cx7IATLfe3gp28OEoHYcJuEtGEQf6GQvpzrsfQM2Ch/hzxK/Qza2aey1zUbzeBB3470QJluIrohO+fy/xYbb8Xbwn2LTfQyO4Kfoi0gsWALmI1jQz4Sz/juYcSRs2U3Kc3tw+QpHFVYHQHhd1zoE3svxRfJzcQb7FdhEBzyvBNlXANeTIVQVYDj1G/CAzQvKumHvauB3yujY2BMwWfuD736wrC871nDXZu6GfTdgTBdj4X8Gf1eAb14JDu6Ps43Z47HmLNjY2AMNvEQDp80gcUFAbik2Z5preMHI7PNzS12cRb/WNsBpXE1B6KND5aT3ksdeLo0K+XzaF2PfB+WOwQvO+v46Ci/bTT12AStNLWB6vV1lwPSImcbMqXiSkS8YPggm2ma2hQ8jOWkNrBPLGw3um1kElBs5D3h7/SexF36+0OsXa/cQ2HQK3oyD++XpwbBrqYsRDjSuWya02QZtNGZq9ZmZcYzlauyr8/t6+j6NffUnY+rwgXW3C8Z9Nlj4MEzLXkd7AwfC2RUa7dIy/jOzM6dv2LDh74ADD1Kr0hIcuH5v6fDSt1Y1ksbx6SA/7CfxYy3Lwba9sN+eB/tPQtsBQAR7HF/3oC7HjGJyD3zZTfBLFyGIfA4vK/9NWc+W1mHHCqzfvxkbH3821jruA9d20V4goHWsTNa53rFurDsUuZd/B1/7RcwTX6A+768uQfb10Pd0KByvGANfIHAtfM0/Qfc9aidmsPXJ+LL/CcAN7xZdhrfVjNLPMw0iqP4Y+YsteGEw+0LY7XEMQJPCnAC7wdUuAU+VswPH/BOBwAL+AwLFYVpk4fsT3SYAqG2+IMoBwrgTNAFcVTxaJ/gmyw3TbGYLmq8UGh9f+XYcHb4G1vYyaFm/4Of4OE4btxPWgPbABnzWdGP6mXCm52Ii+HMca9W4uTlsT7Dxn4vvNL0F5UMMexoAW2hJEwVhYTbKJstruMRbOz6dnT1+4+jo6bDpnVhYn4UOi7Zd2nQ4kDrGAZVLaN6BB3+SBEc7LsHGXmzA17A/ALwqsxfN2GwOPJRR5CjwvSpsUHxXa3Jq6hWQ+fzSkZF/g8yNTtvcn3AgV9sXMZzOFgEGBxwlHtzSUCKgTxwQ+DUBo2gq1wetJL44WMvOYHEgcDlsHUMTv9RsSevf5iBNlyKorkZDW8fCecVmu5+bJmLj+rS1xslFAwJvE/N1ne9izgw6V+Ng4S0T+CUGjGVJNmcch0/sz6qeZlOS1ri3D8RcHogDnufNjo19E47ozTiY+IPkNjfHmluD4PgaONwXwb5hzgeDJswwOzRub4fbX2i05YGvJGB9H1WbTY+aakz/PQLfJ+Gs34+56nR1ZRDjeCz6sN8KtPlgfxiv9QHNtodpQJDYziR+FA9FP4caETbTXyhxXXAMOHPu+HuD1GndBLo5Ln5vKEzApQdjeyXW1Bux6HZPEoQHCDubDQljN1JSWwX+VTjYOgr2vRIHHP+Ng+63LZCv6ecBJ+z4V4xujfVMW/Oh2wMt3BhuL7Mhw2YV1tsJmOcTEPj/BfP+dqzdc2HjfM7EDgXOR/Ogjfgyca6YuG4x/vtN1CbM1wCD3ompCWL2Bhi4e84ERm+vyTabt4IXiCLhS5j300IzAXywHkx6rbe/9//UtlA53tR8uS26AEj1yUlmgpH7ulLxE44EhwdJ0y0GHg05AQ+IMUPWDiGQLxsdW/EFBLPXocEF7KI6W1ScNOfdXKNABso4sEr/FpP4EzjxJ5VE51WFLfthUX99enbmC5gQ/EQMFgq6ZXK5O3pmOaODUXiQj5OW4HVaYFkDm86Ew/w69GaBmjydEjbRFBdDvoUct/qDXl6+sOE77Ma+BOzeCxG7BFelm7K0kTqVo8rLRi/GYrwQwfpxVXJVNKyLP4TzQB7ptDL6gnUdgxfs7ofNR3JD2tNm3j6Th41mby35Les+4aGNmjkut8Edj8bFecKBzwPE3CbfF2O2t8mrnboyJ0kHUavdjLZRtXfK4XSejbn9JbB4MWyzwBWug2x9Qgnp5nzRAbcC7Wa7bXBAABuejuB1KdbvaZ36nKsNDuwFeAvOxcD2H9DHMMC1PmQL7QjL1Kc9yT3KAzOjufW7tJE2X4eDuAuh9zhrqP5gbJjimPinZHWnzvoQPcSINNZtTlGWPG0xeoW89FTlkmdbVqZ+gu4T1t7I2PjY5zHWD4OKwMW1hBlAhTJhvxRhnZg5PrzMoVY7BWcrF26pr+FBBtbPt2Yajf9Ct2tCkKw/3y/XpxuLw4R1JtpL3GgXDpgPwc9YfYHjwvhcYDGu7j64BoQXy/bHbpJaY0ltiQVD2Pof09OzHwJtd8cARp8oInxwowAAPmlJREFU6zCCSL0+C5twpRjRLm02l9NIAxY5E+tMpNkGaNZuMcICfuCsaq364ATSYObsU7ZgkfFSQZtELpcEhuRJxcUTaq0BlI/hgPfpObcPAL4vOjeX3CSqfxs3GqjT/vA2WBxxfgPB5xQvMK8MzuOBsOV/sKifSn02Xo6V+vnPBu2PItnukxY9qypnC87e5VZ7MhzA96hfMnPldvaCRWp2eGbrPxfkWqnhUsaZ6MuwI0yGFQpmR2Aj9RhufiOwTPz4h+KaqenpryGAFZ5opf426UZz82ik3lC3+OE8ebQK1W0TH+jAJTxDKhsn7ZHjwvr7taSxGRo4E/sd62znALUHOE+Ug66Hir8qR3DbBwYtFzbCg7zSBZt51jXn5Rc4rjdB3znQYY/dqz+NmLlh6xGwvnzZgjVxQ138HsNl0PkJrN93z4Gdusty8A/BpjPgwD4DtfYEJ3UyyZasLzCozXG4z4K93kEaX1o7FAHxO7gP/uSQv1wmr9sneUthjGzl1HkcmGflYK2TFspJm3hVb8mD8arN9WeGiWT+Bmvob0lgP0o2/sA+0tUn25RIw+bbD0+4fpkHMKLPJ8dB7dE82IYBJ2qsXJdMzNVfaJ9rdRhyXOSRnzF+MGPf/S3Wz3exHvZz/Fv8ST8zRt+Avl7Lfth3mDjnTGZP0MZ6LzYu7lu4zUpjmZhTiU0O2nAaO+eGM8F5fAAAvNnA9wf7BJT1D7JNLB9a6JDMw6JdA9Zi4KrBedkwNtxL0Pw8q0snCOTjn8nBBumhOd4k65UOPdPp5PqwqD6ORfUMY+jyA4HlCFxG+w7ssN9EMzF0ZBj7saNn+8dJoT0O+2IHbGPihMpO8uHI6Ej08WX+8KLj6PwJaZMvjg2K8rQJR24vwr3BZ5FkdvpFROdOB6mgT1szLFkOMCTdsMUvByCAnYX5aPnSMPWHCZe2NkJsrekhNvhj/0ykGS44osXlhr0ctfUTTpqXK5aa3ZCRjczNuWP8uBdUuN/CKwHUJPw5G0xZ3kwfhDULa6oT+twfvMOU1zyR02yH4ZREn7xU2fHyOzB6C3S9A7baVQLp0FhYJw5h0gYnjfbKKUlGVqNv3g87HQcl/y+U71TGmHfBQde5kHu5rTuPQDgvNseBEvWnXO2yO7MX9hgP1sfsdONznc7ATAcUSJe60xgFCutZPx4n0pjKuaPmdNXb5ZKnzeyDOWkcDw6G1jHY4OD0lGx8UCQe5rSd/CwrhWXSTBdy4D6ES76fZCASbzc59xiCwdcx16u5FsxO9Mk1abYEfUufbOLBHlNoa8jDhYXxHYX18BXY1/XVHq/W9e/9iMYNv7UXxvhPwsxsJEb682OgHeG+YpkbxDYJB8okpTTUyhWDNcYt/MDgbRMbcN5QqmQdXWuhhfYWe8QeZaMNmgI+CQQ4gA8i0HzIwPCAWV9etwClmMSZq0PKaTLJY3pgG9qXYFGdAdCPJH2uhHHuBt6zYMIawxiz4nTnWCtIynbT6Y2iPZxItlGOiXpCO335sNnR2TPRX+b0HHf1ZzZm6sYfk40RQ8QmPBmXLl4rYMxe69U7RhjEIGb8Hk/ZRltC3bITm2kVHOAH5rbvlg1QeaPp8XaZcaFe/Lhk70xv2+CFzfAgslPOHIbHzewimLVkLQ7ICvc3YN+V5Nc4iInmw8af1lZ1CpgYG868XEeGC+XxJ2fLMsZ+Pftol+C8X4B1+zbeIxGG5LX+NQboITbWh/rze5e8Zjd4wsQh2x914Gy92Ujf1M1RPe8Vw1GdDaknsz+NhbqzsUI3bc3Gyo5wNMV/1il4aW84D9ZEW2wuvM2434h7Kx8FRtl9R3BkyfAIQAnHSduYQpzCetiufST7qafbxDF4kwvzwwrm/9n4Ox3ryJio1zBn7vGxJm+r+pQ9mY0Ah/3YvklqKxCIiEl2D1pyVTn49sCbkv4bbfvIVvapfjVW4aS6dGlszDVnbJNt5PcyR+Ne7H+iv7l9jR8/9Zis78SytLYafuaLaDmOfdBmJpZps5XZp8o+Jz3rmEIBnW22+NhBmW6NC/RhT2ahA95Al+G0FKBwfdfwC3LtngyiYWQhc2YNwVHAgb49bAF4WjgOP17ee8AfnrRMk5Wg9dIOA87nVOx05rnvbHcsKjriJ2Gx8h5R24RJfhd0Hy3dbiYwPvSRT4o7CwN1CnZe11NPbsFjz9Own5e/VoO2Bm1wO34UmbCTY+duTOmJOPJ6Dapd/S4a9eFIym0UKnHJLi9xE2rsJLNLLWgULbGdyeNpZS10o8FckzM+zml6PJzmC8H4KWOu+OBvdeE+2XXkpX71IVbTj/uYuISxp2gV+eHCytYAx0lDmAhh04LIbVb3HzgrugX3BzbB4iEng5ItMccAsaV9s318z+GtoZzKwGs/jZ00jp+JurzNPDq/xYgVHzjAeSDOzt/D4BL2a/hxTwS2GLZpyicfr4VdG726lRghLpXmD52Qzr6ztecZYWsdB2C8fHgpyrwPV5lwr/gj0GCBy/DEZGgd2D7zumka/q/FWC/u6+v/A5TxAYwZ8OCAJT0obTaOA6sd7Ln5dHq0nNU5ryBgfbwK9X8TDTkjeb+7SuMOnrQmODaVyW9lbqqAqGLOCx3gpf0up2RBxBHKn2RGknrqY3J5yuD1DtFcS75faIOtB+Qt8kCO7Zl9pbkGUo/ApbqXQifmonPCgcZ/gMMeSsnXsJPhvHmTne/hve2kdjWuRNyGNYDj/OYwOPcD237ITdzWrhMvfNJWrJ2nY65o1xmFxnJFnYJODGSXZxtGf0fJMGJjdgY5+YQP24BHP/pOFLyyAEEmpqwTdmyoG3nBPxR/OKOujC5goSa4Y4eccyDBAZUAcWuXtrPRJ1tYzfTmnnrPl3p6e86HI7kdE7aJGxlpBRbfEXiq8DlwbI8BLwIaxAki9SAZJlQH4+gIkZ2AyXs+KG0dMRbdiTgSepF7mziDAY+qfLDweq0fBFHY8Ek8un0uzghugM51sAtzZEc2qxAoD8MRyqsh/WQHDofmcAKvW/jIeQaHB3BeiyP4r3V8WgnjYPe0hVgLJY1Zjp9jJw1jn4A1l/T19/8Q/V4H3MaSXlxubtRW4wvux+KJlhPAtzttyZKXZUcGm1+hwPkF0PFFjK/tpWicePw5ncVoYRznVnMg3bQPetoGL7StkYzD142QY2XCjK/lhnU19wncb5ycmrwJDvRQmko5wwE4Uxds7kOAeTC4vxfKsYy2fjiONTZO9eFzo+EDSPNg6QbyV6Xp2en/B5Hd0X82ZmcDZanFrUEc0P16oLf3A6heMjh49+36YU7YMAL79sI64aPrr4GuNZShDptkr4M06gN5DQ50+BDTq0krJ6zd12HtvtjPgEkYHlTI//izuanV7uzr733XkoElfJyaQaslwbZl6OtpWDfvxlqyy02aC+oR3tSHuTsN/J+ELn0tYQxj/ijGYE8bmnKPrS/zCs4DGrWmPUxlQQ7t1Ms+uG+ZsEYvqPf08GlRPqLtkvTUsdTSZABEtrdNtI9jr0pujeS+iHsG74C9tC9JLsRYrsHYN2Z7ptk8BgaeAD12T5M28gDDEgw3bFR3QJ0CTM6GHh2oeOY8g494ytT0FL52A08KWV0eN3zBZraTne+m7Uk+gcvkX8VTtjeCsgF6G9DPeLA75ulI2Mo1caL2EMote5D68PNZr4PcNyH/Z/JUJYwmHxvnxTNRnvqdT3Rz5ZcWfE0ND1Alt2EMG6B/xtYH+HFfug8HHf+HtuyUz572sEUuxQDAHLSvb81MDgIGYTQaWhc94iFAcLn1BNGqlIEPP9jTW//I8MjwO9DPuipe0PhE5dlw/Hw0lM7BjhTFa2uI5vnFxU2Nzf0qgFvpiEHvwdM5r8FisrisQMFFSsNpMoeL1quWDAw+H4HrV+pLOUTpYOkQ+HcBFtYrcHbwPgRDPH2WY8WidELvXrPN2ReA/634mzNRNsPJc7tFhYrNR4Lv5PS8ocP3T87gvTZ8xfGNCP4vw3wyhmbJzMQgfcDH4k2PwUY7CgwXZUylAhRcT5IWuMcp46J+4HtQRggKoO+BB1j2F0m22PyRCGU4ULha7cqB9Z34HtCtMN+OXEmnzbQhGENln2Dhq6gO0JxStmA7CWm6HgcUN7BYTrzXMzUz8yzaaDrAwDHjf9Y/x4GXW38E88BLU5NlHaDxYOAa/gGDr2LtfRrf/XoCnRgT9ckmBSEc6DwXc/GfeASaclmC/G4Ixi/j4rRAB1mqYZmydtZF42q1KwcHBp6L+5SXZ8IVBdhGp/tZXM79/cTk5PehaheKE1e0OeOg1/YIfsKGexDN51KVl309y+0SH/bATQgLXgZgwGjDx+Cxv74A/M8OmuZV5Mil2+yG7ZkDgibOjwIGFs4FQ0uWnI4+6VOq0hnAmN8BOx2BgvcS++QfxEx9WneILEfhwOQRaPuB2sPcLu+OzfyzA9PNs9o157aYktrlvfWeF1TtZeBMX8MgxL/z3cFL8z0clnRxvEyGKT5gHw+AngtS2ys95vw8cOEa1L6kPrMx5Zlg8vnhwcGzcRXkV7CHByVtU2aUGePZaKA2rZFg/VZLXMEcETND14pu0lyxwycuOkLUDzzjI00gm2oELrxP8WUjQyOvBSDtAlcmjwV+wdKRpY/F4rrAmyYTHQ/AIt3sxWUObLSTMuGggHsXj6TzCO1hmYl4e9tvx5ngc6sCl+MsfmLRnYGjULwbUiN0m8YWup8nlvF9lZNh/1BROqiRhzZ4GbaYQ0NuY/MY1nt6P4YvET65arEH2vCb90O3gucVGMu/ip5hx77wj/PEMdMJILjSObVNcIbXIcLgEp6TCe2UfRhfZSDBmcdq8Kwx2WDTUI79Y5yz2Bz2ZGHZAHugAhYqyfGrDnAOQr88Qi8k3AvDG1pq+5l+jNecmMc222R47RXWHw9CWhKDPokmT4xoJ+Q1bs42XqFxFjB+DXS0BK6yQvD8eWR45Lk8S3Pr1OFvcw7d3N9M+FyFdfqUCvm7MAdPhz3ngckWW2abxwdXN6/Cuv3ruQJXqJvOHHvxDVRIfbSH6mzNgqDxwqbKPRXqCst4OKufOGuNUXeAu1izK0wizCe3MA69TLRf+8fZ7sZjB2i15Mxly5ad1CFwmQ6bo5GRV+NrSP9slzD9emEjj/6Ej3wxvhB+vAlWfOA7rI+CTziWMkw2YX6OWff0W/r7+p81114mPxNepP4+zNVbXc19hhi7NYTFkTafx+AZ8hXKsIkYMXF+szJ3om9Dth5v9jh52dKlL8EVkJ8Bm46Bi7qy+c2UQDk7yBrItQ2TDUwreK5+7VAoX0Qcg5+kbBNQBScAE9b20l5VNwDvrr5lfacAB7uJLzwy4P1kUBavxHlmlQ4cKT2bdMnIEaoOJ8jvz72728WkPrCo/hP2na86g47Gnemu4fH0qanHiqdTnsvAzfm553hx3+17I0ND/PZ74fJaJ12w7T0A/+u0yWFWsg1za/Q0ObaTHgSRa3E5YSPt4Z+tT8xvmIDfwVWBBI5vH3TvAozfwOxT+KO4CQ73ilBXULagZv2hX25Q4UMe9HcgsuLlUTZM4PVR+F5bZis8Mru2Pz8GnO3dQNZygs7V+DL8owobGzJMsgPVtVgnb8JclFBwfFWf4F0HHP8FErMhjtCa7W/2iSP/yvXLoMSfMoJT+VsGKumwvnCU3Nfb9yqcsRWe2Kyyo0zDpapvYT5uMaxgi53FeSauG795ifO8k2xUTgWGWNeode6SeFGfW9s5L+1mn6BftHRk/T8A+zmdr6SHBoc+XK8nX6FerRmUsnXPPplwvHqcK7V+gvv53h1ao2RMJ+TRzifG31w+w27VVKRgrt4Nyi84NqYQV2GA9XvExMSuvJxenSBLOyzgI7c5BidtMn2g4fLqa9DX16oVVFPVv4vUnocdyfsbmNWyC0rlIKxfaOWgdGTTsRMeCvlZop3lRH0Y4CUA5QPltm7qPJvA5n8z9WjyKGegg0Y67cSTW3yBcMGhod6LIxL7joW3IxsXdXACscBvwX2Cz7I+nwS5BuzCU4VeKis4vX7O6jhS42WGjsnskB7P6cc629vT+675bEJ1BGfH79XBGK54t0DVZtiBjPZ9gBEZKhP6vRMQrddCr2TCgyygD5fbuJmIgeZN88S+fboZ+d2qhDn6ZfAqWEZ5Js41bOLTUYW5tja8rorLMUwcvpyIeaV67Q9hu8q4bHcCutyLdY6X/YR9ciw4ADsbtlWetUlPVQ5n9SPg8RMtERtDy5zUDoQNlcECfabYP1/GlYi/xJnfe2DXRurCvaNP8QpFVZ9d0Hj14/fUw4MDjZVy2RwluKyIR/S70JWxuLE5DImjxpwxbGkB9lJnedWa/W4cs3h5wn/oHuR8uhvsH+QXmqfokPmnsSi3Pt1Zf36/zncAnHbD30MyZy469xnXoPt3JdbCeb6p6wzzP4uDro9r3Byr5ou2eftwwyx/T22LcsiQj/ZxP2iOqZO6QP8xfy6rRW4OQjZeFqTMA+U2kQ1+Di1b0szB4I9JOcs2UIDeMfFQA0ab3Z5Vk005TCjvbfwXJmBTRz0dGrFxv4HmSwiy8LEJ9HY7/2zvDSt8FwMODt8Jqu1JGSbaJUdMeTvl5pv1k2S9MczzA47jp8Co5aiXC4M22Xw26MSz+5otPdA28oeY2diczZegj4tahLogYJP8CmP9k80NbDGdHD308o8JfY8gu59V2nxA4ioD3bfbmqAOjg8fKA7ggZn9yuI4k2jZyJK1eUiS33JTluVYx5jx9F4yqnljX1qXVsY4cGZ3cFkWZw+HhLRwrBoz3pFZGbzwgMJD+Gg8E+eDpbBPVCewjn+MfN4J40xxoPMVjZ9jMAyIo/8DxquA2UM7KYeeu+FgXg9dJ+KM/Iu4B/qhTvxztOEGvNuTtEvrD7jbdNMu4D+AS7HtL0VVdMCxGda2sN0+MF2gQ/WCJK47szPQx7ny8/UbnB3/z+Z0BFx/DtVrA102Frcq3LgASz8w2a2sHwceh2PIh2jNlNvN19Rq38cc3lNu66YO2y7GEO/WnpCM4Y0G4oFJPFL0co6bO9maztYcmDQ2BPz/Lst0U+8VEweePe3iiVQOwLZuYgcEwHdkk4cySLaRDZh2FvgHNgiiJRTMpXldmKzbsZgYfLYo4dLel/HakmO00QQ6ldrmQI6XSD4cWbZw4ZCOwAiWwgaHIWySY3IOFLL12p0ILvvhJjYd+XxSikuCsxjsuITCheswMxAOQPsy/PFIt5gMK0ciflyYGhftxCWhS4oC86qNY9xX4Ab0gcSH48WrXDIFbpbSXmy6js4JOq7GjWpbl6YDGvL1QX3pAHgYSLInxIAn3y94hPETe8hreUgHZH6bGdNaIKZ/hOgjbG4lDCLt5mx6R39uSRQvpiWQxmhNhinqbm4Svk3+mpIM7RuEvUfKtnAexYt52YAy30rO92D2id5NjvsuYwjwtvYY9bVe1Q/rTNDLtTJnwsHcpWDiX8fEeQDDrljbuwEvnhnsir9VoN0P9uyF8iO53shFRrdOXMAxDHHQhdcGZf4JLHMm4k1dGhsFiCtpC5W4N5TK66PeW/+Z2uabA/8G3vV6Bb4ec2goq7H49dFbn6q3XGkA/34YI9+tmyXZZjmoeF/oBDBfjfmgP+g6QWYG87cL9N+BP7wezs2V7FI/WMg4UE8HMY6W+7HcMwxgTJLLypg0rNHKgzoT6PBRXBzc7PjHLconX+TMUNx6yYNhi8yNz46s2SftYAIowIQwlZNBmQU+cJqETTTlkwRHM+0fLS1ra1fHEfMlM3haU9+ykiHZxEEQPPuF8pjwfVkXj2EJQWex48RDFa/C95lenE8pZ5hbkEllP+tGC9vsXaArOWDTCSm/wLO5A2lviHGxtwYv2+kecPVmfeDDWZAFBJG7zTlXeLnoBtmWPV3pR+cCmc1ptsTa6GYQkT3ZOHOrbY4PCGXh4PeH+buSxrUcdmCI4jl0HEm2BBHpgO2TmJMrcL/tESGuhIS7w8bE76WUEubyfpopQmv9cryU4we+i4U10ToPbn5Wk5/9MWU5u3O0VXgt05eyWrZGyG2jyjlJsuQmGN8b47Lox5kd/CI0Q5/vxmlhBSqqLoU6PdWf2JO8fLUKznBX/PTM/vaViVpzb+yDvfH49Go8qbYC+I/ACuR423yaLqED8+NxRtBqA5TOzZGqdnm1Ba1UYsjBanzksHlAP/i/5SlU7LXJXtqPn1G6bEs6wZV2PBbuNBhOnC5PYNeEC6mn3AceflrD/pX4sId7atOtJe4/52s2voQqUAt78WKiSQvzbLaI6XJXdXNFbp6FWpygtsTe6cnLvH+mZDkJJ+rgvsxSUt+EfTGa1edRyIIXlevGKZWb2aAZfR4KN4eVwBvAEOZiZv+kceJgQoPOsJNex5tz2IJltc09hpyzuxLOou6GDbjfkOzBeWd/TMp5yQebv3AJDDIrDERh6GU0Ei+7DMPlb+lkugwBP1odrbAvJ+eUqN8QFG5aJrYZF/uFY4Qzz+bYcfhP1278XIhaplZ2LLwvtPkJv0MGB+cgoEHWH42zObX6XMpxprK2MdMAm3N6xMDGh9ycFIwGzgeFejBPR6CXEeRG1pqmrJNP1kOm49ggeUX4lnB3iRJ2Q4cFmbS5H8bGs74pdoLyKjyav7vss479BiKNIOD9odfjAYh7rS34wGWgQbDYy1sFismQh3C5D85hcLnIjc1YIKx1or3jRO1HLjKbWaBJpo8MSNxp9p/q8JtgRpzjA2f8D4SzeQrOFh8F6YdBAc+mnOnQg++qUXHeD3WD0eaDZZ+45tlgq4H84GFy6xcEgj3PlK39QG5L9AVqrMhD4zoUak3ZvHJwTM7ejuvKMbb/xDrDKTIQ8TixH5sv0dAV1ho3RCEh6Ln7pWw3WTfXYnJ7hVdgoM14MAbkfotYH6i6OeBa1ZgCGi892kGnt00+ljrse4lpbQhro+2VFI0JFsosy+Hji4RCa+cKN8UM/rDiHP62OWGQGySpSLAQhnmzHWkhPrGgC4N1C5ioFrTTvurk51a2Kiez6WrW7qgWnB8V93DG8b2v9ZjUPYh0eCaR2Rz8hIhpN2fQOi+cRMqEtsoaTqMWhfiyNo9JlazRMka3gCkPffh+ZPVlJnN40ultyhYY7MCaajn9Vxfd5raWwEz7bE5hELssHx2304f7PHdBkGcruwgv00V13mY8FMOzyyzB7gdinnrFxw5DWVRvxaWvGzOBikK9r762iauyOLS0Vm5m04cqh4KPlTjjuD9Kl7OKMu9t4ucjXF/MKcP5pAbb+O4tFi3Bi5fGZmujS8hM3eH+o25HpV5qokIqBxVZOC7yst24yEJeJDkX5kyku7E4Qj7nrY//Own3if3/APz9K87kngrJpXn/ziHamKnS98PuyWMYMGff3nxq5BE7U8YuXraBUXRj6vKD+rV/QpEs2ITEzSibW4dhwp0Dkp3cT1h75kc3Q7WJQEdmfthHhnUbxeh6mJtK+yqbU8+vgy/qFE9hb2IubDZsMG5eNFeub4wTbWyRDjdwx8tuoIEHczwbr0yZPohoLboDqVxHpWAHIsdAwCfNSD8T7CjrwQvDkazwxQXLMNjlUsb+BToBYjJI3X0tR6j4DOXYTNkM4Ar+zSTxaGfadHs7OQGsB/3zDf0tp/Rq50TZBDIPxkp7rA5dtqCCNtK52JgobzpAs7rHiGXykJcpy70+R2395EZksjF5m6xOPV4X6wuZZGe2Q+dQjmvhdwHnW8imcVEH/4iF6cMXkoF79lQaXnl0YOZSIKw5Ug7Rm7Huqi7focml3qT3Oqz/OymTJeiyfUEC+sPZ2wPVhv55Rr4q6MOauEZoN3Psn7XoN9Qo8SwXfyactVCPE/VuxlpMt9fIsv7IGvZEvUyik4+DsdxaOn/gS6gvQdC6GFzPg+rCGRp1Uo/NSdCvdLNv2VKwA3SuA7XRAq0L5aTNN1m/6Ii5/sI+5quvwM+x4o+J64/J1iCLPP1YoCRMpa5cFz3MOVYGqTBRzmSx17VfwvkgL+23uQtEKcM50FgNRz88lqVDGJS6pdpioh1ev8nCGuoO13JRoLsaxotjOv8UikCyjqCddSVcKthP5YXKca32ADka9VVYcBx0vXZb2/7kgQMGynMymDCutkcCjqPrzwEgjR/dg07a5BduKA0HNoP+8lP6NO36Oq7p9HZbmX34Py4iG4/NdnFOPCnb9LSHNMoyCQdXa/0kH3nCRSTZVu7No6gPSsspEcduEvC8G8YVrqFTh2GCgZq+JNkLZwR26QpzMAQADsl0E4wwUaZevyYkVZURNPHT5/ZGk6yZGMl+2IVu8i9I4+nDvUhTCufAaM6OyktKuGyIl2DVJrK1hYrNAWSYh/PBuVKdKvmnOXZd5O3sV/LiNVvwITnm4lFbOUfgepP9HlSS2AGCYQ8mytFmsxv7QdhQXjZWlU2OFvC5FzDIfvIKA+abk2QDlXNsC55gl/qgbrMXNBvvZtpcZaMwod6sXOFzJAt/tEnjNXz9vApHthETJemUDMckOdLYLh4bG+riYZ1/YbvjsXtxITzqDgLo38uRSFukL2eaf4mXDfkkyl145QFLpkEGa/Cs45e/Oj5Ka4Lz/MBNxCM4CKi3ZP34RWB924Dn/gXe0F4DCTqcrmQ/r3qLMlwWWg5T7J4GFRF89WlHNOjUrlcHvQDT0bThbpvSr5kMxwZeP0QU09/ivs6tOKrGLzsjqSHQw2LL6ZxvD+mSF83lSR/us4yV1GVVYsx3LtI24mZlAy5j2aKC1o/uZ7Lu+iEe3SUEm1vxCi4wu6M1YcTxUgf07Y4DK3tAA1X+ivOhDm/UfOKQtLqB95wPoiAQTeOBg5vxrjz8mKVbS7ZZ0anmHWdeWZDE/B3AsRl05Jdx6N/jyjd6VAZNXDacmqmN8jHkpRRjEm6uZno3onwJvsgqlpY1oXkXPpJlnrV5YrmOvoeh2i6BhnLA4BS8+ePtFpjBZGNkB76MzMZqaxuCzJlhhU8CC95n4Nq7Ce+juxFr61a034wvyt6Adb8ee+ot6POE0AmWx01l80mUl01EyuYDuSUzbT7aOvDaAuPgXR8Lrj/o2vyjjaH9ALD+7rCowcEjheuP+AJnQvMbzMNtmINerZHyOijXTRn1sWAfogRrCp3hZ5PwnE59HQ76uE5bEq2STfSXXCeaa+2nFqEuCBa8sLGuasxiq1LAesolbTGg2pxtPpJHtljIm/2dqVwrF1m6O276PlCDyBZxyATA4Gw6PdZsC5SyBg5yTiLP4DmMeqNxNPrh75VVfqcHLF0l6NgH+sy5yF4KssyHSjgdPT29dnlLCjGbN/Hmtd02gbAtokzGxs9HRN+H7xWdI5n7JIf9hpV1ztLCJ2FmC5WbYB7dYP6vc8HLzS1lpY+W2qbFuxxZ5hNzaN493Ge2nzlPZEAjAl3la6HYHCY4hN9hIT3JS2ZNbs653pLDsC74YMgY9B5MhmyOUZaNXJewYQx8f8qUFAq3jCe15TeDbY3IBafriDfjTRfPgI4F2Xvqp1OOse2FJ0bxlnQkMNoeQ87VYg4VZecwDda1AOSCvr7e3+Nlr2t5wIEgdStYcNk3uBoBghKe6Nxg97agvGK8YptXnq0vL6W5mpeSOZgdDlhIBAVJ88y1tRDJbIYijkXrSWXfZUs3wPwG/PAuF6XND9c8ee0KEYTxsFCCF2p/4L7yNbSFNhEiWshkc2Wlzf+w9YfBXwYXPMFViiidaWMHrNoE4c0CeHLtaVnjFhag63FQcaDUlPvN6PV6++AFo22yYaPZ6nCxTUW7Mfn8gcYDpGtzc1w2eYptWPZD+H0/1KfFCyd7Zagfm/9KbNxxtRvQnsHZbI8nL/jZbGjDXGVipg1iCx/jW8gknNiPLV7oV97t8gWO1/LwwDYijKO9YWIdAekg0nA2dBjzrD/0GyxnttyNhzVuIs9cCY89/5o81F+1xmAXH9jAE1xob7pLiFojNkb2jT8mDHusv//O612t+Mm3MXDtaJ1YHhht6w1feUBgtrEVpbdeDd/FOhXa7RF+9iKTNKekYXhNXGF4F95H90i+k46vOcLDTd/GQRnf+n17u8AF7JZhIaw2vcLI56RtbuJcCXPpEK6qb0nOdcgkDJhn/S3Q3qE+/tlYSjpRrUQJBwvXu0PQ3B6OWzQeQeMWTXaPdksw2CxZjgn22J8f32bpKQmZT8VREo6Y8BMUUMwBa0I08W4DmbN9accXMJaUt6ti8fZjM74i1K+jsFAGi/9ybAQewVUnhXHfahPGCQdK9i/Bj0Y2Zk6pFu6OClt3TxuNp5KbuBg+7APJ8AKNRSygn1vJf+Ao5zdospv+XIiWaBd18M/srD0R+gfVPN8csr3445c/vUXz00ApLijmxJ92WVI+P3Ut3FqsbGBZOefGI+CIHT7h2P+I5gkaV7WhbQHX3JkPfpDooeyHfKSH/bMLNPHLkG0vo5JHif3KWZFm8+bHQLyA1jDuda0B9j2Aa43JoUPysV+mYFZuneOVQTzLy/htL2gOMG6oWwHnc4zTunmfsBPfuULQ6CJxPeFA4AQ6vWAMJqmxsQK7Prx0eOkbsU/v7EJtxoIDyj1QeTAPWA1LKFI/yjPmeRRom/aa7X+PoesDjVuY7CoL1Pg1Zwf6tiaJRAjMFvRDfbSX6tw+cXX2yaVVpRoHDH8Er53Za+2X+XCL5niugTK92zpke/DHeZt/Cqy2+fVYbclc0wibByw+fl/l28K/rFQOG/Tj8Pbif5i/9UUJHNX9C3TmmzHzmpgdv+AsT2sXwLb1Renqmi0izi7+uPn5x4T3Dr4AZ3nZ/Ylq6fZU3LD+R7TuQ0xsYbEP/GM9c5BJci0OAK4OtRBTvGzyR6RpsRPHEFsshkNh2zNCufmUgeMRuLTzG1x+fT907T4fWdsJGAthCh2u4R4stnnpLDFTF8cbjtmwY+ddJhy83AQV2ZtEqsQw1zwLwhcxG+4eVcl+GxPak56ey/1ar1JToKHfdVCzlkTJFxhQwX2bw/HAxR7wNEM2Vj+/LJuzyYd5VVk2rCNQXggdWQDgPgwxY3l2ZvZUzHFXwSfUrTLWyNvxXbRf2E+HVDwVKz6f8zL5flwbtj68z1TdeBBsYffnS3JdVREYn4O91GfKvUQ7jLtS6JnMVmBVngs2l45z56M25/W6Rcj84jzWs2Tb5Tb3wL1qDO1l8FtaeCenHfSU1g5lvK5jcNDwmHY65qLjQO2R8DW/xFtA3ol1qHvMc4m5dr8PNMfyg5yvLUnyq3zj8Deh3O4NsRNFfSurc1Dx+z9v443cze0UweA0LN63mBPzerk5OWkaHCu41r6JNnXTjxatNjyP6PjnxlHbC07mwwB8qBtdIQ+CwzNwSYrBq5AIPhP7Y9/1pP4NOMWqI/qv2sA8L2VoUwY6bMT3x94C2+Z9RAOZESzW96Hf1XAEr4Vz+iV+muVFoNt9TPbVMcF22SY+mFNwmqJvbs5gr6S5FXaid5FPwKw/aY2ECz4r4xIU8cDytB/2k072qTXBMxu8j69jEJGczxm8+Cuz2dE86Zk+x/QgPJpwIK4b2vcVNcYyH87KefbYNuHI+Roc6PzK7IXN0qPcBN0vDL+mrZIODQxYmIuXYdkeOjvd+ObYprEvwpG1vQyJNoyH9/P8WgXQtIXrNlu7+Lka3Cuf7tBtZRN0PxBv4HgldTNxDjVO5vI7rnV+n7Z+oYNJOk0jaP4sGjeGFibl+r0+rK+FSIaHx4b6WDc/E9Cq+sGLm79kZ4bgNxyD3PYOkMVbWt6BfTK/wGM2pCvgWz5ovqaZvgEHQZegzp9caveMR9FE2M5xhP6ADFoDRebua9laxAb6KX5d9iJ2YgkFLSR16o40kgHcQP8MovAHYHzXR/v8sUIEvQ9j4Z4BfX3sIzTeghkHiT8eQeBGxqW49HaRM6bNp1+R1KMJo1KL7D7AeMkT4dzPhb12Y7+NtgIZges5ONr4NOwxW9kYbl7rzyHEX0D+VkHYV/BexYswa5eojTIcH5PsBekQ2PYZ2Ba8QcHxtPsE7y5wQPihwSZ/8dk5FPwEPYL0mdB1ARbWceDxPbXRQog5x+AiJyGnTQuZiJfNK/TOYU3bbrFh6HCuEV6FNcMROsLK0bGxD2LK9w7HoXVL5dCDpde4geVuEvjpmHHpMMeoIId+sQ8ejTXyUioP2zRWGz/GDiffMXhRFjz/RXspoyQ9rLOMAbyB37lSezc57y0jYH0aepcYHnxJRCN9Fr63dak/iq7aw8A8KbwcwNnihunK6RDwxPs7u09Yk6sRvD4NLdZnOF7NleG9BetQ+NFGt56hkWXnD+Z9kFgeHe2kvly/5wBtaySNZy7d8JV8yXfxvru309wpFeAAyPuars/g6Zcg8zlIHy0bMD2HwNd8ATHge/CTjxS9U85xhGNZCF+T6cPAOR/vDQ2gcyORiZ0RBC4uv1lfC+MvYxCDs3w0Brk7/pbxnhjyIVdO90DbCaPj4x+dGZ39Kc5i/gHqeDDbMvlatM5J2csa/9313OGTJ2g0B39a/Bb4aC+Xq++HGtD+ZBwx0LHz7GRFlVbQe3hEijF9Dk7p85DBq5tabaWs6QYW9Z7kfP+y0haVwJRnj/zFVGsTlnS4WdlJnYg+v08cW5QEBNpneI6Ont+AA1KT6UIf5kOThL/Iez4XKQ8YxNOScyJAFH5sl03+mKBFZHMINq+cBweBW0O+3K0+HBzYAw2yjzZnySnmZnwx/oY5JvJxPWh8rEPkzv+/vXONsauq4vjcufPoY9ri0KKSqkE+AAEJSEDLo6jFBBkrWiFoNFYSggmSAGoUEqHGGKR+gxhjIiYSJVFBkTQFQWoJoJFAMaFCFFoQCxVaWpoCpbev6++/9l7n7nvnPqdT5DZ7T+aeffZjPf5r7cfZ55x9WObq5cpLy2IbXHDHSewsjn9B9Hhs8iWdGw+SFLysZEB/3Q9t/a6i1WB7/NHR+5D3QdVJg9EQT/HjG2UMYD9Vm4Nv28kO+eMMdDfQydxFvbChqpGIvldil4z9zKJft1n0V1OeyMKnaAZec5spL/IPekYMeIx+RTdL8shS0iAKr3vRx/aMNJoRL8Xdbo6l0qYS3Paio+B4Sn5WOb5I+z4Beein7F6x7hfbhsEcj+A/kSjUb/y1zismqrTbWg42HcGnQZLb+zDXpR192v5O/PVm85cGLURT+CqQv1R26DTogEUZ/5mg7FrVEV2jjZ7WBiAKzyV79u37M0+O/kw4GoMWP6qr4Lo4diF1ar91S0x88kCd3u28nWQN0hwqoSsQxNwEEUBasqoOXMPlKP97Xyf/pYHqPHbAfl3Iz8OgfKCvOtsMy81fv7LWez+NwRqHNXXrhH/JTGJNY5lm5w6CG0cyKvhgGM6i8ehs6Nhv5WGR79EBrNFyDjPeN9gRfohXAd6L7h+h/FnQHDanhFZNVBGGKgeTFQuSVxkdHq0b8J2fH9HjdnhdQtmlSjPjOY1IXTTB8hTkuo+rU3264B4c8Vnk28EgOsQ7dvOr+6rHQed8mH9CbqN3snyLHXMmSATZ0JVtt3CmifKe8kqSWz7wYnyjTI5bcK6a1mRPOYh+cHThL/uHqxgj2AMLcHge+5h+qutye9xkFiOCfNP8S5jCUwKYDNXqFlYXNiq12yD/qO7nKVyuWpynyAZOYYh3HbXnnbFzH6GQvTdXrb7IFcqrnXhi8woTk+/Tjhahg16Kx8rxn3jiz2KlZeKL8Yc78N+/MUF6CXvvgY9uyB/N8Qzy9GTw+6BrrINdFRVhS7IfeB3LpPIMTn7hqdTZRv3nqHoipYPPRnztnPo6knR8Zc+etfjsLdwjfAA5niWZxm9hHgPn+6F9Op3g57hKnfBJUSRl+jmuShNegXKk0NvB9i8xM0T5VN1VVTo8TuaK8+8MYFuNXY3+LLIf5nWEi0hquxSa2MH80PgJjGkMAQshEQjLp12PdmyYRN+GX3yZaosFrpYRHV/VMzoiVB04k51oHmTQWT0yOnw/k5gN9Dc71dfg8ws4ngCdC/CpxXQm1p5MT0kRabrKtDVtbXY+k5MbobxNfNqFVJ525brJqxu8VKE8Vv5O9Y19p8GEWWUAzfxf8ShxbA9GP8yYDNo5ZB8fi4QOhBLW0QOADOEDjCtQ0KeSLqFEhYbz1NCcoeuMeMcfzKNqxt5wNb5upJSPeHs6g+hCdFhOw9KejTUlIx2xVV2Tj6P0tteNk7jKlMullTTaxxRvFyjzLRry6dB8T3DEiFLCL2I7vL96YAKoJphh6yXPCiVVaja/jEmhgmRTzDrpWMB1Nefih899X80MuvVyVaTlNpX8aVznBxuMXhAZUhiqiPdGGb3ZFNn24Bx2m/ixoBSJ2+ahMdEaPzyFE0vi/y7KdhnRU1wMJroCsXta7r+qbv4BbXM+KSqBzCqBeLCHOedm6LwSUtv/MtFZy1LeSjqTG1RSkz2pZfYWeaXxL31IWwjba5jw6Ptib5K0l/9RWsRMdTjoazIFOWq+L1FN3GiLcqn0BJ3ed4148kNntporq6XeuJxOrGYlJRu0jqYd3fTW7t2v04HpoZPdyoSN7jG/ixi7yqsWDqz0SEAyqJCfW558RMmSkWMvARneEC3J652+6uvcJ01hyac6CoYLzZYGbuzgq+FLBG15RrnMBqItHQimQ4yHlKn/Gk30SMlF1+5IlHZCN7PnG9jifiiMo3oRJLPTMZz4XhpAL6vsriwjp1Lau7foa6gW4REB/QdpvD0VRENOZWikfMXMGTOfT9PTuLWCSEa2dT9wHNOyvcRNyLSCvh6MIJch75b0ElllpLT9I4BAduOlR3NoCZqE1JmUbM6p+pRTXadJVLPj5ZIhqd4mqlcoa9ked7p47RroP6ZzM5jxC41ItYI+SgxE6vQgU+C4fMLCGkYszhRl9dissc5Lm9BAp2eYIV8BppXISuwDbZT2IHkUYj+oT8rPJYmXo8OGnTK2h+BIteVHyaYgGoPlwR/qis/LNj3Gy2CVF13jyTHl0bTeFBKdtqo6xr2QwcjyBxsAHD8/ik6BGwArrv+Uj7BiRtlxZ41GmWzQ5IrNG4nT9nLmG9BOg6XJpz0Z2aGzKy3TLo5P3ci7U3eojPuflze9Ev10roGKoMnNEWAy0wYtEtRhy5YuT4qXKigw89vExOpS5NseUmq/DGi/If0ZKxfxNP+Peomu/j1QRJv1Hsv/iaTpiu0YyaS2ZW3HxAylqbeKmE36GumofDNZnU+rI1d9m6DFVluJULFwYT/yhInODTsZqUdmhim6WP1UmES/NLnXuNssxcXbtth2ooc91/El868LCy8rWo6Bp4mPdLA1nFLJ+hrspY0YbBHB9BM2YOS6io6CwUZcRx40WjF7xmzZs2XQdELB6ShuMvWIveqloVEny8MR/jIyPHwx0r0oAT248Dp3QfyovBR4ldG5giuruNLqmKJAyK9umjVz5jKBr3JdhTBRK4pKBsljckKX2eMvoafL6B012YNCfu74SQbXJRCsGc3yIOINg+WNJ3gY43Iat80yCwHaROgM7sLQX4NIRbytIzDnidxcbk4lk5WhXMAQzqpDun5cdpfHylBAZQYHyz+mA5w0k24jWugkI+125aaSJ1llb8loOIqPBdfCz1sfR0e3bgbrYqNcwwK6HkSpuNeJEY1yNKzFVbZc+2Cl1+vmCN/1Xk609O9+oqNkUbA0TnQUa/NxJgjcE/1PKNHdL/wq2O9ySv/RakQ9nKdT8XPTzxM5uk+Iv/5dHsM+ym51qwOv0jaWc3X+ZFK9iCLHjqHy0AqnpwzFozgFBpZuNq35pRMxvPD0AqRA5HmW577AAH2vl5M8rk/Kz/O7OaKLXlV5wO2hOhZPE0iT/PJFtT8L5DdiGDJa/3r50DaDTwDNtAS3mWMiXoa7HV3o9qzoa35N33cVFStS3+VMa4mP6RHpp3lKFz5qUyYH5xai8VVXNJnAr6Qf/FHIbP3r3bRj7rrV+UXr6i1zJEfTwMz9IRz7fAr8VUycocCwmZQUQhk3pPKlm5cTUXcUY8KJFParOSsHDRlGPOB1ngZN1es6+JBOBcllkNsxJDCznKerHgbiK+FjD3eoVJ2MlDdjSX6vq0ISPgYHKRr1Ee4NLqNxb/b8bo/Uu41L7Iths8U7W9WVUZ23G1jpwsvF0FE6ukMp3+SR/ORpWZNlzBvHZs36JrKlmqho0yB6acloCxllWoLkF9YeUhw9rZujveBbGtjqtApMEjn9ytiFly4KkgGADpQHynXv4Sm5m8BXtNeldpAMwkzYGX5RP6VZOY6yofGFAY9B9fSQiGTSwEEHfwmRW6t8rEnB+dlJ/LE0+Be4iHf8L9KQReWEvXCL+RuZnS/VMmVKrzFuneAg900h4HqrjPOQZJ6uxqW4eClYO4eh7GBlJAe58P02+u1iaXSOFXRj2kmNdjzt+gDNfVxd34yefEcuyCGdxVuKu1wiKJYul84twSIdfqjnPqySHg88OtTtIVuyCmMd3Y96qG5FGVR+AtZfQeTtDrFoKqRYCAm3Z8iNPJNCXl+YRRq6OXYt/dm13fQ1srzx5SjMXA7nN9Wj49+0PgPKUzSiTzIDux6+tZkvJwZqVNCdMyViBiXBHEUORFkxq+t82dVjZGj4OvHQIJPWn0rcH2CQbKnRtYRWHixfqnfHCrmiIcXH5Ne5W0lp/CkoL8m/dc7Y2FIM9oJlTuFHl9ijIyPngMUqwWf/4iaMDKwaX52mhta5MIywhzqqxqPk4Lgs7nbQ9oaziwwWHq07Bjnqkg7qxGV1R6vpY5y6ps27dM8VilPLazs92ct9S7b3dPFF1Q348qRvaXXDnMFHu89YcLrOO62vNC9njZzz2KFOya+puxNfu5x7l5eh2CbRdvriK/1SE7q+nujnkqWoB0TQvZ32djYDU92OMKkuaZxO8Dq1f+gVy1DSNcUgjdd4iXPR2WG6agU6V8L3TqdvdJIyabrHeznqgTOuOK5GvGJ53nDACeuwosU4PkbfnbRLZq5vXT8Tmm2XFNoXM1n5cZvXydq+al0uWP92xujox/Cf4uE30XIsDP/Elo18CltCtcgrDfwTjD8L1noYrKfgNBy/wN+l6YmUFU7la1obZ9+FA/+Aq5ePIvQKKmzE32gE0YGJSCg5qoIL2EjMBxPNgSizcWiwvAKaZzOw3CQejeW7O6/nJpnER0o1QqKrHl5SXUINvXtlD8U2+qw1Ns0QoSPKli9dqwOPovuntX8bsna140c7+TVQ04FcNDI0tIwZ6iPQt3dqvPNV3UmyBXiNrOmmAnRqyHX9nLE55+Kod7XjWZd3gImx7CCrQcdsp3tg/i9zTkPQ0072xJN4NPxPgfw/qCNCARynZ9IH2YM+2M6KhTTTrTqgq65J93W6kYHZ/GYo7RDfmi7yD84FkzCTTBxdx+JcnzqZUZ3S4CXZ8LUq7ePnc+fOPUd7CJL0stEmIj8XWwX5qoK1MRJDp0CCHEXnevCnWl3DsvUE7WA5dPUATFdBMqj9syqyhAoPyVfFT1eX3sZcDhEU7zQIE5KeZMK2VFcDaZ5jpzKmDEebgKYE6yp0PhEP+pVPIeNDlOZBlvBn9KOt2KiWU9KNrY5EOgQeCNHDbaoVbA4t928jZM7QgUgX2SaL+ZKQSP6CjPqqfHcvBkdeTNrW4z8XcM/9EpIe5X+fSMlX3G+sKMZ0v5k0KAg3+v1yafBa+ppFYLza6nT7o+rSKf653Q03snjgqCednG2Dq3ly6yPgju2q7Po4j24v5pHcUwHzOGQ7Grvqu+MAILc2ZSORkjzlJR4ieJqc9ZR/kI52LccpDliBLE8Jfn53Zfcd3HCEnZy+aKs2eMkQ3Ju6ikHillQb5Ne7Up8BMD1KfCaAflBVizISnWUm1NjAbP/h0lDp7lmjs+5F3mLmWZSdhojk4Smts8DyAhrIItifBIrjBmFNKuMEfm9S/lkGrHX8r2UQXIVcO3sVg3c8FtEpfxiAWurEKwC/g3bHR7xb8QbjxdT/UDMe+/fupx8d3IX8v+9WfvT+AHJPlIfLvEDbfQDTGcPl4cd7XpKOLPTe4ltvHXkh8h7ZTJdWkiQ6/godW+Lcqn6zdDCYj69cyFOAS4ifio/w4c3qsJWV3+rhDdoCbYLs6n/5hMp6PHsdtvwD+j+OHGnDbMaibRo0S7S787RRNZsInMn5cTTu2Ua13ldpftzrK5X08MAq7HwnvOt2oJEPgucZ4Dr5vvGBAe3ZuYN6dzfWaytgkilZefLuJOx/MgO/XiFoHeBHuc1MFNgir/ku+HovCllPa+kD0GCgoD+qbfPVmmHzHJ4cVT9wSjMe0Z8qYKJ2OaUJNJgM4T/nwmcC2+iLG+prwjuv1u8hVzyqr4HPvzh9gt07/gQ293BeZ8PmWtSn6r1UrlZOambnRCftUNTz5LLe5er5djxD+REKzcehxzC+XvYbR4iZqkicXepL2xF6G0aV0q9y3tWSlup3Cj54qamqbPi1tmtxNSj4TRq8UrrIuAAHX4DsfMa9ymO9GntN5le4Aayn21gvPrgGn/LrFA+bHi88ioYyjjzvBrvZ1CkhH7uSj2zluAMstyHTlJy3E/+c3x8I4Bvy+XHawJFMYhbs2b9nnOmW2p0+iLpNbQ5/0TLptLa5FB1kmAv/BfAapzM8Cr7yVS1Lvkbay/DXOz9bOe9pspHyyPFDhwD206sMC7DdfPWB2MwGeO9rGES3M1Cqr+l5cnzopK6nPOk9r/rs9mcopsGo5wcX2lPtPVeXuZowKBSDGM2708iM/Fupov+nVff/HeLO4y8gh/5zyAg0RQC/lbtrcND/lJclmxLvMjF2aurYenrxu0vyudghRgD7aeWrr/uaScubhxiz6SXPZVejAlrPffuulaZXnUwtI5ARyAhkBLpDoLHv767WO6WU7nZxeWWLKFEmXXlNuhn5TpE3y5ERyAhkBDIC04JAfw9eQMCNxXylNS2ukIlkBDICGYH+QaC/By+WDf1JQy0XevD7Xn6ejxmBjEBGICNweCHQ34NXtIUr4fe6dEyXEg8vk2VtMgIZgYxARsD7/b5FwgcpKaJ7XX4F5gNZ3yqWBc8IZAQyAhmBlggc1KPyLam+zRk+gPGshgWtIObBK4KRDxmBjEBG4DBEoL+vvOJWHrZMmB+RPwzdM6uUEcgIZASaI9Dfg1fUSVdeqSIazLSEmENGICOQEcgIHJ4IpH1+X2nI9iXazFF7YxbBlw+V0LeKFdrkSEYgI5ARyAi0QqBv73mxFxcbepZ2MEgNszeU7Z+W3udiw9K5fAal0krxnJ4RyAhkBDIC/YuAP+PQdxqwsaQ2BD0GwXWR1WyVcJCdtF9gD68tfadcFjgjkBHICGQE2iLwP8pshXCX1uaqAAAAAElFTkSuQmCC;" parent="1" vertex="1">
                    <mxGeometry x="304.5" y="601" width="131" height="55.93" as="geometry"/>
                </mxCell>
                <mxCell id="14" value="" style="image;html=1;image=img/lib/clip_art/computers/Touch_128x128.png;rotation=-60;" parent="1" vertex="1">
                    <mxGeometry x="-550" y="54" width="80" height="80" as="geometry"/>
                </mxCell>
                <mxCell id="92" style="edgeStyle=none;html=1;entryX=1.009;entryY=0.515;entryDx=0;entryDy=0;entryPerimeter=0;" parent="1" source="16" target="34" edge="1">
                    <mxGeometry relative="1" as="geometry">
                        <Array as="points">
                            <mxPoint x="-180" y="143"/>
                            <mxPoint x="-180" y="290"/>
                        </Array>
                    </mxGeometry>
                </mxCell>
                <mxCell id="110" value="Activating Microphone" style="edgeLabel;html=1;align=center;verticalAlign=middle;resizable=0;points=[];fontSize=14;" parent="92" vertex="1" connectable="0">
                    <mxGeometry x="-0.4685" y="-1" relative="1" as="geometry">
                        <mxPoint x="1" as="offset"/>
                    </mxGeometry>
                </mxCell>
                <mxCell id="16" value="" style="html=1;shadow=0;dashed=0;shape=mxgraph.bootstrap.rrect;rSize=5;strokeColor=none;html=1;whiteSpace=wrap;fillColor=#65C900;fontColor=#ffffff;align=right;spacing=10;" parent="1" vertex="1">
                    <mxGeometry x="-493" y="123" width="40" height="40" as="geometry"/>
                </mxCell>
                <mxCell id="17" value="" style="html=1;shadow=0;dashed=0;shape=ellipse;strokeColor=none;fillColor=#ffffff;" parent="16" vertex="1">
                    <mxGeometry x="0.5" y="0.5" width="20" height="20" relative="1" as="geometry">
                        <mxPoint x="-10" y="-10" as="offset"/>
                    </mxGeometry>
                </mxCell>
                <mxCell id="19" value="" style="html=1;shadow=0;dashed=0;shape=mxgraph.bootstrap.rrect;rSize=5;strokeColor=none;html=1;whiteSpace=wrap;fillColor=#FD1745;fontColor=#ffffff;align=right;spacing=10;" parent="1" vertex="1">
                    <mxGeometry x="-602" y="123" width="40" height="40" as="geometry"/>
                </mxCell>
                <mxCell id="20" value="" style="html=1;shadow=0;dashed=0;shape=ellipse;strokeColor=none;fillColor=#ffffff;" parent="19" vertex="1">
                    <mxGeometry x="0.5" y="0.5" width="20" height="20" relative="1" as="geometry">
                        <mxPoint x="-10" y="-10" as="offset"/>
                    </mxGeometry>
                </mxCell>
                <mxCell id="33" value="Orchestrator" style="swimlane;fontStyle=1;align=center;horizontal=1;startSize=30;collapsible=0;html=1;fillColor=#CCE5FF;" parent="1" vertex="1">
                    <mxGeometry x="-390" y="204" width="200" height="380" as="geometry"/>
                </mxCell>
                <mxCell id="34" value="Mic" style="shape=umlFrame;tabPosition=left;html=1;boundedLbl=1;labelInHeader=1;width=80;height=30;swimlaneFillColor=#ffffff;align=left;spacingLeft=5;fillColor=#CCE5FF;" parent="33" vertex="1">
                    <mxGeometry width="160" height="70" relative="1" as="geometry">
                        <mxPoint x="20" y="50" as="offset"/>
                    </mxGeometry>
                </mxCell>
                <mxCell id="35" value="listen(GPIO)" style="text;align=left;fillColor=#CCE5FF;" parent="34" vertex="1">
                    <mxGeometry width="130" height="20" relative="1" as="geometry">
                        <mxPoint x="10" y="40" as="offset"/>
                    </mxGeometry>
                </mxCell>
                <mxCell id="37" value="STT" style="shape=umlFrame;tabPosition=left;html=1;boundedLbl=1;labelInHeader=1;width=80;height=30;swimlaneFillColor=#ffffff;align=left;spacingLeft=5;fillColor=#CCE5FF;" parent="33" vertex="1">
                    <mxGeometry x="20" y="130" width="160" height="70" as="geometry"/>
                </mxCell>
                <mxCell id="38" value="azure_cogs_stt(audio)" style="text;align=left;fillColor=#CCE5FF;" parent="37" vertex="1">
                    <mxGeometry width="130" height="20" relative="1" as="geometry">
                        <mxPoint x="10" y="40" as="offset"/>
                    </mxGeometry>
                </mxCell>
                <mxCell id="39" value="GPTSkill" style="shape=umlFrame;tabPosition=left;html=1;boundedLbl=1;labelInHeader=1;width=80;height=30;swimlaneFillColor=#ffffff;align=left;spacingLeft=5;fillColor=#CCE5FF;" parent="33" vertex="1">
                    <mxGeometry x="20" y="210" width="160" height="70" as="geometry"/>
                </mxCell>
                <mxCell id="40" value="call_gpt_skill(text)" style="text;align=left;fillColor=#CCE5FF;" parent="39" vertex="1">
                    <mxGeometry width="130" height="20" relative="1" as="geometry">
                        <mxPoint x="10" y="40" as="offset"/>
                    </mxGeometry>
                </mxCell>
                <mxCell id="41" value="TTS" style="shape=umlFrame;tabPosition=left;html=1;boundedLbl=1;labelInHeader=1;width=80;height=30;swimlaneFillColor=#ffffff;align=left;spacingLeft=5;fillColor=#CCE5FF;" parent="33" vertex="1">
                    <mxGeometry x="20" y="290" width="160" height="70" as="geometry"/>
                </mxCell>
                <mxCell id="42" value="azure_cogs_tts(text)" style="text;align=left;fillColor=#CCE5FF;" parent="41" vertex="1">
                    <mxGeometry width="130" height="20" relative="1" as="geometry">
                        <mxPoint x="10" y="40" as="offset"/>
                    </mxGeometry>
                </mxCell>
                <mxCell id="83" style="edgeStyle=none;html=1;entryX=0.5;entryY=0.48;entryDx=0;entryDy=0;entryPerimeter=0;" parent="33" target="8" edge="1">
                    <mxGeometry relative="1" as="geometry">
                        <mxPoint y="85.23199999999997" as="sourcePoint"/>
                    </mxGeometry>
                </mxCell>
                <mxCell id="43" value="Azure Coginitive Service" style="aspect=fixed;html=1;points=[];align=center;image;fontSize=12;image=img/lib/azure2/ai_machine_learning/Cognitive_Services.svg;fillColor=#CCE5FF;" parent="1" vertex="1">
                    <mxGeometry x="336" y="193.00000000000003" width="68" height="48" as="geometry"/>
                </mxCell>
                <mxCell id="107" style="edgeStyle=none;html=1;entryX=0;entryY=0.5;entryDx=0;entryDy=0;exitX=1;exitY=0.5;exitDx=0;exitDy=0;" parent="1" source="53" target="11" edge="1">
                    <mxGeometry relative="1" as="geometry">
                        <mxPoint x="140" y="427" as="sourcePoint"/>
                        <Array as="points">
                            <mxPoint x="220" y="574"/>
                            <mxPoint x="220" y="427"/>
                        </Array>
                    </mxGeometry>
                </mxCell>
                <mxCell id="53" value="GPT Skills" style="swimlane;fontStyle=1;align=center;horizontal=1;startSize=30;collapsible=0;html=1;fillColor=#CCE5FF;" parent="1" vertex="1">
                    <mxGeometry x="-83" y="204" width="220" height="740" as="geometry"/>
                </mxCell>
                <mxCell id="54" value="IntentDetection" style="shape=umlFrame;tabPosition=left;html=1;boundedLbl=1;labelInHeader=1;width=100;height=30;swimlaneFillColor=#ffffff;align=left;spacingLeft=5;fillColor=#CCE5FF;" parent="53" vertex="1">
                    <mxGeometry width="180" height="70" relative="1" as="geometry">
                        <mxPoint x="20" y="50" as="offset"/>
                    </mxGeometry>
                </mxCell>
                <mxCell id="55" value="call_openai(prompt)" style="text;align=left;fillColor=#CCE5FF;" parent="54" vertex="1">
                    <mxGeometry width="160" height="20" relative="1" as="geometry">
                        <mxPoint x="10" y="40" as="offset"/>
                    </mxGeometry>
                </mxCell>
                <mxCell id="56" value="Greetings" style="shape=umlFrame;tabPosition=left;html=1;boundedLbl=1;labelInHeader=1;width=80;height=30;swimlaneFillColor=#ffffff;align=left;spacingLeft=5;fillColor=#CCE5FF;" parent="53" vertex="1">
                    <mxGeometry x="20" y="130" width="180" height="70" as="geometry"/>
                </mxCell>
                <mxCell id="57" value="call_openai(prompt)" style="text;align=left;fillColor=#CCE5FF;" parent="56" vertex="1">
                    <mxGeometry width="160" height="20" relative="1" as="geometry">
                        <mxPoint x="10" y="40" as="offset"/>
                    </mxGeometry>
                </mxCell>
                <mxCell id="58" value="GeneralKnowledge" style="shape=umlFrame;tabPosition=left;html=1;boundedLbl=1;labelInHeader=1;width=120;height=30;swimlaneFillColor=#ffffff;align=left;spacingLeft=5;fillColor=#CCE5FF;" parent="53" vertex="1">
                    <mxGeometry x="20" y="210" width="180" height="70" as="geometry"/>
                </mxCell>
                <mxCell id="59" value="call_openai(prompt, entity)" style="text;align=left;fillColor=#CCE5FF;" parent="58" vertex="1">
                    <mxGeometry width="160" height="20" relative="1" as="geometry">
                        <mxPoint x="10" y="40" as="offset"/>
                    </mxGeometry>
                </mxCell>
                <mxCell id="60" value="StoryTelling" style="shape=umlFrame;tabPosition=left;html=1;boundedLbl=1;labelInHeader=1;width=80;height=30;swimlaneFillColor=#ffffff;align=left;spacingLeft=5;fillColor=#CCE5FF;" parent="53" vertex="1">
                    <mxGeometry x="20" y="290" width="180" height="70" as="geometry"/>
                </mxCell>
                <mxCell id="61" value="call_openai(prompt, entity)" style="text;align=left;fillColor=#CCE5FF;" parent="60" vertex="1">
                    <mxGeometry width="160" height="20" relative="1" as="geometry">
                        <mxPoint x="10" y="40" as="offset"/>
                    </mxGeometry>
                </mxCell>
                <mxCell id="62" value="WeatherCheck" style="shape=umlFrame;tabPosition=left;html=1;boundedLbl=1;labelInHeader=1;width=100;height=30;swimlaneFillColor=#ffffff;align=left;spacingLeft=5;fillColor=#CCE5FF;" parent="53" vertex="1">
                    <mxGeometry x="20" y="370" width="180" height="110" as="geometry"/>
                </mxCell>
                <mxCell id="63" value="get_latest_weather(entity)" style="text;align=left;fillColor=#CCE5FF;" parent="62" vertex="1">
                    <mxGeometry width="160" height="20" relative="1" as="geometry">
                        <mxPoint x="10" y="40" as="offset"/>
                    </mxGeometry>
                </mxCell>
                <mxCell id="71" value="call_openai(prompt, weather)" style="text;align=left;fillColor=#CCE5FF;" parent="62" vertex="1">
                    <mxGeometry x="11.25" y="70" width="158.75" height="20" as="geometry"/>
                </mxCell>
                <mxCell id="72" value="NewsCheck" style="shape=umlFrame;tabPosition=left;html=1;boundedLbl=1;labelInHeader=1;width=100;height=30;swimlaneFillColor=#ffffff;align=left;spacingLeft=5;fillColor=#CCE5FF;" parent="53" vertex="1">
                    <mxGeometry x="20" y="490" width="180" height="110" as="geometry"/>
                </mxCell>
                <mxCell id="73" value="get_latest_news(entity)" style="text;align=left;fillColor=#CCE5FF;" parent="72" vertex="1">
                    <mxGeometry width="160" height="20" relative="1" as="geometry">
                        <mxPoint x="10" y="40" as="offset"/>
                    </mxGeometry>
                </mxCell>
                <mxCell id="74" value="call_openai(prompt, news)" style="text;align=left;fillColor=#CCE5FF;" parent="72" vertex="1">
                    <mxGeometry x="11.25" y="70" width="158.75" height="20" as="geometry"/>
                </mxCell>
                <mxCell id="75" value="ProductCheck" style="shape=umlFrame;tabPosition=left;html=1;boundedLbl=1;labelInHeader=1;width=100;height=30;swimlaneFillColor=#ffffff;align=left;spacingLeft=5;fillColor=#CCE5FF;" parent="53" vertex="1">
                    <mxGeometry x="20" y="610" width="180" height="110" as="geometry"/>
                </mxCell>
                <mxCell id="76" value="get_product_details(entity)" style="text;align=left;fillColor=#CCE5FF;" parent="75" vertex="1">
                    <mxGeometry width="160" height="20" relative="1" as="geometry">
                        <mxPoint x="10" y="40" as="offset"/>
                    </mxGeometry>
                </mxCell>
                <mxCell id="77" value="call_openai(prompt, products)" style="text;align=left;fillColor=#CCE5FF;" parent="75" vertex="1">
                    <mxGeometry x="11.25" y="70" width="158.75" height="20" as="geometry"/>
                </mxCell>
                <mxCell id="81" value="" style="endArrow=none;dashed=1;html=1;entryX=0.75;entryY=0;entryDx=0;entryDy=0;entryPerimeter=0;exitX=0.03;exitY=0.5;exitDx=0;exitDy=0;exitPerimeter=0;" parent="1" source="4" target="9" edge="1">
                    <mxGeometry width="50" height="50" relative="1" as="geometry">
                        <mxPoint x="30" y="734" as="sourcePoint"/>
                        <mxPoint x="80" y="684" as="targetPoint"/>
                        <Array as="points">
                            <mxPoint x="-537" y="997"/>
                        </Array>
                    </mxGeometry>
                </mxCell>
                <mxCell id="82" style="edgeStyle=none;html=1;entryX=0;entryY=0.51;entryDx=0;entryDy=0;entryPerimeter=0;" parent="1" target="9" edge="1">
                    <mxGeometry relative="1" as="geometry">
                        <mxPoint x="-390" y="529.4534759358287" as="sourcePoint"/>
                    </mxGeometry>
                </mxCell>
                <mxCell id="85" value="" style="endArrow=none;dashed=1;html=1;entryX=0.322;entryY=0.941;entryDx=0;entryDy=0;entryPerimeter=0;exitX=0.03;exitY=0.5;exitDx=0;exitDy=0;exitPerimeter=0;" parent="1" source="4" target="8" edge="1">
                    <mxGeometry width="50" height="50" relative="1" as="geometry">
                        <mxPoint x="-160" y="744" as="sourcePoint"/>
                        <mxPoint x="-110" y="694" as="targetPoint"/>
                        <Array as="points">
                            <mxPoint x="-450" y="997"/>
                            <mxPoint x="-450" y="384"/>
                            <mxPoint x="-524" y="384"/>
                        </Array>
                    </mxGeometry>
                </mxCell>
                <mxCell id="88" value="" style="endArrow=none;dashed=1;html=1;entryX=0.475;entryY=1;entryDx=0;entryDy=0;entryPerimeter=0;exitX=0.03;exitY=0.5;exitDx=0;exitDy=0;exitPerimeter=0;" parent="1" source="4" target="16" edge="1">
                    <mxGeometry width="50" height="50" relative="1" as="geometry">
                        <mxPoint x="-220" y="624" as="sourcePoint"/>
                        <mxPoint x="-170" y="574" as="targetPoint"/>
                        <Array as="points">
                            <mxPoint x="-470" y="997"/>
                        </Array>
                    </mxGeometry>
                </mxCell>
                <mxCell id="89" value="" style="endArrow=none;dashed=1;html=1;entryX=0.477;entryY=1.099;entryDx=0;entryDy=0;entryPerimeter=0;exitX=0.03;exitY=0.5;exitDx=0;exitDy=0;exitPerimeter=0;" parent="1" source="4" target="19" edge="1">
                    <mxGeometry width="50" height="50" relative="1" as="geometry">
                        <mxPoint x="-170" y="594" as="sourcePoint"/>
                        <mxPoint x="-120" y="544" as="targetPoint"/>
                        <Array as="points">
                            <mxPoint x="-583" y="997"/>
                        </Array>
                    </mxGeometry>
                </mxCell>
                <mxCell id="93" style="edgeStyle=none;html=1;entryX=0.522;entryY=1.038;entryDx=0;entryDy=0;entryPerimeter=0;exitX=-0.034;exitY=0.488;exitDx=0;exitDy=0;exitPerimeter=0;" parent="1" source="19" target="41" edge="1">
                    <mxGeometry relative="1" as="geometry">
                        <Array as="points">
                            <mxPoint x="-640" y="143"/>
                            <mxPoint x="-640" y="634"/>
                            <mxPoint x="-286" y="634"/>
                        </Array>
                    </mxGeometry>
                </mxCell>
                <mxCell id="111" value="Interrupting Speaker" style="edgeLabel;html=1;align=center;verticalAlign=middle;resizable=0;points=[];fontSize=14;rotation=90;" parent="93" vertex="1" connectable="0">
                    <mxGeometry x="-0.511" y="-4" relative="1" as="geometry">
                        <mxPoint x="4" y="42" as="offset"/>
                    </mxGeometry>
                </mxCell>
                <mxCell id="95" style="edgeStyle=none;html=1;entryX=0.502;entryY=-0.042;entryDx=0;entryDy=0;entryPerimeter=0;exitX=0.992;exitY=0.424;exitDx=0;exitDy=0;exitPerimeter=0;" parent="1" source="37" target="43" edge="1">
                    <mxGeometry relative="1" as="geometry">
                        <Array as="points">
                            <mxPoint x="-160" y="363"/>
                            <mxPoint x="-160" y="134"/>
                            <mxPoint x="370" y="134"/>
                        </Array>
                    </mxGeometry>
                </mxCell>
                <mxCell id="96" style="edgeStyle=none;html=1;entryX=0;entryY=0.437;entryDx=0;entryDy=0;entryPerimeter=0;exitX=1.003;exitY=0.476;exitDx=0;exitDy=0;exitPerimeter=0;" parent="1" source="41" target="43" edge="1">
                    <mxGeometry relative="1" as="geometry">
                        <Array as="points">
                            <mxPoint x="-140" y="527"/>
                            <mxPoint x="-140" y="154"/>
                            <mxPoint x="290" y="154"/>
                            <mxPoint x="290" y="214"/>
                        </Array>
                    </mxGeometry>
                </mxCell>
                <mxCell id="97" style="edgeStyle=none;html=1;entryX=-0.009;entryY=0.502;entryDx=0;entryDy=0;entryPerimeter=0;exitX=1.003;exitY=0.476;exitDx=0;exitDy=0;exitPerimeter=0;" parent="1" source="39" target="54" edge="1">
                    <mxGeometry relative="1" as="geometry">
                        <Array as="points">
                            <mxPoint x="-110" y="447"/>
                            <mxPoint x="-110" y="289"/>
                        </Array>
                    </mxGeometry>
                </mxCell>
                <mxCell id="103" value="GPIO PINS" style="rounded=1;whiteSpace=wrap;html=1;fillColor=#9999FF;" parent="1" vertex="1">
                    <mxGeometry x="-599" y="817.5" width="160" height="34" as="geometry"/>
                </mxCell>
                <mxCell id="104" style="edgeStyle=none;html=1;exitX=1.003;exitY=0.453;exitDx=0;exitDy=0;exitPerimeter=0;" parent="1" source="72" target="12" edge="1">
                    <mxGeometry relative="1" as="geometry">
                        <Array as="points">
                            <mxPoint x="240" y="744"/>
                            <mxPoint x="240" y="816"/>
                        </Array>
                    </mxGeometry>
                </mxCell>
                <mxCell id="105" style="edgeStyle=none;html=1;exitX=0.993;exitY=0.503;exitDx=0;exitDy=0;exitPerimeter=0;" parent="1" source="75" target="12" edge="1">
                    <mxGeometry relative="1" as="geometry">
                        <Array as="points">
                            <mxPoint x="220" y="869"/>
                            <mxPoint x="220" y="816"/>
                        </Array>
                    </mxGeometry>
                </mxCell>
                <mxCell id="106" style="edgeStyle=none;html=1;" parent="1" source="62" target="13" edge="1">
                    <mxGeometry relative="1" as="geometry"/>
                </mxCell>
                <mxCell id="109" value="&lt;font style=&quot;font-size: 14px;&quot;&gt;OpenAI IoT Speech Chatbot&lt;/font&gt;" style="rounded=1;whiteSpace=wrap;html=1;fillColor=#CCFFFF;" parent="1" vertex="1">
                    <mxGeometry x="-103" y="61" width="260" height="40" as="geometry"/>
                </mxCell>
            </root>
        </mxGraphModel>
    </diagram>
</mxfile>
